Frenchpress One.ufo
<glyph name="exclam" format="1">
  <advance width="185"/>
  <unicode hex="0021"/>
  <outline>
    <contour>
      <point x="93" y="60" type="curve" smooth="yes"/>
      <point x="75" y="60"/>
      <point x="60" y="45"/>
      <point x="60" y="28" type="curve" smooth="yes"/>
      <point x="60" y="9"/>
      <point x="75" y="-4"/>
      <point x="93" y="-4" type="curve" smooth="yes"/>
      <point x="110" y="-4"/>
      <point x="125" y="9"/>
      <point x="125" y="28" type="curve" smooth="yes"/>
      <point x="125" y="45"/>
      <point x="110" y="60"/>
    </contour>
    <contour>
      <point x="93" y="121" type="curve" smooth="yes"/>
      <point x="103" y="121"/>
      <point x="110" y="127"/>
      <point x="110" y="136" type="curve" smooth="yes"/>
      <point x="110" y="692" type="line" smooth="yes"/>
      <point x="110" y="701"/>
      <point x="103" y="708"/>
      <point x="93" y="708" type="curve" smooth="yes"/>
      <point x="83" y="708"/>
      <point x="75" y="701"/>
      <point x="75" y="692" type="curve" smooth="yes"/>
      <point x="75" y="136" type="line" smooth="yes"/>
      <point x="75" y="127"/>
      <point x="83" y="121"/>
    </contour>
  </outline>
</glyph>
<glyph name="quotedbl" format="1">
  <advance width="172"/>
  <unicode hex="0022"/>
  <outline>
    <contour>
      <point x="48" y="700" type="curve"/>
      <point x="47" y="700" type="line"/>
      <point x="39" y="700"/>
      <point x="30" y="692"/>
      <point x="30" y="682" type="curve" smooth="yes"/>
      <point x="30" y="589" type="line" smooth="yes"/>
      <point x="30" y="579"/>
      <point x="39" y="572"/>
      <point x="47" y="572" type="curve"/>
      <point x="48" y="572" type="line"/>
      <point x="58" y="572"/>
      <point x="66" y="579"/>
      <point x="66" y="589" type="curve" smooth="yes"/>
      <point x="66" y="682" type="line" smooth="yes"/>
      <point x="66" y="692"/>
      <point x="58" y="700"/>
    </contour>
    <contour>
      <point x="125" y="700" type="curve"/>
      <point x="124" y="700" type="line"/>
      <point x="114" y="700"/>
      <point x="106" y="692"/>
      <point x="106" y="682" type="curve" smooth="yes"/>
      <point x="106" y="589" type="line" smooth="yes"/>
      <point x="106" y="579"/>
      <point x="114" y="572"/>
      <point x="124" y="572" type="curve"/>
      <point x="125" y="572" type="line"/>
      <point x="134" y="572"/>
      <point x="142" y="579"/>
      <point x="142" y="589" type="curve" smooth="yes"/>
      <point x="142" y="682" type="line" smooth="yes"/>
      <point x="142" y="692"/>
      <point x="134" y="700"/>
    </contour>
  </outline>
</glyph>
<glyph name="numbersign" format="1">
  <advance width="467"/>
  <unicode hex="0023"/>
  <outline>
    <contour>
      <point x="429" y="393" type="curve"/>
      <point x="385" y="393" type="line"/>
      <point x="432" y="515" type="line" smooth="yes"/>
      <point x="433" y="517"/>
      <point x="433" y="518"/>
      <point x="433" y="520" type="curve"/>
      <point x="433" y="528"/>
      <point x="426" y="538"/>
      <point x="416" y="538" type="curve" smooth="yes"/>
      <point x="409" y="538"/>
      <point x="402" y="533"/>
      <point x="399" y="528" type="curve"/>
      <point x="346" y="394" type="line"/>
      <point x="212" y="394" type="line"/>
      <point x="262" y="517" type="line"/>
      <point x="262" y="519"/>
      <point x="262" y="521"/>
      <point x="262" y="523" type="curve"/>
      <point x="262" y="532"/>
      <point x="256" y="541"/>
      <point x="243" y="541" type="curve" smooth="yes"/>
      <point x="237" y="541"/>
      <point x="231" y="537"/>
      <point x="228" y="530" type="curve" smooth="yes"/>
      <point x="174" y="394" type="line"/>
      <point x="104" y="394" type="line" smooth="yes"/>
      <point x="94" y="394"/>
      <point x="86" y="387"/>
      <point x="86" y="377" type="curve"/>
      <point x="86" y="376" type="line"/>
      <point x="86" y="366"/>
      <point x="94" y="359"/>
      <point x="104" y="359" type="curve" smooth="yes"/>
      <point x="161" y="359" type="line"/>
      <point x="102" y="210" type="line"/>
      <point x="39" y="210" type="line" smooth="yes"/>
      <point x="28" y="210"/>
      <point x="20" y="204"/>
      <point x="20" y="193" type="curve" smooth="yes"/>
      <point x="20" y="183"/>
      <point x="28" y="176"/>
      <point x="39" y="176" type="curve" smooth="yes"/>
      <point x="87" y="176" type="line"/>
      <point x="31" y="35" type="line"/>
      <point x="31" y="34"/>
      <point x="30" y="32"/>
      <point x="30" y="31" type="curve"/>
      <point x="30" y="21"/>
      <point x="37" y="10"/>
      <point x="49" y="10" type="curve" smooth="yes"/>
      <point x="57" y="10"/>
      <point x="63" y="15"/>
      <point x="65" y="22" type="curve"/>
      <point x="126" y="173" type="line"/>
      <point x="260" y="173" type="line"/>
      <point x="203" y="32" type="line" smooth="yes"/>
      <point x="202" y="30"/>
      <point x="201" y="27"/>
      <point x="201" y="25" type="curve"/>
      <point x="201" y="18"/>
      <point x="205" y="12"/>
      <point x="212" y="9" type="curve"/>
      <point x="214" y="9" type="line"/>
      <point x="216" y="8"/>
      <point x="218" y="8"/>
      <point x="220" y="8" type="curve"/>
      <point x="227" y="8"/>
      <point x="234" y="11"/>
      <point x="237" y="19" type="curve" smooth="yes"/>
      <point x="298" y="173" type="line"/>
      <point x="364" y="173" type="line" smooth="yes"/>
      <point x="372" y="173"/>
      <point x="381" y="182"/>
      <point x="381" y="191" type="curve"/>
      <point x="381" y="193" type="line"/>
      <point x="381" y="202"/>
      <point x="374" y="210"/>
      <point x="364" y="210" type="curve" smooth="yes"/>
      <point x="312" y="210" type="line"/>
      <point x="370" y="359" type="line"/>
      <point x="429" y="359" type="line" smooth="yes"/>
      <point x="438" y="359"/>
      <point x="447" y="366"/>
      <point x="447" y="376" type="curve" smooth="yes"/>
      <point x="447" y="387"/>
      <point x="438" y="393"/>
    </contour>
    <contour>
      <point x="273" y="210" type="line"/>
      <point x="139" y="210" type="line"/>
      <point x="198" y="359" type="line"/>
      <point x="331" y="359" type="line"/>
    </contour>
  </outline>
</glyph>
<glyph name="dollar" format="1">
  <advance width="438"/>
  <unicode hex="0024"/>
  <outline>
    <contour>
      <point x="418" y="180" type="curve" smooth="yes"/>
      <point x="418" y="399"/>
      <point x="113" y="390"/>
      <point x="113" y="547" type="curve" smooth="yes"/>
      <point x="113" y="623"/>
      <point x="168" y="673"/>
      <point x="237" y="673" type="curve" smooth="yes"/>
      <point x="263" y="673"/>
      <point x="287" y="666"/>
      <point x="307" y="650" type="curve"/>
      <point x="309" y="650"/>
      <point x="337" y="626"/>
      <point x="341" y="568" type="curve"/>
      <point x="341" y="568"/>
      <point x="342" y="553"/>
      <point x="361" y="553" type="curve" smooth="yes"/>
      <point x="378" y="553"/>
      <point x="377" y="570"/>
      <point x="377" y="571" type="curve"/>
      <point x="373" y="645"/>
      <point x="332" y="678"/>
      <point x="329" y="679" type="curve"/>
      <point x="305" y="698"/>
      <point x="277" y="708"/>
      <point x="247" y="711" type="curve"/>
      <point x="247" y="733" type="line" smooth="yes"/>
      <point x="247" y="741"/>
      <point x="238" y="746"/>
      <point x="230" y="746" type="curve" smooth="yes"/>
      <point x="219" y="746"/>
      <point x="212" y="741"/>
      <point x="212" y="733" type="curve" smooth="yes"/>
      <point x="212" y="708" type="line"/>
      <point x="134" y="695"/>
      <point x="77" y="633"/>
      <point x="77" y="548" type="curve" smooth="yes"/>
      <point x="77" y="360"/>
      <point x="380" y="365"/>
      <point x="380" y="180" type="curve" smooth="yes"/>
      <point x="380" y="109"/>
      <point x="334" y="29"/>
      <point x="206" y="29" type="curve" smooth="yes"/>
      <point x="142" y="29"/>
      <point x="55" y="99"/>
      <point x="55" y="166" type="curve" smooth="yes"/>
      <point x="55" y="196"/>
      <point x="78" y="233"/>
      <point x="111" y="233" type="curve" smooth="yes"/>
      <point x="135" y="233"/>
      <point x="158" y="215"/>
      <point x="158" y="185" type="curve" smooth="yes"/>
      <point x="158" y="169"/>
      <point x="153" y="159"/>
      <point x="143" y="159" type="curve" smooth="yes"/>
      <point x="137" y="159"/>
      <point x="132" y="163"/>
      <point x="132" y="169" type="curve" smooth="yes"/>
      <point x="132" y="172"/>
      <point x="134" y="176"/>
      <point x="134" y="179" type="curve" smooth="yes"/>
      <point x="134" y="190"/>
      <point x="123" y="197"/>
      <point x="113" y="197" type="curve" smooth="yes"/>
      <point x="99" y="197"/>
      <point x="94" y="185"/>
      <point x="94" y="168" type="curve" smooth="yes"/>
      <point x="94" y="139"/>
      <point x="112" y="115"/>
      <point x="138" y="115" type="curve" smooth="yes"/>
      <point x="172" y="115"/>
      <point x="195" y="148"/>
      <point x="195" y="179" type="curve" smooth="yes"/>
      <point x="195" y="234"/>
      <point x="155" y="271"/>
      <point x="112" y="271" type="curve" smooth="yes"/>
      <point x="61" y="271"/>
      <point x="20" y="226"/>
      <point x="20" y="165" type="curve" smooth="yes"/>
      <point x="20" y="76"/>
      <point x="112" y="0"/>
      <point x="193" y="-8" type="curve"/>
      <point x="193" y="-34" type="line" smooth="yes"/>
      <point x="193" y="-40"/>
      <point x="201" y="-46"/>
      <point x="210" y="-46" type="curve"/>
      <point x="211" y="-46" type="line"/>
      <point x="221" y="-46"/>
      <point x="228" y="-40"/>
      <point x="228" y="-34" type="curve" smooth="yes"/>
      <point x="228" y="-8" type="line"/>
      <point x="344" y="3"/>
      <point x="418" y="68"/>
    </contour>
  </outline>
</glyph>
<glyph name="percent" format="1">
  <advance width="401"/>
  <unicode hex="0025"/>
  <outline>
    <contour>
      <point x="329" y="517" type="curve"/>
      <point x="328" y="517" type="line"/>
      <point x="326" y="518"/>
      <point x="323" y="519"/>
      <point x="321" y="519" type="curve"/>
      <point x="315" y="519"/>
      <point x="309" y="515"/>
      <point x="306" y="510" type="curve" smooth="yes"/>
      <point x="64" y="19" type="line" smooth="yes"/>
      <point x="63" y="16"/>
      <point x="62" y="13"/>
      <point x="62" y="10" type="curve" smooth="yes"/>
      <point x="62" y="2"/>
      <point x="68" y="-7"/>
      <point x="79" y="-7" type="curve" smooth="yes"/>
      <point x="86" y="-7"/>
      <point x="92" y="-4"/>
      <point x="95" y="3" type="curve" smooth="yes"/>
      <point x="338" y="495" type="line" smooth="yes"/>
      <point x="339" y="497"/>
      <point x="339" y="499"/>
      <point x="339" y="501" type="curve"/>
      <point x="339" y="507"/>
      <point x="336" y="514"/>
    </contour>
    <contour>
      <point x="187" y="414" type="curve" smooth="yes"/>
      <point x="187" y="475"/>
      <point x="147" y="525"/>
      <point x="97" y="525" type="curve" smooth="yes"/>
      <point x="50" y="525"/>
      <point x="10" y="475"/>
      <point x="10" y="414" type="curve" smooth="yes"/>
      <point x="10" y="354"/>
      <point x="50" y="304"/>
      <point x="97" y="304" type="curve" smooth="yes"/>
      <point x="147" y="304"/>
      <point x="187" y="354"/>
    </contour>
    <contour>
      <point x="40" y="414" type="curve" smooth="yes"/>
      <point x="40" y="458"/>
      <point x="67" y="495"/>
      <point x="97" y="495" type="curve" smooth="yes"/>
      <point x="130" y="495"/>
      <point x="157" y="458"/>
      <point x="157" y="414" type="curve" smooth="yes"/>
      <point x="157" y="371"/>
      <point x="130" y="334"/>
      <point x="97" y="334" type="curve" smooth="yes"/>
      <point x="67" y="334"/>
      <point x="40" y="371"/>
    </contour>
    <contour>
      <point x="302" y="218" type="curve" smooth="yes"/>
      <point x="253" y="218"/>
      <point x="213" y="169"/>
      <point x="213" y="108" type="curve" smooth="yes"/>
      <point x="213" y="47"/>
      <point x="253" y="-4"/>
      <point x="302" y="-4" type="curve" smooth="yes"/>
      <point x="351" y="-4"/>
      <point x="391" y="47"/>
      <point x="391" y="108" type="curve" smooth="yes"/>
      <point x="391" y="169"/>
      <point x="351" y="218"/>
    </contour>
    <contour>
      <point x="302" y="28" type="curve" smooth="yes"/>
      <point x="271" y="28"/>
      <point x="244" y="65"/>
      <point x="244" y="108" type="curve" smooth="yes"/>
      <point x="244" y="152"/>
      <point x="271" y="188"/>
      <point x="302" y="188" type="curve" smooth="yes"/>
      <point x="333" y="188"/>
      <point x="361" y="152"/>
      <point x="361" y="108" type="curve" smooth="yes"/>
      <point x="361" y="65"/>
      <point x="333" y="28"/>
    </contour>
  </outline>
</glyph>
<glyph name="ampersand" format="1">
  <advance width="397"/>
  <unicode hex="0026"/>
  <outline>
    <contour>
      <point x="373" y="22" type="curve" smooth="yes"/>
      <point x="360" y="44"/>
      <point x="340" y="67"/>
      <point x="324" y="87" type="curve"/>
      <point x="348" y="118"/>
      <point x="375" y="162"/>
      <point x="375" y="202" type="curve" smooth="yes"/>
      <point x="375" y="215"/>
      <point x="365" y="224"/>
      <point x="355" y="224" type="curve" smooth="yes"/>
      <point x="348" y="224"/>
      <point x="341" y="219"/>
      <point x="339" y="208" type="curve" smooth="yes"/>
      <point x="333" y="176"/>
      <point x="319" y="145"/>
      <point x="299" y="119" type="curve"/>
      <point x="290" y="130" type="line" smooth="yes"/>
      <point x="254" y="174"/>
      <point x="215" y="213"/>
      <point x="182" y="262" type="curve"/>
      <point x="247" y="294"/>
      <point x="294" y="341"/>
      <point x="294" y="409" type="curve" smooth="yes"/>
      <point x="294" y="481"/>
      <point x="247" y="510"/>
      <point x="188" y="510" type="curve" smooth="yes"/>
      <point x="126" y="510"/>
      <point x="85" y="452"/>
      <point x="85" y="396" type="curve" smooth="yes"/>
      <point x="85" y="355"/>
      <point x="98" y="314"/>
      <point x="119" y="277" type="curve"/>
      <point x="68" y="243"/>
      <point x="21" y="189"/>
      <point x="21" y="128" type="curve" smooth="yes"/>
      <point x="21" y="54"/>
      <point x="86" y="-5"/>
      <point x="160" y="-5" type="curve" smooth="yes"/>
      <point x="209" y="-5"/>
      <point x="257" y="18"/>
      <point x="294" y="50" type="curve" smooth="yes"/>
      <point x="299" y="54" type="line"/>
      <point x="317" y="31"/>
      <point x="344" y="-9"/>
      <point x="359" y="-9" type="curve" smooth="yes"/>
      <point x="369" y="-9"/>
      <point x="376" y="-1"/>
      <point x="376" y="9" type="curve" smooth="yes"/>
      <point x="376" y="13"/>
      <point x="375" y="18"/>
    </contour>
    <contour>
      <point x="223" y="48" type="curve" smooth="yes"/>
      <point x="207" y="39"/>
      <point x="188" y="35"/>
      <point x="169" y="35" type="curve" smooth="yes"/>
      <point x="115" y="35"/>
      <point x="61" y="70"/>
      <point x="61" y="132" type="curve" smooth="yes"/>
      <point x="61" y="180"/>
      <point x="102" y="222"/>
      <point x="143" y="249" type="curve"/>
      <point x="170" y="211"/>
      <point x="206" y="168"/>
      <point x="236" y="133" type="curve" smooth="yes"/>
      <point x="249" y="118"/>
      <point x="256" y="101"/>
      <point x="271" y="87" type="curve"/>
      <point x="256" y="73"/>
      <point x="240" y="57"/>
    </contour>
    <contour>
      <point x="125" y="404" type="curve" smooth="yes"/>
      <point x="125" y="449"/>
      <point x="159" y="473"/>
      <point x="193" y="473" type="curve" smooth="yes"/>
      <point x="224" y="473"/>
      <point x="257" y="451"/>
      <point x="257" y="411" type="curve" smooth="yes"/>
      <point x="257" y="357"/>
      <point x="207" y="310"/>
      <point x="158" y="288" type="curve"/>
      <point x="139" y="323"/>
      <point x="125" y="360"/>
    </contour>
  </outline>
</glyph>
<glyph name="quotesingle" format="1">
  <advance width="96"/>
  <unicode hex="0027"/>
  <outline>
    <contour>
      <point x="48" y="700" type="curve"/>
      <point x="47" y="700" type="line"/>
      <point x="37" y="700"/>
      <point x="30" y="692"/>
      <point x="30" y="682" type="curve" smooth="yes"/>
      <point x="30" y="587" type="line" smooth="yes"/>
      <point x="30" y="579"/>
      <point x="37" y="570"/>
      <point x="47" y="570" type="curve"/>
      <point x="48" y="570" type="line"/>
      <point x="57" y="570"/>
      <point x="66" y="579"/>
      <point x="66" y="587" type="curve" smooth="yes"/>
      <point x="66" y="682" type="line" smooth="yes"/>
      <point x="66" y="692"/>
      <point x="57" y="700"/>
    </contour>
  </outline>
</glyph>
<glyph name="parenleft" format="1">
  <advance width="232"/>
  <unicode hex="0028"/>
  <outline>
    <contour>
      <point x="195" y="-142" type="curve"/>
      <point x="190" y="-141"/>
      <point x="50" y="-87"/>
      <point x="50" y="293" type="curve" smooth="yes"/>
      <point x="50" y="580"/>
      <point x="185" y="685"/>
      <point x="190" y="690" type="curve"/>
      <point x="190" y="690"/>
      <point x="197" y="695"/>
      <point x="204" y="695" type="curve" smooth="yes"/>
      <point x="211" y="695"/>
      <point x="221" y="687"/>
      <point x="221" y="677" type="curve" smooth="yes"/>
      <point x="221" y="668"/>
      <point x="213" y="662"/>
      <point x="213" y="662" type="curve"/>
      <point x="211" y="661"/>
      <point x="86" y="561"/>
      <point x="86" y="293" type="curve" smooth="yes"/>
      <point x="86" y="-57"/>
      <point x="206" y="-108"/>
      <point x="208" y="-109" type="curve"/>
      <point x="208" y="-109"/>
      <point x="220" y="-114"/>
      <point x="220" y="-124" type="curve" smooth="yes"/>
      <point x="220" y="-139"/>
      <point x="207" y="-143"/>
      <point x="202" y="-143" type="curve" smooth="yes"/>
      <point x="198" y="-143"/>
    </contour>
  </outline>
</glyph>
<glyph name="parenright" format="1">
  <advance width="232"/>
  <unicode hex="0029"/>
  <outline>
    <contour>
      <point x="37" y="-142" type="curve"/>
      <point x="37" y="-142"/>
      <point x="34" y="-143"/>
      <point x="30" y="-143" type="curve" smooth="yes"/>
      <point x="25" y="-143"/>
      <point x="11" y="-139"/>
      <point x="11" y="-124" type="curve" smooth="yes"/>
      <point x="11" y="-114"/>
      <point x="24" y="-109"/>
      <point x="24" y="-109" type="curve"/>
      <point x="26" y="-108"/>
      <point x="146" y="-57"/>
      <point x="146" y="293" type="curve" smooth="yes"/>
      <point x="146" y="561"/>
      <point x="21" y="661"/>
      <point x="19" y="662" type="curve"/>
      <point x="19" y="662"/>
      <point x="10" y="668"/>
      <point x="10" y="677" type="curve" smooth="yes"/>
      <point x="10" y="687"/>
      <point x="20" y="695"/>
      <point x="27" y="695" type="curve" smooth="yes"/>
      <point x="35" y="695"/>
      <point x="42" y="690"/>
      <point x="42" y="690" type="curve"/>
      <point x="47" y="685"/>
      <point x="182" y="580"/>
      <point x="182" y="293" type="curve" smooth="yes"/>
      <point x="182" y="-87"/>
      <point x="42" y="-141"/>
    </contour>
  </outline>
</glyph>
<glyph name="asterisk" format="1">
  <advance width="233"/>
  <unicode hex="002A"/>
  <outline>
    <contour>
      <point x="193" y="571" type="curve"/>
      <point x="141" y="600" type="line"/>
      <point x="193" y="630" type="line" smooth="yes"/>
      <point x="199" y="634"/>
      <point x="202" y="639"/>
      <point x="202" y="644" type="curve" smooth="yes"/>
      <point x="202" y="650"/>
      <point x="199" y="654"/>
      <point x="191" y="654" type="curve" smooth="yes"/>
      <point x="188" y="654"/>
      <point x="183" y="653"/>
      <point x="179" y="651" type="curve" smooth="yes"/>
      <point x="128" y="622" type="line"/>
      <point x="128" y="680" type="line" smooth="yes"/>
      <point x="128" y="691"/>
      <point x="123" y="699"/>
      <point x="116" y="699" type="curve" smooth="yes"/>
      <point x="110" y="699"/>
      <point x="104" y="691"/>
      <point x="104" y="680" type="curve" smooth="yes"/>
      <point x="104" y="622" type="line"/>
      <point x="52" y="651" type="line" smooth="yes"/>
      <point x="49" y="653"/>
      <point x="45" y="654"/>
      <point x="41" y="654" type="curve" smooth="yes"/>
      <point x="36" y="654"/>
      <point x="30" y="652"/>
      <point x="30" y="646" type="curve" smooth="yes"/>
      <point x="30" y="640"/>
      <point x="34" y="634"/>
      <point x="40" y="630" type="curve" smooth="yes"/>
      <point x="91" y="600" type="line"/>
      <point x="40" y="571" type="line" smooth="yes"/>
      <point x="34" y="568"/>
      <point x="30" y="561"/>
      <point x="30" y="555" type="curve" smooth="yes"/>
      <point x="30" y="549"/>
      <point x="36" y="547"/>
      <point x="42" y="547" type="curve" smooth="yes"/>
      <point x="46" y="547"/>
      <point x="49" y="548"/>
      <point x="52" y="549" type="curve" smooth="yes"/>
      <point x="104" y="580" type="line"/>
      <point x="104" y="520" type="line" smooth="yes"/>
      <point x="104" y="511"/>
      <point x="110" y="504"/>
      <point x="116" y="504" type="curve" smooth="yes"/>
      <point x="123" y="504"/>
      <point x="128" y="511"/>
      <point x="128" y="520" type="curve" smooth="yes"/>
      <point x="128" y="580" type="line"/>
      <point x="179" y="549" type="line"/>
      <point x="183" y="548"/>
      <point x="187" y="547"/>
      <point x="190" y="547" type="curve" smooth="yes"/>
      <point x="197" y="547"/>
      <point x="202" y="551"/>
      <point x="202" y="557" type="curve" smooth="yes"/>
      <point x="202" y="563"/>
      <point x="199" y="569"/>
    </contour>
  </outline>
</glyph>
<glyph name="plus" format="1">
  <advance width="253"/>
  <unicode hex="002B"/>
  <outline>
    <contour>
      <point x="205" y="305" type="curve"/>
      <point x="149" y="305" type="line"/>
      <point x="149" y="362" type="line" smooth="yes"/>
      <point x="149" y="372"/>
      <point x="140" y="380"/>
      <point x="129" y="380" type="curve" smooth="yes"/>
      <point x="122" y="380" type="line" smooth="yes"/>
      <point x="112" y="380"/>
      <point x="104" y="372"/>
      <point x="104" y="362" type="curve" smooth="yes"/>
      <point x="104" y="305" type="line"/>
      <point x="47" y="305" type="line" smooth="yes"/>
      <point x="37" y="305"/>
      <point x="30" y="296"/>
      <point x="30" y="288" type="curve" smooth="yes"/>
      <point x="30" y="279" type="line" smooth="yes"/>
      <point x="30" y="268"/>
      <point x="37" y="260"/>
      <point x="47" y="260" type="curve" smooth="yes"/>
      <point x="104" y="260" type="line"/>
      <point x="104" y="203" type="line" smooth="yes"/>
      <point x="104" y="193"/>
      <point x="112" y="186"/>
      <point x="122" y="186" type="curve" smooth="yes"/>
      <point x="129" y="186" type="line" smooth="yes"/>
      <point x="140" y="186"/>
      <point x="149" y="193"/>
      <point x="149" y="203" type="curve" smooth="yes"/>
      <point x="149" y="260" type="line"/>
      <point x="205" y="260" type="line" smooth="yes"/>
      <point x="214" y="260"/>
      <point x="223" y="268"/>
      <point x="223" y="279" type="curve" smooth="yes"/>
      <point x="223" y="288" type="line" smooth="yes"/>
      <point x="223" y="296"/>
      <point x="214" y="305"/>
    </contour>
  </outline>
</glyph>
<glyph name="hyphen" format="1">
  <advance width="257"/>
  <unicode hex="002D"/>
  <outline>
    <contour>
      <point x="227" y="278" type="curve" smooth="yes"/>
      <point x="227" y="267"/>
      <point x="219" y="258"/>
      <point x="210" y="258" type="curve"/>
      <point x="49" y="260" type="line"/>
      <point x="38" y="260"/>
      <point x="30" y="267"/>
      <point x="30" y="278" type="curve" smooth="yes"/>
      <point x="30" y="288"/>
      <point x="38" y="295"/>
      <point x="49" y="295" type="curve" smooth="yes"/>
      <point x="210" y="295" type="line" smooth="yes"/>
      <point x="219" y="295"/>
      <point x="227" y="286"/>
    </contour>
  </outline>
</glyph>
<glyph name="period" format="1">
  <advance width="124"/>
  <unicode hex="002E"/>
  <outline>
    <contour>
      <point x="94" y="28" type="curve" smooth="yes"/>
      <point x="94" y="9"/>
      <point x="80" y="-5"/>
      <point x="63" y="-5" type="curve" smooth="yes"/>
      <point x="45" y="-5"/>
      <point x="30" y="9"/>
      <point x="30" y="28" type="curve" smooth="yes"/>
      <point x="30" y="45"/>
      <point x="45" y="59"/>
      <point x="63" y="59" type="curve" smooth="yes"/>
      <point x="80" y="59"/>
      <point x="94" y="45"/>
    </contour>
  </outline>
</glyph>
<glyph name="slash" format="1">
  <advance width="445"/>
  <unicode hex="002F"/>
  <outline>
    <contour>
      <point x="3" y="-7" type="line" smooth="yes"/>
      <point x="1" y="-10"/>
      <point x="1" y="-13"/>
      <point x="1" y="-17" type="curve" smooth="yes"/>
      <point x="1" y="-24"/>
      <point x="5" y="-32"/>
      <point x="11" y="-35" type="curve"/>
      <point x="12" y="-35" type="line"/>
      <point x="15" y="-37"/>
      <point x="18" y="-37"/>
      <point x="21" y="-37" type="curve" smooth="yes"/>
      <point x="28" y="-37"/>
      <point x="35" y="-33"/>
      <point x="39" y="-27" type="curve" smooth="yes"/>
      <point x="442" y="691" type="line" smooth="yes"/>
      <point x="443" y="694"/>
      <point x="444" y="697"/>
      <point x="444" y="700" type="curve" smooth="yes"/>
      <point x="444" y="707"/>
      <point x="441" y="714"/>
      <point x="434" y="718" type="curve"/>
      <point x="433" y="718" type="line"/>
      <point x="430" y="720"/>
      <point x="427" y="720"/>
      <point x="423" y="720" type="curve" smooth="yes"/>
      <point x="417" y="720"/>
      <point x="410" y="717"/>
      <point x="406" y="711" type="curve" smooth="yes"/>
    </contour>
  </outline>
</glyph>
<glyph name="zero" format="1">
  <advance width="349"/>
  <unicode hex="0030"/>
  <outline>
    <contour>
      <point x="174" y="-5" type="curve" smooth="yes"/>
      <point x="87" y="-5"/>
      <point x="40" y="178"/>
      <point x="40" y="351" type="curve" smooth="yes"/>
      <point x="40" y="523"/>
      <point x="87" y="705"/>
      <point x="174" y="705" type="curve" smooth="yes"/>
      <point x="262" y="705"/>
      <point x="309" y="523"/>
      <point x="309" y="351" type="curve" smooth="yes"/>
      <point x="309" y="178"/>
      <point x="262" y="-5"/>
    </contour>
    <contour>
      <point x="174" y="673" type="curve" smooth="yes"/>
      <point x="125" y="673"/>
      <point x="71" y="541"/>
      <point x="71" y="351" type="curve" smooth="yes"/>
      <point x="71" y="160"/>
      <point x="125" y="28"/>
      <point x="174" y="28" type="curve" smooth="yes"/>
      <point x="222" y="28"/>
      <point x="277" y="160"/>
      <point x="277" y="351" type="curve" smooth="yes"/>
      <point x="277" y="541"/>
      <point x="222" y="673"/>
    </contour>
  </outline>
</glyph>
<glyph name="one" format="1">
  <advance width="223"/>
  <unicode hex="0031"/>
  <outline>
    <contour>
      <point x="145" y="701" type="curve"/>
      <point x="144" y="701" type="line"/>
      <point x="137" y="701"/>
      <point x="132" y="695"/>
      <point x="128" y="688" type="curve"/>
      <point x="127" y="687"/>
      <point x="24" y="547"/>
      <point x="24" y="547" type="curve"/>
      <point x="22" y="544"/>
      <point x="20" y="540"/>
      <point x="20" y="536" type="curve" smooth="yes"/>
      <point x="20" y="530"/>
      <point x="23" y="525"/>
      <point x="28" y="522" type="curve"/>
      <point x="29" y="521" type="line"/>
      <point x="32" y="519"/>
      <point x="36" y="518"/>
      <point x="39" y="518" type="curve" smooth="yes"/>
      <point x="45" y="518"/>
      <point x="50" y="520"/>
      <point x="53" y="525" type="curve" smooth="yes"/>
      <point x="128" y="628" type="line"/>
      <point x="128" y="16" type="line" smooth="yes"/>
      <point x="128" y="8"/>
      <point x="135" y="0"/>
      <point x="144" y="0" type="curve"/>
      <point x="145" y="0" type="line"/>
      <point x="155" y="0"/>
      <point x="163" y="8"/>
      <point x="163" y="16" type="curve" smooth="yes"/>
      <point x="163" y="683" type="line" smooth="yes"/>
      <point x="163" y="693"/>
      <point x="155" y="701"/>
    </contour>
  </outline>
</glyph>
<glyph name="two" format="1">
  <advance width="328"/>
  <unicode hex="0032"/>
  <outline>
    <contour>
      <point x="282" y="511" type="curve" smooth="yes"/>
      <point x="284" y="522"/>
      <point x="288" y="540"/>
      <point x="288" y="561" type="curve" smooth="yes"/>
      <point x="288" y="628"/>
      <point x="251" y="702"/>
      <point x="150" y="702" type="curve" smooth="yes"/>
      <point x="105" y="702"/>
      <point x="21" y="675"/>
      <point x="21" y="576" type="curve"/>
      <point x="21" y="574"/>
      <point x="22" y="559"/>
      <point x="39" y="559" type="curve" smooth="yes"/>
      <point x="57" y="559"/>
      <point x="57" y="576"/>
      <point x="57" y="576" type="curve"/>
      <point x="62" y="654"/>
      <point x="121" y="666"/>
      <point x="151" y="666" type="curve" smooth="yes"/>
      <point x="219" y="666"/>
      <point x="252" y="620"/>
      <point x="252" y="560" type="curve" smooth="yes"/>
      <point x="252" y="547"/>
      <point x="250" y="533"/>
      <point x="247" y="519" type="curve" smooth="yes"/>
      <point x="225" y="430"/>
      <point x="188" y="358"/>
      <point x="140" y="266" type="curve" smooth="yes"/>
      <point x="101" y="192"/>
      <point x="23" y="36"/>
      <point x="23" y="26" type="curve" smooth="yes"/>
      <point x="23" y="12"/>
      <point x="28" y="0"/>
      <point x="41" y="0" type="curve" smooth="yes"/>
      <point x="262" y="0" type="line" smooth="yes"/>
      <point x="272" y="0"/>
      <point x="279" y="8"/>
      <point x="279" y="18" type="curve" smooth="yes"/>
      <point x="279" y="25" type="line" smooth="yes"/>
      <point x="279" y="35"/>
      <point x="272" y="43"/>
      <point x="262" y="43" type="curve" smooth="yes"/>
      <point x="72" y="43" type="line"/>
      <point x="165" y="257"/>
      <point x="246" y="358"/>
    </contour>
  </outline>
</glyph>
<glyph name="three" format="1">
  <advance width="324"/>
  <unicode hex="0033"/>
  <outline>
    <contour>
      <point x="293" y="217" type="line"/>
      <point x="293" y="319"/>
      <point x="269" y="386"/>
      <point x="214" y="414" type="curve"/>
      <point x="255" y="443"/>
      <point x="276" y="488"/>
      <point x="276" y="551" type="curve" smooth="yes"/>
      <point x="276" y="637"/>
      <point x="216" y="699"/>
      <point x="144" y="699" type="curve" smooth="yes"/>
      <point x="99" y="699"/>
      <point x="49" y="677"/>
      <point x="28" y="615" type="curve"/>
      <point x="28" y="615"/>
      <point x="27" y="613"/>
      <point x="27" y="610" type="curve" smooth="yes"/>
      <point x="27" y="604"/>
      <point x="30" y="592"/>
      <point x="46" y="592" type="curve" smooth="yes"/>
      <point x="58" y="592"/>
      <point x="63" y="604"/>
      <point x="63" y="604" type="curve"/>
      <point x="79" y="655"/>
      <point x="120" y="663"/>
      <point x="145" y="663" type="curve" smooth="yes"/>
      <point x="194" y="663"/>
      <point x="240" y="617"/>
      <point x="240" y="551" type="curve" smooth="yes"/>
      <point x="240" y="464"/>
      <point x="196" y="433"/>
      <point x="127" y="433" type="curve"/>
      <point x="125" y="433"/>
      <point x="111" y="432"/>
      <point x="111" y="416" type="curve" smooth="yes"/>
      <point x="111" y="397"/>
      <point x="130" y="397"/>
      <point x="129" y="397" type="curve"/>
      <point x="218" y="397"/>
      <point x="255" y="347"/>
      <point x="255" y="217" type="curve" smooth="yes"/>
      <point x="255" y="94"/>
      <point x="216" y="37"/>
      <point x="142" y="37" type="curve" smooth="yes"/>
      <point x="118" y="37"/>
      <point x="60" y="46"/>
      <point x="48" y="126" type="curve"/>
      <point x="48" y="127"/>
      <point x="46" y="140"/>
      <point x="27" y="140" type="curve" smooth="yes"/>
      <point x="10" y="140"/>
      <point x="11" y="124"/>
      <point x="11" y="121" type="curve"/>
      <point x="24" y="31"/>
      <point x="89" y="0"/>
      <point x="142" y="0" type="curve" smooth="yes"/>
      <point x="208" y="0"/>
      <point x="290" y="34"/>
      <point x="293" y="217" type="curve"/>
      <point x="274" y="217" type="line"/>
    </contour>
  </outline>
</glyph>
<glyph name="four" format="1">
  <advance width="327"/>
  <unicode hex="0034"/>
  <outline>
    <contour>
      <point x="279" y="375" type="curve"/>
      <point x="245" y="375" type="line"/>
      <point x="245" y="682" type="line" smooth="yes"/>
      <point x="245" y="692"/>
      <point x="238" y="700"/>
      <point x="229" y="700" type="curve"/>
      <point x="228" y="700" type="line"/>
      <point x="219" y="700"/>
      <point x="213" y="694"/>
      <point x="207" y="684" type="curve"/>
      <point x="207" y="684"/>
      <point x="30" y="378"/>
      <point x="30" y="357" type="curve" smooth="yes"/>
      <point x="30" y="349" type="line" smooth="yes"/>
      <point x="30" y="340"/>
      <point x="38" y="332"/>
      <point x="48" y="332" type="curve" smooth="yes"/>
      <point x="210" y="332" type="line"/>
      <point x="210" y="18" type="line" smooth="yes"/>
      <point x="210" y="8"/>
      <point x="218" y="0"/>
      <point x="228" y="0" type="curve"/>
      <point x="229" y="0" type="line"/>
      <point x="238" y="0"/>
      <point x="245" y="8"/>
      <point x="245" y="18" type="curve" smooth="yes"/>
      <point x="245" y="332" type="line"/>
      <point x="279" y="332" type="line" smooth="yes"/>
      <point x="289" y="332"/>
      <point x="297" y="340"/>
      <point x="297" y="349" type="curve" smooth="yes"/>
      <point x="297" y="357" type="line" smooth="yes"/>
      <point x="297" y="367"/>
      <point x="289" y="375"/>
    </contour>
    <contour>
      <point x="77" y="375" type="line"/>
      <point x="210" y="612" type="line"/>
      <point x="210" y="375" type="line"/>
    </contour>
  </outline>
</glyph>
<glyph name="five" format="1">
  <advance width="346"/>
  <unicode hex="0035"/>
  <outline>
    <contour>
      <point x="166" y="487" type="curve" smooth="yes"/>
      <point x="141" y="487"/>
      <point x="117" y="477"/>
      <point x="95" y="458" type="curve"/>
      <point x="125" y="661" type="line"/>
      <point x="298" y="661" type="line"/>
      <point x="299" y="661"/>
      <point x="316" y="660"/>
      <point x="316" y="682" type="curve" smooth="yes"/>
      <point x="316" y="701"/>
      <point x="299" y="700"/>
      <point x="296" y="700" type="curve" smooth="yes"/>
      <point x="110" y="700" type="line" smooth="yes"/>
      <point x="92" y="700"/>
      <point x="92" y="682"/>
      <point x="92" y="682" type="curve"/>
      <point x="50" y="400" type="line"/>
      <point x="50" y="399"/>
      <point x="50" y="382"/>
      <point x="72" y="382" type="curve" smooth="yes"/>
      <point x="80" y="382"/>
      <point x="84" y="387"/>
      <point x="84" y="387" type="curve"/>
      <point x="106" y="427"/>
      <point x="135" y="449"/>
      <point x="166" y="449" type="curve" smooth="yes"/>
      <point x="228" y="449"/>
      <point x="280" y="355"/>
      <point x="280" y="244" type="curve" smooth="yes"/>
      <point x="280" y="132"/>
      <point x="228" y="37"/>
      <point x="166" y="37" type="curve" smooth="yes"/>
      <point x="54" y="37"/>
      <point x="85" y="148"/>
      <point x="47" y="148" type="curve" smooth="yes"/>
      <point x="32" y="148"/>
      <point x="31" y="134"/>
      <point x="31" y="129" type="curve" smooth="yes"/>
      <point x="31" y="68"/>
      <point x="87" y="1"/>
      <point x="166" y="1" type="curve" smooth="yes"/>
      <point x="250" y="1"/>
      <point x="316" y="108"/>
      <point x="316" y="244" type="curve" smooth="yes"/>
      <point x="316" y="380"/>
      <point x="250" y="487"/>
    </contour>
  </outline>
</glyph>
<glyph name="six" format="1">
  <advance width="354"/>
  <unicode hex="0036"/>
  <outline>
    <contour>
      <point x="179" y="483" type="curve" smooth="yes"/>
      <point x="139" y="483"/>
      <point x="100" y="448"/>
      <point x="78" y="400" type="curve"/>
      <point x="79" y="417"/>
      <point x="79" y="435"/>
      <point x="79" y="442" type="curve" smooth="yes"/>
      <point x="79" y="555"/>
      <point x="113" y="669"/>
      <point x="187" y="669" type="curve" smooth="yes"/>
      <point x="205" y="669"/>
      <point x="255" y="668"/>
      <point x="277" y="568" type="curve"/>
      <point x="277" y="568"/>
      <point x="280" y="556"/>
      <point x="294" y="556" type="curve" smooth="yes"/>
      <point x="311" y="556"/>
      <point x="313" y="567"/>
      <point x="313" y="572" type="curve"/>
      <point x="313" y="574"/>
      <point x="313" y="575"/>
      <point x="313" y="575" type="curve"/>
      <point x="290" y="684"/>
      <point x="231" y="705"/>
      <point x="185" y="705" type="curve" smooth="yes"/>
      <point x="57" y="705"/>
      <point x="40" y="530"/>
      <point x="40" y="289" type="curve" smooth="yes"/>
      <point x="40" y="124"/>
      <point x="88" y="-3"/>
      <point x="179" y="-3" type="curve" smooth="yes"/>
      <point x="254" y="-3"/>
      <point x="314" y="104"/>
      <point x="314" y="240" type="curve" smooth="yes"/>
      <point x="314" y="376"/>
      <point x="254" y="483"/>
    </contour>
    <contour>
      <point x="179" y="33" type="curve" smooth="yes"/>
      <point x="131" y="33"/>
      <point x="79" y="116"/>
      <point x="79" y="240" type="curve" smooth="yes"/>
      <point x="79" y="363"/>
      <point x="131" y="445"/>
      <point x="179" y="445" type="curve" smooth="yes"/>
      <point x="227" y="445"/>
      <point x="277" y="363"/>
      <point x="277" y="240" type="curve" smooth="yes"/>
      <point x="277" y="116"/>
      <point x="227" y="33"/>
    </contour>
  </outline>
</glyph>
<glyph name="seven" format="1">
  <advance width="291"/>
  <unicode hex="0037"/>
  <outline>
    <contour>
      <point x="281" y="675" type="curve"/>
      <point x="281" y="683" type="line" smooth="yes"/>
      <point x="281" y="692"/>
      <point x="273" y="700"/>
      <point x="264" y="700" type="curve" smooth="yes"/>
      <point x="28" y="700" type="line" smooth="yes"/>
      <point x="18" y="700"/>
      <point x="10" y="692"/>
      <point x="10" y="683" type="curve" smooth="yes"/>
      <point x="10" y="675" type="line" smooth="yes"/>
      <point x="10" y="665"/>
      <point x="18" y="657"/>
      <point x="28" y="657" type="curve" smooth="yes"/>
      <point x="236" y="657" type="line"/>
      <point x="154" y="465"/>
      <point x="84" y="177"/>
      <point x="84" y="16" type="curve"/>
      <point x="84" y="16"/>
      <point x="84" y="1"/>
      <point x="102" y="1" type="curve" smooth="yes"/>
      <point x="120" y="1"/>
      <point x="119" y="16"/>
      <point x="119" y="16" type="curve"/>
      <point x="119" y="179"/>
      <point x="196" y="477"/>
      <point x="278" y="666" type="curve" smooth="yes"/>
      <point x="280" y="669"/>
      <point x="281" y="672"/>
    </contour>
  </outline>
</glyph>
<glyph name="eight" format="1">
  <advance width="360"/>
  <unicode hex="0038"/>
  <outline>
    <contour>
      <point x="238" y="463" type="curve"/>
      <point x="271" y="486"/>
      <point x="293" y="527"/>
      <point x="293" y="575" type="curve" smooth="yes"/>
      <point x="293" y="645"/>
      <point x="243" y="704"/>
      <point x="180" y="704" type="curve" smooth="yes"/>
      <point x="117" y="704"/>
      <point x="66" y="645"/>
      <point x="66" y="575" type="curve" smooth="yes"/>
      <point x="66" y="527"/>
      <point x="89" y="486"/>
      <point x="122" y="463" type="curve"/>
      <point x="67" y="427"/>
      <point x="30" y="342"/>
      <point x="30" y="239" type="curve" smooth="yes"/>
      <point x="30" y="103"/>
      <point x="96" y="-4"/>
      <point x="180" y="-4" type="curve" smooth="yes"/>
      <point x="264" y="-4"/>
      <point x="330" y="103"/>
      <point x="330" y="239" type="curve" smooth="yes"/>
      <point x="330" y="342"/>
      <point x="291" y="427"/>
    </contour>
    <contour>
      <point x="103" y="575" type="curve" smooth="yes"/>
      <point x="103" y="625"/>
      <point x="138" y="667"/>
      <point x="180" y="667" type="curve" smooth="yes"/>
      <point x="222" y="667"/>
      <point x="257" y="625"/>
      <point x="257" y="575" type="curve" smooth="yes"/>
      <point x="257" y="523"/>
      <point x="222" y="482"/>
      <point x="180" y="482" type="curve" smooth="yes"/>
      <point x="138" y="482"/>
      <point x="103" y="523"/>
    </contour>
    <contour>
      <point x="180" y="32" type="curve" smooth="yes"/>
      <point x="118" y="32"/>
      <point x="66" y="127"/>
      <point x="66" y="239" type="curve" smooth="yes"/>
      <point x="66" y="350"/>
      <point x="118" y="444"/>
      <point x="180" y="444" type="curve" smooth="yes"/>
      <point x="241" y="444"/>
      <point x="292" y="350"/>
      <point x="292" y="239" type="curve" smooth="yes"/>
      <point x="292" y="127"/>
      <point x="241" y="32"/>
    </contour>
  </outline>
</glyph>
<glyph name="nine" format="1">
  <advance width="357"/>
  <unicode hex="0039"/>
  <outline>
    <contour>
      <point x="312" y="503" type="curve"/>
      <point x="301" y="618"/>
      <point x="246" y="705"/>
      <point x="177" y="705" type="curve" smooth="yes"/>
      <point x="101" y="705"/>
      <point x="40" y="598"/>
      <point x="40" y="462" type="curve" smooth="yes"/>
      <point x="40" y="326"/>
      <point x="101" y="219"/>
      <point x="177" y="219" type="curve" smooth="yes"/>
      <point x="218" y="219"/>
      <point x="253" y="250"/>
      <point x="279" y="298" type="curve"/>
      <point x="279" y="286"/>
      <point x="278" y="276"/>
      <point x="278" y="268" type="curve" smooth="yes"/>
      <point x="278" y="260"/>
      <point x="279" y="256"/>
      <point x="279" y="250" type="curve" smooth="yes"/>
      <point x="279" y="112"/>
      <point x="246" y="33"/>
      <point x="182" y="33" type="curve" smooth="yes"/>
      <point x="125" y="33"/>
      <point x="84" y="83"/>
      <point x="84" y="154" type="curve"/>
      <point x="84" y="154"/>
      <point x="84" y="155"/>
      <point x="84" y="157" type="curve"/>
      <point x="84" y="163"/>
      <point x="82" y="174"/>
      <point x="66" y="174" type="curve" smooth="yes"/>
      <point x="47" y="174"/>
      <point x="48" y="154"/>
      <point x="48" y="154" type="curve"/>
      <point x="48" y="65"/>
      <point x="101" y="-3"/>
      <point x="182" y="-3" type="curve" smooth="yes"/>
      <point x="267" y="-3"/>
      <point x="315" y="84"/>
      <point x="315" y="244" type="curve" smooth="yes"/>
      <point x="315" y="249"/>
      <point x="315" y="254"/>
      <point x="315" y="259" type="curve" smooth="yes"/>
      <point x="315" y="283"/>
      <point x="317" y="364"/>
      <point x="317" y="408" type="curve" smooth="yes"/>
      <point x="317" y="454"/>
      <point x="316" y="489"/>
    </contour>
    <contour>
      <point x="177" y="256" type="curve" smooth="yes"/>
      <point x="123" y="256"/>
      <point x="77" y="350"/>
      <point x="77" y="462" type="curve" smooth="yes"/>
      <point x="77" y="574"/>
      <point x="123" y="668"/>
      <point x="177" y="668" type="curve" smooth="yes"/>
      <point x="231" y="668"/>
      <point x="278" y="574"/>
      <point x="278" y="462" type="curve" smooth="yes"/>
      <point x="278" y="350"/>
      <point x="231" y="256"/>
    </contour>
  </outline>
</glyph>
<glyph name="colon" format="1">
  <advance width="126"/>
  <unicode hex="003A"/>
  <outline>
    <contour>
      <point x="64" y="59" type="curve" smooth="yes"/>
      <point x="48" y="59"/>
      <point x="33" y="44"/>
      <point x="33" y="27" type="curve" smooth="yes"/>
      <point x="33" y="9"/>
      <point x="48" y="-5"/>
      <point x="64" y="-5" type="curve" smooth="yes"/>
      <point x="81" y="-5"/>
      <point x="96" y="9"/>
      <point x="96" y="27" type="curve" smooth="yes"/>
      <point x="96" y="44"/>
      <point x="81" y="59"/>
    </contour>
    <contour>
      <point x="94" y="434" type="curve" smooth="yes"/>
      <point x="94" y="415"/>
      <point x="80" y="401"/>
      <point x="63" y="401" type="curve" smooth="yes"/>
      <point x="45" y="401"/>
      <point x="30" y="415"/>
      <point x="30" y="434" type="curve" smooth="yes"/>
      <point x="30" y="451"/>
      <point x="45" y="465"/>
      <point x="63" y="465" type="curve" smooth="yes"/>
      <point x="80" y="465"/>
      <point x="94" y="451"/>
    </contour>
  </outline>
</glyph>
<glyph name="semicolon" format="1">
  <advance width="129"/>
  <unicode hex="003B"/>
  <outline>
    <contour>
      <point x="94" y="434" type="curve" smooth="yes"/>
      <point x="94" y="415"/>
      <point x="80" y="401"/>
      <point x="63" y="401" type="curve" smooth="yes"/>
      <point x="45" y="401"/>
      <point x="30" y="415"/>
      <point x="30" y="434" type="curve" smooth="yes"/>
      <point x="30" y="451"/>
      <point x="45" y="465"/>
      <point x="63" y="465" type="curve" smooth="yes"/>
      <point x="80" y="465"/>
      <point x="94" y="451"/>
    </contour>
    <contour>
      <point x="98" y="27" type="curve" smooth="yes"/>
      <point x="98" y="11"/>
      <point x="103" y="-40"/>
      <point x="47" y="-71" type="curve"/>
      <point x="46" y="-72"/>
      <point x="71" y="-37"/>
      <point x="71" y="-21" type="curve"/>
      <point x="64" y="7"/>
      <point x="33" y="-6"/>
      <point x="33" y="27" type="curve" smooth="yes"/>
      <point x="33" y="44"/>
      <point x="47" y="59"/>
      <point x="66" y="59" type="curve" smooth="yes"/>
      <point x="83" y="59"/>
      <point x="98" y="43"/>
    </contour>
  </outline>
</glyph>
<glyph name="less" format="1">
  <advance width="332"/>
  <unicode hex="003C"/>
  <outline>
    <contour>
      <point x="292" y="87" type="curve"/>
      <point x="65" y="226" type="line"/>
      <point x="292" y="365" type="line"/>
      <point x="299" y="368"/>
      <point x="301" y="374"/>
      <point x="301" y="380" type="curve" smooth="yes"/>
      <point x="301" y="383"/>
      <point x="301" y="385"/>
      <point x="300" y="388" type="curve"/>
      <point x="298" y="389" type="line"/>
      <point x="296" y="394"/>
      <point x="291" y="397"/>
      <point x="285" y="397" type="curve" smooth="yes"/>
      <point x="282" y="397"/>
      <point x="278" y="396"/>
      <point x="274" y="394" type="curve" smooth="yes"/>
      <point x="32" y="246" type="line"/>
      <point x="32" y="246"/>
      <point x="20" y="239"/>
      <point x="20" y="224" type="curve" smooth="yes"/>
      <point x="20" y="211"/>
      <point x="32" y="205"/>
      <point x="32" y="205" type="curve"/>
      <point x="274" y="55" type="line"/>
      <point x="277" y="54"/>
      <point x="280" y="54"/>
      <point x="282" y="54" type="curve"/>
      <point x="289" y="54"/>
      <point x="296" y="56"/>
      <point x="298" y="63" type="curve"/>
      <point x="300" y="63" type="line"/>
      <point x="301" y="65"/>
      <point x="301" y="68"/>
      <point x="301" y="71" type="curve" smooth="yes"/>
      <point x="301" y="77"/>
      <point x="299" y="83"/>
    </contour>
  </outline>
</glyph>
<glyph name="equal" format="1">
  <advance width="258"/>
  <unicode hex="003D"/>
  <outline>
    <contour>
      <point x="210" y="361" type="curve"/>
      <point x="47" y="362" type="line"/>
      <point x="38" y="362"/>
      <point x="30" y="354"/>
      <point x="30" y="344" type="curve" smooth="yes"/>
      <point x="30" y="334"/>
      <point x="38" y="326"/>
      <point x="47" y="326" type="curve" smooth="yes"/>
      <point x="210" y="326" type="line"/>
      <point x="211" y="326"/>
      <point x="212" y="326"/>
      <point x="213" y="326" type="curve"/>
      <point x="221" y="326"/>
      <point x="228" y="334"/>
      <point x="228" y="344" type="curve" smooth="yes"/>
      <point x="228" y="352"/>
      <point x="220" y="361"/>
    </contour>
    <contour>
      <point x="210" y="254" type="curve"/>
      <point x="47" y="254" type="line" smooth="yes"/>
      <point x="38" y="254"/>
      <point x="30" y="247"/>
      <point x="30" y="237" type="curve"/>
      <point x="30" y="236" type="line"/>
      <point x="30" y="226"/>
      <point x="38" y="218"/>
      <point x="47" y="218" type="curve" smooth="yes"/>
      <point x="210" y="218" type="line" smooth="yes"/>
      <point x="220" y="218"/>
      <point x="228" y="226"/>
      <point x="228" y="236" type="curve"/>
      <point x="228" y="237" type="line"/>
      <point x="228" y="247"/>
      <point x="220" y="254"/>
    </contour>
  </outline>
</glyph>
<glyph name="greater" format="1">
  <advance width="342"/>
  <unicode hex="003E"/>
  <outline>
    <contour>
      <point x="40" y="87" type="line" smooth="yes"/>
      <point x="33" y="83"/>
      <point x="30" y="77"/>
      <point x="30" y="71" type="curve" smooth="yes"/>
      <point x="30" y="68"/>
      <point x="31" y="65"/>
      <point x="32" y="63" type="curve"/>
      <point x="34" y="63" type="line"/>
      <point x="36" y="56"/>
      <point x="42" y="54"/>
      <point x="49" y="54" type="curve" smooth="yes"/>
      <point x="52" y="54"/>
      <point x="55" y="54"/>
      <point x="58" y="55" type="curve"/>
      <point x="300" y="205" type="line"/>
      <point x="300" y="205"/>
      <point x="312" y="211"/>
      <point x="312" y="224" type="curve" smooth="yes"/>
      <point x="312" y="239"/>
      <point x="300" y="246"/>
      <point x="300" y="246" type="curve"/>
      <point x="58" y="394" type="line" smooth="yes"/>
      <point x="54" y="396"/>
      <point x="50" y="397"/>
      <point x="46" y="397" type="curve" smooth="yes"/>
      <point x="41" y="397"/>
      <point x="36" y="394"/>
      <point x="34" y="389" type="curve"/>
      <point x="32" y="388" type="line"/>
      <point x="31" y="385"/>
      <point x="30" y="383"/>
      <point x="30" y="380" type="curve" smooth="yes"/>
      <point x="30" y="374"/>
      <point x="33" y="368"/>
      <point x="40" y="365" type="curve"/>
      <point x="267" y="226" type="line"/>
    </contour>
  </outline>
</glyph>
<glyph name="question" format="1">
  <advance width="412"/>
  <unicode hex="003F"/>
  <outline>
    <contour>
      <point x="219" y="708" type="curve" smooth="yes"/>
      <point x="208" y="710"/>
      <point x="198" y="710"/>
      <point x="187" y="710" type="curve" smooth="yes"/>
      <point x="87" y="710"/>
      <point x="21" y="643"/>
      <point x="21" y="559" type="curve" smooth="yes"/>
      <point x="21" y="520"/>
      <point x="41" y="463"/>
      <point x="87" y="463" type="curve" smooth="yes"/>
      <point x="99" y="463"/>
      <point x="105" y="473"/>
      <point x="105" y="483" type="curve" smooth="yes"/>
      <point x="105" y="490"/>
      <point x="102" y="497"/>
      <point x="95" y="500" type="curve" smooth="yes"/>
      <point x="73" y="509"/>
      <point x="63" y="532"/>
      <point x="63" y="558" type="curve" smooth="yes"/>
      <point x="63" y="610"/>
      <point x="104" y="675"/>
      <point x="182" y="675" type="curve" smooth="yes"/>
      <point x="258" y="675"/>
      <point x="327" y="629"/>
      <point x="330" y="543" type="curve"/>
      <point x="330" y="496"/>
      <point x="319" y="473"/>
      <point x="214" y="380" type="curve" smooth="yes"/>
      <point x="155" y="327"/>
      <point x="150" y="283"/>
      <point x="150" y="216" type="curve" smooth="yes"/>
      <point x="150" y="206"/>
      <point x="151" y="196"/>
      <point x="151" y="185" type="curve" smooth="yes"/>
      <point x="151" y="172"/>
      <point x="150" y="158"/>
      <point x="150" y="143" type="curve"/>
      <point x="150" y="143"/>
      <point x="152" y="125"/>
      <point x="172" y="125" type="curve" smooth="yes"/>
      <point x="188" y="125"/>
      <point x="189" y="146"/>
      <point x="189" y="146" type="curve"/>
      <point x="189" y="177"/>
      <point x="188" y="202"/>
      <point x="188" y="224" type="curve" smooth="yes"/>
      <point x="188" y="276"/>
      <point x="194" y="312"/>
      <point x="242" y="353" type="curve" smooth="yes"/>
      <point x="290" y="395"/>
      <point x="371" y="433"/>
      <point x="371" y="553" type="curve" smooth="yes"/>
      <point x="371" y="632"/>
      <point x="302" y="696"/>
    </contour>
    <contour>
      <point x="170" y="60" type="curve" smooth="yes"/>
      <point x="152" y="60"/>
      <point x="137" y="45"/>
      <point x="137" y="28" type="curve" smooth="yes"/>
      <point x="137" y="9"/>
      <point x="152" y="-4"/>
      <point x="170" y="-4" type="curve" smooth="yes"/>
      <point x="187" y="-4"/>
      <point x="202" y="9"/>
      <point x="202" y="28" type="curve" smooth="yes"/>
      <point x="202" y="45"/>
      <point x="187" y="60"/>
    </contour>
  </outline>
</glyph>
<glyph name="at" format="1">
  <advance width="608"/>
  <unicode hex="0040"/>
  <outline>
    <contour>
      <point x="554" y="142" type="curve"/>
      <point x="484" y="48"/>
      <point x="408" y="31"/>
      <point x="333" y="31" type="curve" smooth="yes"/>
      <point x="319" y="31"/>
      <point x="306" y="31"/>
      <point x="293" y="32" type="curve" smooth="yes"/>
      <point x="188" y="39"/>
      <point x="77" y="130"/>
      <point x="77" y="283" type="curve" smooth="yes"/>
      <point x="77" y="393"/>
      <point x="152" y="511"/>
      <point x="293" y="511" type="curve" smooth="yes"/>
      <point x="412" y="511"/>
      <point x="525" y="427"/>
      <point x="525" y="269" type="curve" smooth="yes"/>
      <point x="525" y="191"/>
      <point x="480" y="141"/>
      <point x="443" y="141" type="curve" smooth="yes"/>
      <point x="413" y="141"/>
      <point x="404" y="170"/>
      <point x="404" y="215" type="curve" smooth="yes"/>
      <point x="404" y="273"/>
      <point x="407" y="385"/>
      <point x="416" y="417" type="curve"/>
      <point x="416" y="419"/>
      <point x="416" y="421"/>
      <point x="416" y="423" type="curve"/>
      <point x="416" y="437"/>
      <point x="408" y="443"/>
      <point x="400" y="443" type="curve" smooth="yes"/>
      <point x="385" y="443"/>
      <point x="381" y="422"/>
      <point x="382" y="423" type="curve"/>
      <point x="354" y="442"/>
      <point x="323" y="454"/>
      <point x="291" y="454" type="curve" smooth="yes"/>
      <point x="201" y="454"/>
      <point x="136" y="375"/>
      <point x="136" y="279" type="curve" smooth="yes"/>
      <point x="136" y="184"/>
      <point x="200" y="105"/>
      <point x="290" y="104" type="curve"/>
      <point x="291" y="104" type="line"/>
      <point x="321" y="104"/>
      <point x="353" y="116"/>
      <point x="380" y="133" type="curve"/>
      <point x="402" y="114"/>
      <point x="419" y="104"/>
      <point x="442" y="104" type="curve" smooth="yes"/>
      <point x="500" y="104"/>
      <point x="563" y="167"/>
      <point x="563" y="270" type="curve" smooth="yes"/>
      <point x="563" y="451"/>
      <point x="430" y="549"/>
      <point x="293" y="549" type="curve" smooth="yes"/>
      <point x="133" y="549"/>
      <point x="40" y="414"/>
      <point x="40" y="283" type="curve" smooth="yes"/>
      <point x="40" y="103"/>
      <point x="169" y="-6"/>
      <point x="335" y="-6" type="curve" smooth="yes"/>
      <point x="416" y="-6"/>
      <point x="504" y="13"/>
      <point x="584" y="119" type="curve"/>
      <point x="584" y="119"/>
      <point x="587" y="125"/>
      <point x="587" y="131" type="curve" smooth="yes"/>
      <point x="587" y="140"/>
      <point x="577" y="150"/>
      <point x="568" y="150" type="curve" smooth="yes"/>
      <point x="560" y="150"/>
    </contour>
    <contour>
      <point x="369" y="171" type="curve"/>
      <point x="347" y="151"/>
      <point x="319" y="142"/>
      <point x="290" y="142" type="curve" smooth="yes"/>
      <point x="216" y="142"/>
      <point x="174" y="207"/>
      <point x="174" y="280" type="curve" smooth="yes"/>
      <point x="174" y="358"/>
      <point x="224" y="416"/>
      <point x="293" y="416" type="curve" smooth="yes"/>
      <point x="320" y="416"/>
      <point x="353" y="400"/>
      <point x="374" y="382" type="curve"/>
      <point x="374" y="341"/>
      <point x="369" y="268"/>
      <point x="369" y="213" type="curve" smooth="yes"/>
      <point x="369" y="188"/>
    </contour>
  </outline>
</glyph>
<glyph name="A" format="1">
  <advance width="446"/>
  <unicode hex="0041"/>
  <outline>
    <contour>
      <point x="366" y="685" type="line"/>
      <point x="366" y="695"/>
      <point x="358" y="700"/>
      <point x="352" y="700" type="curve"/>
      <point x="351" y="700" type="line"/>
      <point x="349" y="700"/>
      <point x="349" y="700"/>
      <point x="348" y="700" type="curve"/>
      <point x="253" y="700" type="line" smooth="yes"/>
      <point x="247" y="700"/>
      <point x="240" y="696"/>
      <point x="238" y="691" type="curve"/>
      <point x="109" y="130" type="line"/>
      <point x="107" y="127"/>
      <point x="107" y="126"/>
      <point x="106" y="124" type="curve" smooth="yes"/>
      <point x="99" y="89"/>
      <point x="82" y="26"/>
      <point x="39" y="26" type="curve" smooth="yes"/>
      <point x="12" y="26"/>
      <point x="3" y="46"/>
      <point x="3" y="70" type="curve" smooth="yes"/>
      <point x="3" y="89"/>
      <point x="9" y="116"/>
      <point x="28" y="116" type="curve" smooth="yes"/>
      <point x="33" y="116"/>
      <point x="39" y="112"/>
      <point x="39" y="107" type="curve" smooth="yes"/>
      <point x="39" y="98"/>
      <point x="22" y="96"/>
      <point x="22" y="83" type="curve" smooth="yes"/>
      <point x="22" y="75"/>
      <point x="29" y="66"/>
      <point x="38" y="66" type="curve" smooth="yes"/>
      <point x="51" y="66"/>
      <point x="74" y="89"/>
      <point x="74" y="108" type="curve" smooth="yes"/>
      <point x="74" y="128"/>
      <point x="55" y="150"/>
      <point x="35" y="150" type="curve" smooth="yes"/>
      <point x="-7" y="150"/>
      <point x="-29" y="109"/>
      <point x="-29" y="73" type="curve" smooth="yes"/>
      <point x="-29" y="30"/>
      <point x="0" y="-7"/>
      <point x="40" y="-7" type="curve" smooth="yes"/>
      <point x="100" y="-7"/>
      <point x="127" y="65"/>
      <point x="138" y="115" type="curve"/>
      <point x="138" y="116"/>
      <point x="138" y="116"/>
      <point x="138" y="117" type="curve"/>
      <point x="181" y="306" type="line"/>
      <point x="335" y="306" type="line"/>
      <point x="335" y="17" type="line" smooth="yes"/>
      <point x="335" y="9"/>
      <point x="342" y="1"/>
      <point x="351" y="1" type="curve"/>
      <point x="352" y="1" type="line"/>
      <point x="359" y="1"/>
      <point x="366" y="9"/>
      <point x="366" y="17" type="curve" smooth="yes"/>
      <point x="366" y="682" type="line"/>
      <point x="366" y="684"/>
      <point x="366" y="684"/>
      <point x="366" y="684" type="curve"/>
    </contour>
    <contour>
      <point x="188" y="338" type="line"/>
      <point x="266" y="669" type="line"/>
      <point x="335" y="669" type="line"/>
      <point x="335" y="338" type="line"/>
    </contour>
  </outline>
</glyph>
<glyph name="B" format="1">
  <advance width="391"/>
  <unicode hex="0042"/>
  <outline>
    <contour>
      <point x="219" y="445" type="curve"/>
      <point x="219" y="446" type="line"/>
      <point x="248" y="474"/>
      <point x="267" y="513"/>
      <point x="267" y="555" type="curve" smooth="yes"/>
      <point x="267" y="639"/>
      <point x="199" y="707"/>
      <point x="117" y="707" type="curve" smooth="yes"/>
      <point x="104" y="707"/>
      <point x="92" y="705"/>
      <point x="82" y="702" type="curve"/>
      <point x="80" y="702" type="line"/>
      <point x="80" y="6" type="line"/>
      <point x="83" y="6" type="line"/>
      <point x="102" y="0"/>
      <point x="121" y="-2"/>
      <point x="142" y="-2" type="curve" smooth="yes"/>
      <point x="268" y="-2"/>
      <point x="371" y="101"/>
      <point x="371" y="229" type="curve" smooth="yes"/>
      <point x="371" y="328"/>
      <point x="308" y="413"/>
    </contour>
    <contour>
      <point x="234" y="555" type="curve" smooth="yes"/>
      <point x="234" y="515"/>
      <point x="215" y="482"/>
      <point x="184" y="460" type="curve"/>
      <point x="112" y="460" type="line"/>
      <point x="112" y="674" type="line"/>
      <point x="178" y="674"/>
      <point x="234" y="625"/>
    </contour>
    <contour>
      <point x="142" y="30" type="curve" smooth="yes"/>
      <point x="131" y="30"/>
      <point x="121" y="30"/>
      <point x="112" y="33" type="curve"/>
      <point x="112" y="425" type="line"/>
      <point x="121" y="426"/>
      <point x="131" y="427"/>
      <point x="142" y="427" type="curve" smooth="yes"/>
      <point x="250" y="427"/>
      <point x="338" y="338"/>
      <point x="338" y="229" type="curve" smooth="yes"/>
      <point x="338" y="119"/>
      <point x="250" y="30"/>
    </contour>
  </outline>
</glyph>
<glyph name="C" format="1">
  <advance width="303"/>
  <unicode hex="0043"/>
  <outline>
    <contour>
      <point x="175" y="-6" type="curve" smooth="yes"/>
      <point x="88" y="-6"/>
      <point x="40" y="178"/>
      <point x="40" y="350" type="curve" smooth="yes"/>
      <point x="40" y="522"/>
      <point x="88" y="704"/>
      <point x="175" y="704" type="curve" smooth="yes"/>
      <point x="213" y="704"/>
      <point x="245" y="675"/>
      <point x="270" y="608" type="curve"/>
      <point x="270" y="606"/>
      <point x="270" y="587"/>
      <point x="256" y="587" type="curve" smooth="yes"/>
      <point x="246" y="587"/>
      <point x="240" y="595"/>
      <point x="240" y="595" type="curve"/>
      <point x="221" y="648"/>
      <point x="198" y="673"/>
      <point x="175" y="673" type="curve" smooth="yes"/>
      <point x="126" y="673"/>
      <point x="73" y="540"/>
      <point x="73" y="350" type="curve" smooth="yes"/>
      <point x="73" y="160"/>
      <point x="126" y="27"/>
      <point x="175" y="27" type="curve" smooth="yes"/>
      <point x="203" y="27"/>
      <point x="232" y="66"/>
      <point x="251" y="138" type="curve"/>
      <point x="251" y="138"/>
      <point x="255" y="151"/>
      <point x="267" y="151" type="curve" smooth="yes"/>
      <point x="280" y="151"/>
      <point x="283" y="143"/>
      <point x="283" y="137" type="curve" smooth="yes"/>
      <point x="283" y="134"/>
      <point x="282" y="131"/>
      <point x="282" y="131" type="curve"/>
      <point x="258" y="40"/>
      <point x="221" y="-6"/>
    </contour>
  </outline>
</glyph>
<glyph name="D" format="1">
  <advance width="389"/>
  <unicode hex="0044"/>
  <outline>
    <contour>
      <point x="120" y="709" type="curve" smooth="yes"/>
      <point x="98" y="709"/>
      <point x="79" y="706"/>
      <point x="60" y="697" type="curve"/>
      <point x="60" y="16" type="line"/>
      <point x="60" y="5" type="line"/>
      <point x="79" y="-3"/>
      <point x="98" y="-8"/>
      <point x="120" y="-8" type="curve" smooth="yes"/>
      <point x="246" y="-8"/>
      <point x="349" y="153"/>
      <point x="349" y="351" type="curve" smooth="yes"/>
      <point x="349" y="548"/>
      <point x="246" y="709"/>
    </contour>
    <contour>
      <point x="120" y="25" type="curve" smooth="yes"/>
      <point x="109" y="25"/>
      <point x="100" y="26"/>
      <point x="91" y="28" type="curve"/>
      <point x="91" y="674" type="line"/>
      <point x="100" y="677"/>
      <point x="109" y="678"/>
      <point x="120" y="678" type="curve" smooth="yes"/>
      <point x="228" y="678"/>
      <point x="316" y="532"/>
      <point x="316" y="351" type="curve" smooth="yes"/>
      <point x="316" y="171"/>
      <point x="228" y="25"/>
    </contour>
  </outline>
</glyph>
<glyph name="E" format="1">
  <advance width="323"/>
  <unicode hex="0045"/>
  <outline>
    <contour>
      <point x="298" y="669" type="line" smooth="yes"/>
      <point x="307" y="669"/>
      <point x="313" y="675"/>
      <point x="313" y="684" type="curve"/>
      <point x="313" y="685" type="line"/>
      <point x="313" y="693"/>
      <point x="307" y="699"/>
      <point x="298" y="699" type="curve"/>
      <point x="76" y="700" type="line"/>
      <point x="67" y="700"/>
      <point x="60" y="693"/>
      <point x="60" y="685" type="curve" smooth="yes"/>
      <point x="60" y="681"/>
      <point x="61" y="17"/>
      <point x="61" y="17" type="curve"/>
      <point x="63" y="17" type="line"/>
      <point x="62" y="7"/>
      <point x="69" y="0"/>
      <point x="77" y="0" type="curve" smooth="yes"/>
      <point x="297" y="0" type="line" smooth="yes"/>
      <point x="306" y="0"/>
      <point x="313" y="7"/>
      <point x="313" y="16" type="curve" smooth="yes"/>
      <point x="313" y="24"/>
      <point x="306" y="32"/>
      <point x="297" y="32" type="curve" smooth="yes"/>
      <point x="93" y="32" type="line"/>
      <point x="93" y="431" type="line"/>
      <point x="267" y="431" type="line" smooth="yes"/>
      <point x="274" y="431"/>
      <point x="282" y="438"/>
      <point x="282" y="446" type="curve"/>
      <point x="282" y="448" type="line"/>
      <point x="282" y="455"/>
      <point x="274" y="462"/>
      <point x="267" y="462" type="curve" smooth="yes"/>
      <point x="93" y="462" type="line"/>
      <point x="93" y="669" type="line"/>
    </contour>
  </outline>
</glyph>
<glyph name="F" format="1">
  <advance width="301"/>
  <unicode hex="0046"/>
  <outline>
    <contour>
      <point x="276" y="699" type="curve"/>
      <point x="75" y="699" type="line" smooth="yes"/>
      <point x="67" y="699"/>
      <point x="60" y="693"/>
      <point x="60" y="685" type="curve"/>
      <point x="60" y="684" type="line"/>
      <point x="60" y="682"/>
      <point x="61" y="119"/>
      <point x="61" y="11" type="curve" smooth="yes"/>
      <point x="61" y="-1"/>
      <point x="66" y="-7"/>
      <point x="77" y="-7" type="curve" smooth="yes"/>
      <point x="92" y="-7"/>
      <point x="92" y="10"/>
      <point x="92" y="11" type="curve"/>
      <point x="92" y="425" type="line"/>
      <point x="247" y="425" type="line" smooth="yes"/>
      <point x="256" y="425"/>
      <point x="263" y="431"/>
      <point x="263" y="439" type="curve"/>
      <point x="263" y="440" type="line"/>
      <point x="263" y="449"/>
      <point x="256" y="455"/>
      <point x="247" y="455" type="curve" smooth="yes"/>
      <point x="92" y="455" type="line"/>
      <point x="92" y="668" type="line"/>
      <point x="276" y="668" type="line" smooth="yes"/>
      <point x="285" y="668"/>
      <point x="291" y="675"/>
      <point x="291" y="684" type="curve" smooth="yes"/>
      <point x="291" y="692"/>
      <point x="285" y="699"/>
    </contour>
  </outline>
</glyph>
<glyph name="G" format="1">
  <advance width="326"/>
  <unicode hex="0047"/>
  <outline>
    <contour>
      <point x="306" y="262" type="curve"/>
      <point x="306" y="270"/>
      <point x="299" y="277"/>
      <point x="290" y="277" type="curve" smooth="yes"/>
      <point x="180" y="277" type="line" smooth="yes"/>
      <point x="171" y="277"/>
      <point x="165" y="270"/>
      <point x="165" y="262" type="curve"/>
      <point x="165" y="261" type="line"/>
      <point x="165" y="252"/>
      <point x="171" y="246"/>
      <point x="180" y="246" type="curve" smooth="yes"/>
      <point x="273" y="246" type="line"/>
      <point x="269" y="110"/>
      <point x="253" y="31"/>
      <point x="174" y="31" type="curve" smooth="yes"/>
      <point x="105" y="31"/>
      <point x="72" y="161"/>
      <point x="72" y="350" type="curve" smooth="yes"/>
      <point x="72" y="539"/>
      <point x="104" y="673"/>
      <point x="175" y="673" type="curve" smooth="yes"/>
      <point x="230" y="673"/>
      <point x="259" y="629"/>
      <point x="260" y="573" type="curve"/>
      <point x="260" y="573"/>
      <point x="261" y="557"/>
      <point x="277" y="557" type="curve" smooth="yes"/>
      <point x="290" y="557"/>
      <point x="291" y="576"/>
      <point x="291" y="575" type="curve"/>
      <point x="291" y="629"/>
      <point x="256" y="704"/>
      <point x="175" y="704" type="curve" smooth="yes"/>
      <point x="69" y="704"/>
      <point x="40" y="521"/>
      <point x="40" y="350" type="curve" smooth="yes"/>
      <point x="40" y="179"/>
      <point x="71" y="-3"/>
      <point x="176" y="-3" type="curve" smooth="yes"/>
      <point x="267" y="-3"/>
      <point x="301" y="92"/>
    </contour>
  </outline>
</glyph>
<glyph name="H" format="1">
  <advance width="372"/>
  <unicode hex="0048"/>
  <outline>
    <contour>
      <point x="312" y="684" type="line" smooth="yes"/>
      <point x="312" y="692"/>
      <point x="305" y="699"/>
      <point x="297" y="699" type="curve" smooth="yes"/>
      <point x="288" y="699"/>
      <point x="281" y="692"/>
      <point x="281" y="684" type="curve" smooth="yes"/>
      <point x="281" y="458" type="line"/>
      <point x="91" y="458" type="line"/>
      <point x="90" y="684" type="line"/>
      <point x="90" y="692"/>
      <point x="84" y="699"/>
      <point x="75" y="699" type="curve"/>
      <point x="74" y="699" type="line"/>
      <point x="66" y="699"/>
      <point x="60" y="692"/>
      <point x="60" y="684" type="curve" smooth="yes"/>
      <point x="60" y="16" type="line" smooth="yes"/>
      <point x="60" y="8"/>
      <point x="67" y="2"/>
      <point x="75" y="2" type="curve" smooth="yes"/>
      <point x="84" y="2"/>
      <point x="91" y="8"/>
      <point x="91" y="16" type="curve" smooth="yes"/>
      <point x="91" y="427" type="line"/>
      <point x="281" y="427" type="line"/>
      <point x="281" y="16" type="line" smooth="yes"/>
      <point x="281" y="8"/>
      <point x="288" y="2"/>
      <point x="297" y="2" type="curve"/>
      <point x="298" y="2" type="line"/>
      <point x="306" y="2"/>
      <point x="312" y="8"/>
      <point x="312" y="16" type="curve" smooth="yes"/>
    </contour>
  </outline>
</glyph>
<glyph name="I" format="1">
  <advance width="155"/>
  <unicode hex="0049"/>
  <outline>
    <contour>
      <point x="94" y="16" type="curve"/>
      <point x="94" y="686" type="line" smooth="yes"/>
      <point x="94" y="694"/>
      <point x="87" y="700"/>
      <point x="78" y="700" type="curve" smooth="yes"/>
      <point x="70" y="700"/>
      <point x="62" y="694"/>
      <point x="62" y="686" type="curve" smooth="yes"/>
      <point x="62" y="16" type="line" smooth="yes"/>
      <point x="62" y="7"/>
      <point x="70" y="1"/>
      <point x="78" y="1" type="curve" smooth="yes"/>
      <point x="87" y="1"/>
      <point x="94" y="7"/>
    </contour>
  </outline>
</glyph>
<glyph name="J" format="1">
  <advance width="279"/>
  <unicode hex="004A"/>
  <outline>
    <contour>
      <point x="229" y="258" type="curve"/>
      <point x="229" y="685" type="line" smooth="yes"/>
      <point x="229" y="693"/>
      <point x="222" y="700"/>
      <point x="213" y="700" type="curve" smooth="yes"/>
      <point x="205" y="700"/>
      <point x="198" y="693"/>
      <point x="198" y="685" type="curve" smooth="yes"/>
      <point x="198" y="258" type="line" smooth="yes"/>
      <point x="198" y="126"/>
      <point x="193" y="26"/>
      <point x="117" y="26" type="curve" smooth="yes"/>
      <point x="69" y="26"/>
      <point x="43" y="91"/>
      <point x="43" y="167" type="curve" smooth="yes"/>
      <point x="43" y="172"/>
      <point x="42" y="184"/>
      <point x="25" y="184" type="curve" smooth="yes"/>
      <point x="5" y="184"/>
      <point x="11" y="153"/>
      <point x="11" y="153" type="curve"/>
      <point x="11" y="65"/>
      <point x="57" y="-7"/>
      <point x="117" y="-7" type="curve" smooth="yes"/>
      <point x="222" y="-7"/>
      <point x="229" y="107"/>
    </contour>
  </outline>
</glyph>
<glyph name="K" format="1">
  <advance width="368"/>
  <unicode hex="004B"/>
  <outline>
    <contour>
      <point x="168" y="436" type="line"/>
      <point x="168" y="436"/>
      <point x="168" y="436"/>
      <point x="168" y="436" type="curve"/>
      <point x="227" y="582" type="line"/>
      <point x="228" y="583"/>
      <point x="228" y="584"/>
      <point x="229" y="586" type="curve" smooth="yes"/>
      <point x="243" y="617"/>
      <point x="261" y="675"/>
      <point x="299" y="675" type="curve" smooth="yes"/>
      <point x="324" y="675"/>
      <point x="335" y="657"/>
      <point x="335" y="635" type="curve" smooth="yes"/>
      <point x="335" y="610"/>
      <point x="326" y="582"/>
      <point x="305" y="582" type="curve" smooth="yes"/>
      <point x="300" y="582"/>
      <point x="297" y="586"/>
      <point x="297" y="591" type="curve" smooth="yes"/>
      <point x="297" y="603"/>
      <point x="316" y="603"/>
      <point x="316" y="616" type="curve" smooth="yes"/>
      <point x="316" y="624"/>
      <point x="308" y="634"/>
      <point x="298" y="634" type="curve" smooth="yes"/>
      <point x="276" y="634"/>
      <point x="264" y="603"/>
      <point x="264" y="590" type="curve" smooth="yes"/>
      <point x="264" y="572"/>
      <point x="279" y="550"/>
      <point x="309" y="550" type="curve" smooth="yes"/>
      <point x="350" y="550"/>
      <point x="367" y="603"/>
      <point x="367" y="636" type="curve" smooth="yes"/>
      <point x="367" y="679"/>
      <point x="336" y="706"/>
      <point x="297" y="706" type="curve" smooth="yes"/>
      <point x="261" y="706"/>
      <point x="239" y="687"/>
      <point x="222" y="651" type="curve" smooth="yes"/>
      <point x="221" y="648" type="line" smooth="yes"/>
      <point x="219" y="642"/>
      <point x="216" y="635"/>
      <point x="214" y="628" type="curve"/>
      <point x="144" y="460" type="line"/>
      <point x="92" y="460" type="line"/>
      <point x="92" y="685" type="line" smooth="yes"/>
      <point x="92" y="693"/>
      <point x="84" y="700"/>
      <point x="76" y="700" type="curve" smooth="yes"/>
      <point x="67" y="700"/>
      <point x="60" y="693"/>
      <point x="60" y="685" type="curve" smooth="yes"/>
      <point x="60" y="16" type="line" smooth="yes"/>
      <point x="60" y="7"/>
      <point x="67" y="1"/>
      <point x="76" y="1" type="curve"/>
      <point x="77" y="1" type="line"/>
      <point x="85" y="1"/>
      <point x="92" y="7"/>
      <point x="92" y="16" type="curve" smooth="yes"/>
      <point x="92" y="428" type="line"/>
      <point x="137" y="428" type="line"/>
      <point x="137" y="426"/>
      <point x="137" y="425"/>
      <point x="139" y="423" type="curve"/>
      <point x="306" y="16" type="line"/>
      <point x="308" y="8"/>
      <point x="312" y="0"/>
      <point x="322" y="0" type="curve" smooth="yes"/>
      <point x="334" y="0"/>
      <point x="339" y="6"/>
      <point x="339" y="12" type="curve" smooth="yes"/>
      <point x="339" y="15"/>
      <point x="338" y="18"/>
      <point x="337" y="22" type="curve" smooth="yes"/>
    </contour>
  </outline>
</glyph>
<glyph name="L" format="1">
  <advance width="275"/>
  <unicode hex="004C"/>
  <outline>
    <contour>
      <point x="261" y="31" type="curve"/>
      <point x="91" y="31" type="line"/>
      <point x="91" y="689" type="line" smooth="yes"/>
      <point x="91" y="697"/>
      <point x="84" y="705"/>
      <point x="76" y="705" type="curve" smooth="yes"/>
      <point x="67" y="705"/>
      <point x="60" y="697"/>
      <point x="60" y="689" type="curve"/>
      <point x="60" y="689"/>
      <point x="60" y="19"/>
      <point x="60" y="15" type="curve" smooth="yes"/>
      <point x="60" y="7"/>
      <point x="67" y="0"/>
      <point x="76" y="0" type="curve" smooth="yes"/>
      <point x="261" y="0" type="line" smooth="yes"/>
      <point x="269" y="0"/>
      <point x="275" y="7"/>
      <point x="275" y="15" type="curve" smooth="yes"/>
      <point x="275" y="24"/>
      <point x="269" y="31"/>
    </contour>
  </outline>
</glyph>
<glyph name="M" format="1">
  <advance width="427"/>
  <unicode hex="004D"/>
  <outline>
    <contour>
      <point x="366" y="689" type="line"/>
      <point x="366" y="697"/>
      <point x="358" y="705"/>
      <point x="351" y="705" type="curve"/>
      <point x="350" y="705" type="line"/>
      <point x="341" y="705"/>
      <point x="334" y="700"/>
      <point x="332" y="694" type="curve" smooth="yes"/>
      <point x="213" y="304" type="line"/>
      <point x="91" y="691" type="line"/>
      <point x="90" y="698"/>
      <point x="84" y="705"/>
      <point x="75" y="705" type="curve" smooth="yes"/>
      <point x="67" y="705"/>
      <point x="60" y="697"/>
      <point x="60" y="689" type="curve" smooth="yes"/>
      <point x="60" y="14" type="line" smooth="yes"/>
      <point x="60" y="7"/>
      <point x="67" y="-1"/>
      <point x="75" y="-1" type="curve"/>
      <point x="76" y="-1" type="line"/>
      <point x="85" y="-1"/>
      <point x="91" y="7"/>
      <point x="91" y="15" type="curve" smooth="yes"/>
      <point x="91" y="596" type="line"/>
      <point x="193" y="265" type="line" smooth="yes"/>
      <point x="195" y="257"/>
      <point x="203" y="251"/>
      <point x="212" y="251" type="curve"/>
      <point x="214" y="251" type="line"/>
      <point x="223" y="251"/>
      <point x="231" y="257"/>
      <point x="234" y="265" type="curve" smooth="yes"/>
      <point x="334" y="597" type="line"/>
      <point x="335" y="14" type="line"/>
      <point x="335" y="7"/>
      <point x="341" y="-1"/>
      <point x="350" y="-1" type="curve"/>
      <point x="351" y="-1" type="line"/>
      <point x="359" y="-1"/>
      <point x="367" y="7"/>
      <point x="367" y="15" type="curve"/>
    </contour>
  </outline>
</glyph>
<glyph name="N" format="1">
  <advance width="376"/>
  <unicode hex="004E"/>
  <outline>
    <contour>
      <point x="300" y="700" type="curve"/>
      <point x="299" y="700" type="line"/>
      <point x="291" y="700"/>
      <point x="285" y="692"/>
      <point x="285" y="684" type="curve" smooth="yes"/>
      <point x="285" y="101" type="line"/>
      <point x="100" y="685" type="line"/>
      <point x="96" y="692"/>
      <point x="88" y="700"/>
      <point x="79" y="700" type="curve"/>
      <point x="77" y="700" type="line"/>
      <point x="68" y="700"/>
      <point x="60" y="691"/>
      <point x="60" y="683" type="curve" smooth="yes"/>
      <point x="60" y="14" type="line" smooth="yes"/>
      <point x="60" y="5"/>
      <point x="67" y="-1"/>
      <point x="75" y="-1" type="curve"/>
      <point x="77" y="-1" type="line"/>
      <point x="85" y="-1"/>
      <point x="91" y="5"/>
      <point x="91" y="14" type="curve" smooth="yes"/>
      <point x="91" y="604" type="line"/>
      <point x="283" y="10" type="line" smooth="yes"/>
      <point x="286" y="1"/>
      <point x="294" y="-1"/>
      <point x="299" y="-1" type="curve"/>
      <point x="300" y="-1" type="line"/>
      <point x="309" y="-1"/>
      <point x="316" y="5"/>
      <point x="316" y="14" type="curve" smooth="yes"/>
      <point x="316" y="684" type="line" smooth="yes"/>
      <point x="316" y="692"/>
      <point x="309" y="700"/>
    </contour>
  </outline>
</glyph>
<glyph name="P" format="1">
  <advance width="265"/>
  <unicode hex="0050"/>
  <outline>
    <contour>
      <point x="95" y="702" type="curve" smooth="yes"/>
      <point x="89" y="702"/>
      <point x="82" y="701"/>
      <point x="76" y="701" type="curve"/>
      <point x="75" y="701" type="line"/>
      <point x="71" y="701"/>
      <point x="63" y="699"/>
      <point x="60" y="697" type="curve"/>
      <point x="60" y="690" type="line"/>
      <point x="60" y="689"/>
      <point x="60" y="687"/>
      <point x="60" y="685" type="curve"/>
      <point x="60" y="14" type="line" smooth="yes"/>
      <point x="60" y="6"/>
      <point x="68" y="-2"/>
      <point x="76" y="-2" type="curve" smooth="yes"/>
      <point x="84" y="-2"/>
      <point x="92" y="6"/>
      <point x="92" y="14" type="curve" smooth="yes"/>
      <point x="92" y="405" type="line"/>
      <point x="93" y="405"/>
      <point x="94" y="404"/>
      <point x="95" y="404" type="curve"/>
      <point x="178" y="404"/>
      <point x="245" y="471"/>
      <point x="245" y="554" type="curve" smooth="yes"/>
      <point x="245" y="635"/>
      <point x="178" y="702"/>
    </contour>
    <contour>
      <point x="95" y="436" type="curve"/>
      <point x="94" y="436"/>
      <point x="91" y="436"/>
      <point x="90" y="436" type="curve"/>
      <point x="90" y="670" type="line"/>
      <point x="158" y="670"/>
      <point x="213" y="622"/>
      <point x="213" y="554" type="curve" smooth="yes"/>
      <point x="213" y="488"/>
      <point x="161" y="436"/>
    </contour>
  </outline>
</glyph>
<glyph name="Q" format="1">
  <advance width="349"/>
  <unicode hex="0051"/>
  <outline>
    <contour>
      <point x="367" y="-20" type="curve" smooth="yes"/>
      <point x="360" y="10"/>
      <point x="330" y="41"/>
      <point x="298" y="41" type="curve" smooth="yes"/>
      <point x="266" y="41"/>
      <point x="249" y="17"/>
      <point x="249" y="0" type="curve" smooth="yes"/>
      <point x="249" y="-16"/>
      <point x="265" y="-46"/>
      <point x="290" y="-46" type="curve" smooth="yes"/>
      <point x="299" y="-46"/>
      <point x="305" y="-37"/>
      <point x="305" y="-29" type="curve" smooth="yes"/>
      <point x="305" y="-13"/>
      <point x="282" y="-12"/>
      <point x="282" y="-4" type="curve" smooth="yes"/>
      <point x="282" y="2"/>
      <point x="291" y="7"/>
      <point x="300" y="7" type="curve" smooth="yes"/>
      <point x="323" y="7"/>
      <point x="335" y="-19"/>
      <point x="335" y="-36" type="curve" smooth="yes"/>
      <point x="335" y="-62"/>
      <point x="317" y="-79"/>
      <point x="294" y="-79" type="curve" smooth="yes"/>
      <point x="246" y="-79"/>
      <point x="215" y="-34"/>
      <point x="207" y="5" type="curve"/>
      <point x="274" y="44"/>
      <point x="310" y="201"/>
      <point x="310" y="351" type="curve" smooth="yes"/>
      <point x="310" y="523"/>
      <point x="263" y="705"/>
      <point x="175" y="705" type="curve" smooth="yes"/>
      <point x="88" y="705"/>
      <point x="40" y="523"/>
      <point x="40" y="351" type="curve" smooth="yes"/>
      <point x="40" y="178"/>
      <point x="88" y="-6"/>
      <point x="176" y="-4" type="curve"/>
      <point x="188" y="-55"/>
      <point x="228" y="-112"/>
      <point x="287" y="-112" type="curve" smooth="yes"/>
      <point x="331" y="-112"/>
      <point x="368" y="-80"/>
      <point x="368" y="-36" type="curve" smooth="yes"/>
      <point x="368" y="-31"/>
      <point x="368" y="-26"/>
    </contour>
    <contour>
      <point x="72" y="351" type="curve" smooth="yes"/>
      <point x="72" y="541"/>
      <point x="126" y="674"/>
      <point x="175" y="674" type="curve" smooth="yes"/>
      <point x="223" y="674"/>
      <point x="278" y="541"/>
      <point x="278" y="351" type="curve" smooth="yes"/>
      <point x="278" y="161"/>
      <point x="223" y="28"/>
      <point x="175" y="28" type="curve" smooth="yes"/>
      <point x="126" y="28"/>
      <point x="72" y="161"/>
    </contour>
  </outline>
</glyph>
<glyph name="R" format="1">
  <advance width="394"/>
  <unicode hex="0052"/>
  <outline>
    <contour>
      <point x="349" y="141" type="curve" smooth="yes"/>
      <point x="325" y="137"/>
      <point x="314" y="120"/>
      <point x="314" y="103" type="curve" smooth="yes"/>
      <point x="314" y="90"/>
      <point x="326" y="59"/>
      <point x="347" y="59" type="curve" smooth="yes"/>
      <point x="356" y="59"/>
      <point x="363" y="67"/>
      <point x="363" y="76" type="curve" smooth="yes"/>
      <point x="363" y="84"/>
      <point x="348" y="91"/>
      <point x="348" y="99" type="curve" smooth="yes"/>
      <point x="348" y="104"/>
      <point x="352" y="108"/>
      <point x="357" y="108" type="curve" smooth="yes"/>
      <point x="374" y="108"/>
      <point x="382" y="83"/>
      <point x="382" y="64" type="curve" smooth="yes"/>
      <point x="382" y="39"/>
      <point x="372" y="17"/>
      <point x="346" y="17" type="curve" smooth="yes"/>
      <point x="320" y="17"/>
      <point x="308" y="36"/>
      <point x="297" y="60" type="curve"/>
      <point x="154" y="406" type="line"/>
      <point x="207" y="429"/>
      <point x="245" y="485"/>
      <point x="245" y="548" type="curve" smooth="yes"/>
      <point x="245" y="634"/>
      <point x="178" y="703"/>
      <point x="95" y="703" type="curve" smooth="yes"/>
      <point x="83" y="703"/>
      <point x="72" y="700"/>
      <point x="60" y="698" type="curve"/>
      <point x="60" y="685" type="line"/>
      <point x="60" y="683"/>
      <point x="60" y="682"/>
      <point x="60" y="681" type="curve"/>
      <point x="60" y="12" type="line" smooth="yes"/>
      <point x="60" y="4"/>
      <point x="67" y="-4"/>
      <point x="75" y="-4" type="curve" smooth="yes"/>
      <point x="84" y="-4"/>
      <point x="91" y="4"/>
      <point x="91" y="12" type="curve" smooth="yes"/>
      <point x="91" y="394" type="line"/>
      <point x="101" y="394"/>
      <point x="112" y="396"/>
      <point x="124" y="397" type="curve"/>
      <point x="243" y="108" type="line" smooth="yes"/>
      <point x="265" y="54"/>
      <point x="280" y="-15"/>
      <point x="345" y="-15" type="curve" smooth="yes"/>
      <point x="382" y="-15"/>
      <point x="413" y="15"/>
      <point x="413" y="59" type="curve" smooth="yes"/>
      <point x="413" y="93"/>
      <point x="397" y="142"/>
      <point x="359" y="142" type="curve" smooth="yes"/>
      <point x="356" y="142"/>
      <point x="352" y="142"/>
    </contour>
    <contour>
      <point x="91" y="427" type="curve"/>
      <point x="91" y="669" type="line"/>
      <point x="158" y="669"/>
      <point x="212" y="619"/>
      <point x="212" y="548" type="curve" smooth="yes"/>
      <point x="212" y="478"/>
      <point x="158" y="427"/>
    </contour>
  </outline>
</glyph>
<glyph name="S" format="1">
  <advance width="389"/>
  <unicode hex="0053"/>
  <outline>
    <contour>
      <point x="93" y="553" type="curve" smooth="yes"/>
      <point x="93" y="619"/>
      <point x="142" y="673"/>
      <point x="201" y="673" type="curve" smooth="yes"/>
      <point x="224" y="673"/>
      <point x="244" y="665"/>
      <point x="262" y="652" type="curve" smooth="yes"/>
      <point x="264" y="651"/>
      <point x="289" y="630"/>
      <point x="293" y="580" type="curve"/>
      <point x="293" y="579"/>
      <point x="294" y="567"/>
      <point x="311" y="567" type="curve"/>
      <point x="324" y="569"/>
      <point x="324" y="580"/>
      <point x="324" y="581" type="curve"/>
      <point x="321" y="648"/>
      <point x="284" y="676"/>
      <point x="282" y="678" type="curve" smooth="yes"/>
      <point x="259" y="696"/>
      <point x="231" y="705"/>
      <point x="201" y="705" type="curve" smooth="yes"/>
      <point x="123" y="705"/>
      <point x="60" y="638"/>
      <point x="60" y="554" type="curve" smooth="yes"/>
      <point x="60" y="373"/>
      <point x="336" y="403"/>
      <point x="336" y="214" type="curve" smooth="yes"/>
      <point x="336" y="125"/>
      <point x="296" y="29"/>
      <point x="183" y="29" type="curve" smooth="yes"/>
      <point x="126" y="29"/>
      <point x="52" y="83"/>
      <point x="52" y="152" type="curve" smooth="yes"/>
      <point x="52" y="181"/>
      <point x="73" y="208"/>
      <point x="100" y="208" type="curve" smooth="yes"/>
      <point x="120" y="208"/>
      <point x="139" y="194"/>
      <point x="142" y="171" type="curve"/>
      <point x="142" y="155"/>
      <point x="137" y="142"/>
      <point x="127" y="142" type="curve" smooth="yes"/>
      <point x="122" y="142"/>
      <point x="118" y="145"/>
      <point x="118" y="151" type="curve" smooth="yes"/>
      <point x="118" y="154"/>
      <point x="120" y="158"/>
      <point x="120" y="161" type="curve" smooth="yes"/>
      <point x="120" y="170"/>
      <point x="111" y="176"/>
      <point x="102" y="176" type="curve" smooth="yes"/>
      <point x="90" y="176"/>
      <point x="85" y="166"/>
      <point x="85" y="150" type="curve" smooth="yes"/>
      <point x="85" y="125"/>
      <point x="101" y="104"/>
      <point x="124" y="104" type="curve" smooth="yes"/>
      <point x="154" y="104"/>
      <point x="173" y="133"/>
      <point x="173" y="161" type="curve" smooth="yes"/>
      <point x="173" y="210"/>
      <point x="137" y="242"/>
      <point x="100" y="242" type="curve" smooth="yes"/>
      <point x="55" y="242"/>
      <point x="21" y="203"/>
      <point x="21" y="149" type="curve" smooth="yes"/>
      <point x="21" y="69"/>
      <point x="104" y="-4"/>
      <point x="183" y="-4" type="curve" smooth="yes"/>
      <point x="296" y="-4"/>
      <point x="369" y="82"/>
      <point x="369" y="214" type="curve" smooth="yes"/>
      <point x="369" y="424"/>
      <point x="93" y="410"/>
    </contour>
  </outline>
</glyph>
<glyph name="T" format="1">
  <advance width="252"/>
  <unicode hex="0054"/>
  <outline>
    <contour>
      <point x="237" y="700" type="curve"/>
      <point x="14" y="700" type="line" smooth="yes"/>
      <point x="6" y="700"/>
      <point x="0" y="693"/>
      <point x="0" y="684" type="curve" smooth="yes"/>
      <point x="0" y="676"/>
      <point x="6" y="669"/>
      <point x="14" y="669" type="curve" smooth="yes"/>
      <point x="110" y="669" type="line"/>
      <point x="110" y="20" type="line" smooth="yes"/>
      <point x="110" y="12"/>
      <point x="117" y="5"/>
      <point x="125" y="5" type="curve"/>
      <point x="127" y="5" type="line"/>
      <point x="135" y="5"/>
      <point x="141" y="12"/>
      <point x="141" y="20" type="curve" smooth="yes"/>
      <point x="141" y="669" type="line"/>
      <point x="237" y="669" type="line" smooth="yes"/>
      <point x="245" y="669"/>
      <point x="252" y="675"/>
      <point x="252" y="683" type="curve"/>
      <point x="252" y="684" type="line"/>
      <point x="252" y="693"/>
      <point x="245" y="700"/>
    </contour>
  </outline>
</glyph>
<glyph name="U" format="1">
  <advance width="390"/>
  <unicode hex="0055"/>
  <outline>
    <contour>
      <point x="330" y="218" type="line" smooth="yes"/>
      <point x="330" y="221"/>
      <point x="330" y="225"/>
      <point x="330" y="230" type="curve"/>
      <point x="329" y="691" type="line"/>
      <point x="329" y="699"/>
      <point x="323" y="707"/>
      <point x="314" y="707" type="curve"/>
      <point x="313" y="707" type="line"/>
      <point x="304" y="707"/>
      <point x="298" y="699"/>
      <point x="298" y="691" type="curve"/>
      <point x="297" y="230" type="line"/>
      <point x="297" y="120"/>
      <point x="250" y="28"/>
      <point x="194" y="28" type="curve" smooth="yes"/>
      <point x="145" y="28"/>
      <point x="93" y="114"/>
      <point x="93" y="218" type="curve"/>
      <point x="92" y="691" type="line"/>
      <point x="92" y="699"/>
      <point x="84" y="707"/>
      <point x="76" y="707" type="curve" smooth="yes"/>
      <point x="67" y="707"/>
      <point x="60" y="699"/>
      <point x="60" y="691" type="curve" smooth="yes"/>
      <point x="60" y="217" type="line" smooth="yes"/>
      <point x="60" y="91"/>
      <point x="126" y="-5"/>
      <point x="194" y="-5" type="curve" smooth="yes"/>
      <point x="263" y="-5"/>
      <point x="330" y="91"/>
      <point x="330" y="214" type="curve" smooth="yes"/>
    </contour>
  </outline>
</glyph>
<glyph name="V" format="1">
  <advance width="310"/>
  <unicode hex="0056"/>
  <outline>
    <contour>
      <point x="288" y="701" type="curve"/>
      <point x="287" y="701"/>
      <point x="287" y="701"/>
      <point x="286" y="701" type="curve"/>
      <point x="278" y="701"/>
      <point x="271" y="696"/>
      <point x="270" y="689" type="curve" smooth="yes"/>
      <point x="155" y="96" type="line"/>
      <point x="40" y="689" type="line" smooth="yes"/>
      <point x="39" y="696"/>
      <point x="32" y="701"/>
      <point x="25" y="701" type="curve" smooth="yes"/>
      <point x="17" y="701"/>
      <point x="10" y="694"/>
      <point x="10" y="686" type="curve"/>
      <point x="10" y="685"/>
      <point x="11" y="684"/>
      <point x="11" y="683" type="curve"/>
      <point x="141" y="13" type="line" smooth="yes"/>
      <point x="143" y="4"/>
      <point x="150" y="1"/>
      <point x="158" y="1" type="curve"/>
      <point x="164" y="2"/>
      <point x="170" y="7"/>
      <point x="171" y="13" type="curve" smooth="yes"/>
      <point x="299" y="683" type="line"/>
      <point x="299" y="684"/>
      <point x="300" y="686"/>
      <point x="300" y="687" type="curve"/>
      <point x="300" y="694"/>
      <point x="294" y="700"/>
    </contour>
  </outline>
</glyph>
<glyph name="W" format="1">
  <advance width="509"/>
  <unicode hex="0057"/>
  <outline>
    <contour>
      <point x="498" y="681" type="line"/>
      <point x="498" y="682"/>
      <point x="499" y="684"/>
      <point x="499" y="685" type="curve"/>
      <point x="499" y="693"/>
      <point x="492" y="699"/>
      <point x="483" y="699" type="curve" smooth="yes"/>
      <point x="476" y="699"/>
      <point x="471" y="694"/>
      <point x="469" y="687" type="curve"/>
      <point x="357" y="105" type="line"/>
      <point x="271" y="607" type="line" smooth="yes"/>
      <point x="269" y="616"/>
      <point x="261" y="619"/>
      <point x="253" y="619" type="curve" smooth="yes"/>
      <point x="246" y="619"/>
      <point x="239" y="613"/>
      <point x="238" y="607" type="curve" smooth="yes"/>
      <point x="154" y="105" type="line"/>
      <point x="41" y="687" type="line" smooth="yes"/>
      <point x="40" y="694"/>
      <point x="33" y="699"/>
      <point x="26" y="699" type="curve" smooth="yes"/>
      <point x="16" y="699"/>
      <point x="11" y="692"/>
      <point x="11" y="683" type="curve"/>
      <point x="11" y="683"/>
      <point x="11" y="682"/>
      <point x="11" y="681" type="curve"/>
      <point x="139" y="18" type="line"/>
      <point x="139" y="17"/>
      <point x="139" y="17"/>
      <point x="139" y="15" type="curve"/>
      <point x="140" y="12" type="line" smooth="yes"/>
      <point x="141" y="4"/>
      <point x="148" y="0"/>
      <point x="155" y="0" type="curve" smooth="yes"/>
      <point x="167" y="0"/>
      <point x="172" y="9"/>
      <point x="172" y="19" type="curve"/>
      <point x="255" y="516" type="line"/>
      <point x="337" y="19" type="line"/>
      <point x="337" y="11"/>
      <point x="345" y="0"/>
      <point x="354" y="0" type="curve" smooth="yes"/>
      <point x="361" y="0"/>
      <point x="368" y="4"/>
      <point x="369" y="12" type="curve" smooth="yes"/>
      <point x="370" y="15" type="line"/>
      <point x="370" y="17"/>
      <point x="370" y="17"/>
      <point x="370" y="18" type="curve"/>
    </contour>
  </outline>
</glyph>
<glyph name="X" format="1">
  <advance width="270"/>
  <unicode hex="0058"/>
  <outline>
    <contour>
      <point x="239" y="19" type="curve"/>
      <point x="150" y="371" type="line"/>
      <point x="227" y="678" type="line"/>
      <point x="227" y="680"/>
      <point x="228" y="682"/>
      <point x="228" y="684" type="curve"/>
      <point x="228" y="691"/>
      <point x="224" y="700"/>
      <point x="214" y="700" type="curve" smooth="yes"/>
      <point x="203" y="700"/>
      <point x="199" y="691"/>
      <point x="196" y="684" type="curve"/>
      <point x="135" y="436" type="line"/>
      <point x="72" y="684" type="line"/>
      <point x="69" y="691"/>
      <point x="65" y="700"/>
      <point x="55" y="700" type="curve" smooth="yes"/>
      <point x="46" y="700"/>
      <point x="39" y="692"/>
      <point x="39" y="683" type="curve"/>
      <point x="39" y="682"/>
      <point x="40" y="680"/>
      <point x="40" y="679" type="curve"/>
      <point x="118" y="371" type="line"/>
      <point x="31" y="19" type="line" smooth="yes"/>
      <point x="30" y="17"/>
      <point x="30" y="15"/>
      <point x="30" y="13" type="curve"/>
      <point x="30" y="5"/>
      <point x="35" y="-1"/>
      <point x="44" y="-1" type="curve" smooth="yes"/>
      <point x="56" y="-1"/>
      <point x="60" y="8"/>
      <point x="62" y="15" type="curve" smooth="yes"/>
      <point x="135" y="307" type="line"/>
      <point x="207" y="15" type="line"/>
      <point x="210" y="6"/>
      <point x="214" y="-1"/>
      <point x="227" y="-1" type="curve"/>
      <point x="235" y="1"/>
      <point x="239" y="8"/>
      <point x="239" y="15" type="curve"/>
      <point x="239" y="16"/>
      <point x="239" y="18"/>
    </contour>
  </outline>
</glyph>
<glyph name="Y" format="1">
  <advance width="298"/>
  <unicode hex="0059"/>
  <outline>
    <contour>
      <point x="277" y="703" type="curve"/>
      <point x="275" y="703"/>
      <point x="274" y="704"/>
      <point x="272" y="704" type="curve"/>
      <point x="265" y="704"/>
      <point x="259" y="699"/>
      <point x="258" y="694" type="curve"/>
      <point x="149" y="395" type="line"/>
      <point x="40" y="694" type="line" smooth="yes"/>
      <point x="38" y="699"/>
      <point x="32" y="704"/>
      <point x="26" y="704" type="curve" smooth="yes"/>
      <point x="16" y="704"/>
      <point x="10" y="694"/>
      <point x="10" y="687" type="curve"/>
      <point x="10" y="685"/>
      <point x="11" y="684"/>
      <point x="11" y="683" type="curve"/>
      <point x="11" y="683"/>
      <point x="132" y="354"/>
      <point x="133" y="353" type="curve"/>
      <point x="133" y="352"/>
      <point x="133" y="11"/>
      <point x="133" y="11" type="curve"/>
      <point x="133" y="2"/>
      <point x="141" y="-5"/>
      <point x="149" y="-5" type="curve"/>
      <point x="150" y="-5" type="line"/>
      <point x="158" y="-5"/>
      <point x="165" y="2"/>
      <point x="165" y="11" type="curve"/>
      <point x="165" y="11"/>
      <point x="165" y="352"/>
      <point x="165" y="353" type="curve"/>
      <point x="166" y="354"/>
      <point x="287" y="683"/>
      <point x="287" y="683" type="curve"/>
      <point x="288" y="684"/>
      <point x="288" y="686"/>
      <point x="288" y="688" type="curve"/>
      <point x="288" y="694"/>
      <point x="284" y="701"/>
    </contour>
  </outline>
</glyph>
<glyph name="Z" format="1">
  <advance width="293"/>
  <unicode hex="005A"/>
  <outline>
    <contour>
      <point x="273" y="685" type="curve" smooth="yes"/>
      <point x="273" y="693"/>
      <point x="267" y="700"/>
      <point x="258" y="700" type="curve" smooth="yes"/>
      <point x="36" y="700" type="line" smooth="yes"/>
      <point x="27" y="700"/>
      <point x="20" y="693"/>
      <point x="20" y="685" type="curve" smooth="yes"/>
      <point x="20" y="676"/>
      <point x="27" y="669"/>
      <point x="36" y="669" type="curve" smooth="yes"/>
      <point x="237" y="669" type="line"/>
      <point x="21" y="23" type="line"/>
      <point x="21" y="22"/>
      <point x="21" y="22"/>
      <point x="21" y="22" type="curve"/>
      <point x="21" y="21" type="line"/>
      <point x="20" y="19"/>
      <point x="20" y="18"/>
      <point x="20" y="17" type="curve"/>
      <point x="20" y="16" type="line"/>
      <point x="20" y="7"/>
      <point x="27" y="0"/>
      <point x="36" y="0" type="curve" smooth="yes"/>
      <point x="258" y="0" type="line" smooth="yes"/>
      <point x="267" y="0"/>
      <point x="273" y="7"/>
      <point x="273" y="16" type="curve" smooth="yes"/>
      <point x="273" y="24"/>
      <point x="267" y="32"/>
      <point x="258" y="32" type="curve" smooth="yes"/>
      <point x="58" y="32" type="line"/>
      <point x="273" y="680" type="line"/>
      <point x="273" y="681"/>
      <point x="273" y="682"/>
    </contour>
  </outline>
</glyph>
<glyph name="bracketleft" format="1">
  <advance width="195"/>
  <unicode hex="005B"/>
  <outline>
    <contour>
      <point x="181" y="-102" type="curve"/>
      <point x="90" y="-102" type="line"/>
      <point x="90" y="655" type="line"/>
      <point x="181" y="655" type="line" smooth="yes"/>
      <point x="188" y="655"/>
      <point x="195" y="661"/>
      <point x="195" y="669" type="curve"/>
      <point x="195" y="670" type="line"/>
      <point x="195" y="679"/>
      <point x="188" y="685"/>
      <point x="181" y="685" type="curve" smooth="yes"/>
      <point x="75" y="685" type="line" smooth="yes"/>
      <point x="67" y="685"/>
      <point x="60" y="677"/>
      <point x="60" y="666" type="curve" smooth="yes"/>
      <point x="60" y="-114" type="line" smooth="yes"/>
      <point x="60" y="-123"/>
      <point x="66" y="-131"/>
      <point x="71" y="-132" type="curve" smooth="yes"/>
      <point x="75" y="-133" type="line"/>
      <point x="181" y="-133" type="line" smooth="yes"/>
      <point x="190" y="-133"/>
      <point x="195" y="-126"/>
      <point x="195" y="-118" type="curve"/>
      <point x="195" y="-117" type="line"/>
      <point x="195" y="-108"/>
      <point x="190" y="-102"/>
    </contour>
  </outline>
</glyph>
<glyph name="backslash" format="1">
  <advance width="445"/>
  <unicode hex="005C"/>
  <outline>
    <contour>
      <point x="39" y="711" type="line" smooth="yes"/>
      <point x="35" y="717"/>
      <point x="28" y="720"/>
      <point x="21" y="720" type="curve" smooth="yes"/>
      <point x="18" y="720"/>
      <point x="15" y="720"/>
      <point x="12" y="718" type="curve"/>
      <point x="11" y="718" type="line"/>
      <point x="4" y="714"/>
      <point x="0" y="707"/>
      <point x="0" y="700" type="curve" smooth="yes"/>
      <point x="0" y="697"/>
      <point x="1" y="694"/>
      <point x="3" y="691" type="curve" smooth="yes"/>
      <point x="406" y="-27" type="line" smooth="yes"/>
      <point x="409" y="-33"/>
      <point x="416" y="-37"/>
      <point x="424" y="-37" type="curve" smooth="yes"/>
      <point x="427" y="-37"/>
      <point x="430" y="-37"/>
      <point x="433" y="-35" type="curve"/>
      <point x="434" y="-35" type="line"/>
      <point x="440" y="-32"/>
      <point x="444" y="-24"/>
      <point x="444" y="-17" type="curve" smooth="yes"/>
      <point x="444" y="-13"/>
      <point x="443" y="-10"/>
      <point x="442" y="-7" type="curve" smooth="yes"/>
    </contour>
  </outline>
</glyph>
<glyph name="bracketright" format="1">
  <advance width="195"/>
  <unicode hex="005D"/>
  <outline>
    <contour>
      <point x="14" y="-102" type="line" smooth="yes"/>
      <point x="5" y="-102"/>
      <point x="0" y="-108"/>
      <point x="0" y="-117" type="curve"/>
      <point x="0" y="-118" type="line"/>
      <point x="0" y="-126"/>
      <point x="5" y="-133"/>
      <point x="14" y="-133" type="curve" smooth="yes"/>
      <point x="124" y="-133" type="line"/>
      <point x="124" y="-132" type="line"/>
      <point x="129" y="-131"/>
      <point x="135" y="-123"/>
      <point x="135" y="-114" type="curve" smooth="yes"/>
      <point x="135" y="666" type="line" smooth="yes"/>
      <point x="135" y="677"/>
      <point x="128" y="685"/>
      <point x="120" y="685" type="curve" smooth="yes"/>
      <point x="14" y="685" type="line" smooth="yes"/>
      <point x="7" y="685"/>
      <point x="0" y="679"/>
      <point x="0" y="670" type="curve"/>
      <point x="0" y="669" type="line"/>
      <point x="0" y="661"/>
      <point x="7" y="655"/>
      <point x="14" y="655" type="curve" smooth="yes"/>
      <point x="105" y="655" type="line"/>
      <point x="105" y="-102" type="line"/>
    </contour>
  </outline>
</glyph>
<glyph name="asciicircum" format="1">
  <advance width="302"/>
  <unicode hex="005E"/>
  <outline>
    <contour>
      <point x="280" y="462" type="curve"/>
      <point x="166" y="695" type="line"/>
      <point x="162" y="701"/>
      <point x="156" y="704"/>
      <point x="151" y="704" type="curve" smooth="yes"/>
      <point x="144" y="704"/>
      <point x="139" y="701"/>
      <point x="137" y="695" type="curve"/>
      <point x="22" y="462" type="line" smooth="yes"/>
      <point x="21" y="460"/>
      <point x="20" y="458"/>
      <point x="20" y="456" type="curve"/>
      <point x="20" y="448"/>
      <point x="28" y="440"/>
      <point x="36" y="440" type="curve" smooth="yes"/>
      <point x="42" y="440"/>
      <point x="47" y="443"/>
      <point x="49" y="448" type="curve" smooth="yes"/>
      <point x="151" y="653" type="line"/>
      <point x="253" y="448" type="line" smooth="yes"/>
      <point x="255" y="443"/>
      <point x="260" y="440"/>
      <point x="265" y="440" type="curve" smooth="yes"/>
      <point x="268" y="440"/>
      <point x="270" y="441"/>
      <point x="273" y="442" type="curve"/>
      <point x="274" y="442" type="line"/>
      <point x="279" y="445"/>
      <point x="282" y="449"/>
      <point x="282" y="454" type="curve" smooth="yes"/>
      <point x="282" y="457"/>
      <point x="281" y="460"/>
    </contour>
  </outline>
</glyph>
<glyph name="underscore" format="1">
  <advance width="254"/>
  <unicode hex="005F"/>
  <outline>
    <contour>
      <point x="254" y="-102" type="line"/>
      <point x="254" y="-112"/>
      <point x="245" y="-120"/>
      <point x="235" y="-120" type="curve" smooth="yes"/>
      <point x="18" y="-120" type="line" smooth="yes"/>
      <point x="8" y="-120"/>
      <point x="0" y="-112"/>
      <point x="0" y="-101" type="curve" smooth="yes"/>
      <point x="0" y="-92"/>
      <point x="8" y="-84"/>
      <point x="18" y="-84" type="curve" smooth="yes"/>
      <point x="235" y="-84" type="line" smooth="yes"/>
      <point x="245" y="-84"/>
      <point x="254" y="-92"/>
      <point x="254" y="-101" type="curve"/>
    </contour>
  </outline>
</glyph>
<glyph name="grave" format="1">
  <advance width="168"/>
  <unicode hex="0060"/>
  <outline>
    <contour>
      <point x="130" y="553" type="line"/>
      <point x="128" y="551"/>
      <point x="125" y="550"/>
      <point x="122" y="550" type="curve" smooth="yes"/>
      <point x="117" y="550"/>
      <point x="112" y="554"/>
      <point x="109" y="560" type="curve" smooth="yes"/>
      <point x="34" y="678" type="line" smooth="yes"/>
      <point x="32" y="681"/>
      <point x="31" y="684"/>
      <point x="31" y="687" type="curve" smooth="yes"/>
      <point x="31" y="692"/>
      <point x="33" y="697"/>
      <point x="37" y="700" type="curve"/>
      <point x="39" y="700" type="line"/>
      <point x="41" y="702"/>
      <point x="44" y="702"/>
      <point x="47" y="702" type="curve" smooth="yes"/>
      <point x="52" y="702"/>
      <point x="57" y="699"/>
      <point x="60" y="695" type="curve" smooth="yes"/>
      <point x="135" y="576" type="line" smooth="yes"/>
      <point x="137" y="573"/>
      <point x="137" y="570"/>
      <point x="137" y="567" type="curve" smooth="yes"/>
      <point x="137" y="562"/>
      <point x="135" y="557"/>
      <point x="131" y="553" type="curve"/>
    </contour>
  </outline>
</glyph>
<glyph name="a" format="1">
  <advance width="325"/>
  <unicode hex="0061"/>
  <outline>
    <contour>
      <point x="283" y="11" type="curve"/>
      <point x="271" y="33"/>
      <point x="268" y="65"/>
      <point x="268" y="101" type="curve" smooth="yes"/>
      <point x="268" y="164"/>
      <point x="276" y="236"/>
      <point x="276" y="299" type="curve" smooth="yes"/>
      <point x="276" y="391"/>
      <point x="256" y="462"/>
      <point x="162" y="462" type="curve" smooth="yes"/>
      <point x="128" y="462"/>
      <point x="58" y="437"/>
      <point x="58" y="403" type="curve" smooth="yes"/>
      <point x="58" y="395"/>
      <point x="68" y="387"/>
      <point x="75" y="387" type="curve" smooth="yes"/>
      <point x="82" y="387"/>
      <point x="87" y="393"/>
      <point x="87" y="393" type="curve"/>
      <point x="102" y="415"/>
      <point x="132" y="430"/>
      <point x="166" y="430" type="curve" smooth="yes"/>
      <point x="233" y="430"/>
      <point x="245" y="375"/>
      <point x="245" y="298" type="curve" smooth="yes"/>
      <point x="245" y="291"/>
      <point x="245" y="283"/>
      <point x="245" y="275" type="curve"/>
      <point x="224" y="288"/>
      <point x="196" y="299"/>
      <point x="171" y="299" type="curve" smooth="yes"/>
      <point x="92" y="299"/>
      <point x="31" y="232"/>
      <point x="31" y="149" type="curve" smooth="yes"/>
      <point x="31" y="68"/>
      <point x="92" y="1"/>
      <point x="169" y="0" type="curve"/>
      <point x="170" y="0" type="line"/>
      <point x="197" y="0"/>
      <point x="223" y="8"/>
      <point x="246" y="23" type="curve"/>
      <point x="248" y="11"/>
      <point x="251" y="-11"/>
      <point x="268" y="-11" type="curve" smooth="yes"/>
      <point x="279" y="-11"/>
      <point x="285" y="-1"/>
      <point x="285" y="4" type="curve" smooth="yes"/>
      <point x="285" y="8"/>
    </contour>
    <contour>
      <point x="239" y="57" type="curve"/>
      <point x="218" y="40"/>
      <point x="194" y="31"/>
      <point x="169" y="31" type="curve" smooth="yes"/>
      <point x="108" y="31"/>
      <point x="63" y="87"/>
      <point x="63" y="151" type="curve" smooth="yes"/>
      <point x="63" y="217"/>
      <point x="112" y="268"/>
      <point x="172" y="268" type="curve" smooth="yes"/>
      <point x="195" y="268"/>
      <point x="225" y="252"/>
      <point x="243" y="239" type="curve"/>
      <point x="240" y="204"/>
      <point x="238" y="156"/>
      <point x="238" y="110" type="curve" smooth="yes"/>
      <point x="238" y="80"/>
    </contour>
  </outline>
</glyph>
<glyph name="b" format="1">
  <advance width="280"/>
  <unicode hex="0062"/>
  <outline>
    <contour>
      <point x="94" y="425" type="curve"/>
      <point x="93" y="425"/>
      <point x="92" y="425"/>
      <point x="91" y="425" type="curve"/>
      <point x="91" y="684" type="line" smooth="yes"/>
      <point x="91" y="692"/>
      <point x="84" y="699"/>
      <point x="75" y="699" type="curve"/>
      <point x="74" y="699" type="line"/>
      <point x="67" y="699"/>
      <point x="60" y="692"/>
      <point x="60" y="684" type="curve" smooth="yes"/>
      <point x="60" y="16" type="line" smooth="yes"/>
      <point x="60" y="8"/>
      <point x="67" y="0"/>
      <point x="74" y="0" type="curve"/>
      <point x="75" y="0" type="line"/>
      <point x="76" y="0"/>
      <point x="89" y="0"/>
      <point x="94" y="0" type="curve" smooth="yes"/>
      <point x="180" y="0"/>
      <point x="250" y="95"/>
      <point x="250" y="211" type="curve" smooth="yes"/>
      <point x="250" y="329"/>
      <point x="180" y="425"/>
    </contour>
    <contour>
      <point x="94" y="32" type="curve"/>
      <point x="93" y="32"/>
      <point x="92" y="32"/>
      <point x="91" y="32" type="curve"/>
      <point x="91" y="392" type="line"/>
      <point x="159" y="392"/>
      <point x="218" y="312"/>
      <point x="218" y="211" type="curve" smooth="yes"/>
      <point x="218" y="113"/>
      <point x="162" y="32"/>
    </contour>
  </outline>
</glyph>
<glyph name="c" format="1">
  <advance width="244"/>
  <unicode hex="0063"/>
  <outline>
    <contour>
      <point x="131" y="-3" type="curve" smooth="yes"/>
      <point x="65" y="-3"/>
      <point x="30" y="117"/>
      <point x="30" y="233" type="curve" smooth="yes"/>
      <point x="30" y="347"/>
      <point x="65" y="468"/>
      <point x="131" y="468" type="curve" smooth="yes"/>
      <point x="169" y="468"/>
      <point x="200" y="430"/>
      <point x="218" y="361" type="curve"/>
      <point x="218" y="361"/>
      <point x="218" y="359"/>
      <point x="218" y="357" type="curve"/>
      <point x="218" y="353"/>
      <point x="216" y="344"/>
      <point x="203" y="344" type="curve" smooth="yes"/>
      <point x="192" y="344"/>
      <point x="188" y="352"/>
      <point x="188" y="352" type="curve"/>
      <point x="175" y="404"/>
      <point x="152" y="437"/>
      <point x="131" y="437" type="curve" smooth="yes"/>
      <point x="99" y="437"/>
      <point x="61" y="350"/>
      <point x="61" y="233" type="curve" smooth="yes"/>
      <point x="61" y="115"/>
      <point x="99" y="28"/>
      <point x="131" y="28" type="curve" smooth="yes"/>
      <point x="151" y="28"/>
      <point x="178" y="61"/>
      <point x="193" y="132" type="curve"/>
      <point x="193" y="132"/>
      <point x="197" y="141"/>
      <point x="206" y="141" type="curve" smooth="yes"/>
      <point x="224" y="141"/>
      <point x="224" y="126"/>
      <point x="224" y="126" type="curve"/>
      <point x="207" y="45"/>
      <point x="172" y="-3"/>
    </contour>
  </outline>
</glyph>
<glyph name="d" format="1">
  <advance width="278"/>
  <unicode hex="0064"/>
  <outline>
    <contour>
      <point x="204" y="699" type="curve"/>
      <point x="203" y="699" type="line"/>
      <point x="196" y="699"/>
      <point x="188" y="692"/>
      <point x="188" y="684" type="curve" smooth="yes"/>
      <point x="188" y="425" type="line"/>
      <point x="101" y="425"/>
      <point x="30" y="331"/>
      <point x="30" y="211" type="curve" smooth="yes"/>
      <point x="30" y="95"/>
      <point x="100" y="0"/>
      <point x="185" y="0" type="curve" smooth="yes"/>
      <point x="190" y="0"/>
      <point x="202" y="0"/>
      <point x="203" y="0" type="curve"/>
      <point x="204" y="0" type="line"/>
      <point x="212" y="0"/>
      <point x="218" y="8"/>
      <point x="218" y="16" type="curve" smooth="yes"/>
      <point x="218" y="684" type="line" smooth="yes"/>
      <point x="218" y="692"/>
      <point x="212" y="699"/>
    </contour>
    <contour>
      <point x="62" y="211" type="curve" smooth="yes"/>
      <point x="62" y="311"/>
      <point x="119" y="392"/>
      <point x="188" y="392" type="curve"/>
      <point x="188" y="32" type="line"/>
      <point x="118" y="32"/>
      <point x="62" y="110"/>
    </contour>
  </outline>
</glyph>
<glyph name="e" format="1">
  <advance width="272"/>
  <unicode hex="0065"/>
  <outline>
    <contour>
      <point x="241" y="276" type="line" smooth="yes"/>
      <point x="238" y="396"/>
      <point x="192" y="466"/>
      <point x="138" y="466" type="curve" smooth="yes"/>
      <point x="77" y="466"/>
      <point x="30" y="363"/>
      <point x="30" y="230" type="curve" smooth="yes"/>
      <point x="30" y="93"/>
      <point x="79" y="-3"/>
      <point x="142" y="-3" type="curve" smooth="yes"/>
      <point x="229" y="-3"/>
      <point x="232" y="116"/>
      <point x="232" y="128" type="curve"/>
      <point x="231" y="138"/>
      <point x="223" y="144"/>
      <point x="215" y="144" type="curve" smooth="yes"/>
      <point x="209" y="144"/>
      <point x="203" y="139"/>
      <point x="203" y="131" type="curve"/>
      <point x="203" y="130"/>
      <point x="203" y="129"/>
      <point x="203" y="128" type="curve"/>
      <point x="203" y="115"/>
      <point x="197" y="30"/>
      <point x="138" y="30" type="curve" smooth="yes"/>
      <point x="98" y="30"/>
      <point x="61" y="118"/>
      <point x="61" y="239" type="curve"/>
      <point x="242" y="239" type="line"/>
    </contour>
    <contour>
      <point x="138" y="429" type="curve" smooth="yes"/>
      <point x="170" y="429"/>
      <point x="203" y="374"/>
      <point x="209" y="276" type="curve"/>
      <point x="64" y="276" type="line"/>
      <point x="72" y="368"/>
      <point x="106" y="429"/>
    </contour>
  </outline>
</glyph>
<glyph name="f" format="1">
  <advance width="196"/>
  <unicode hex="0066"/>
  <outline>
    <contour>
      <point x="187" y="704" type="curve" smooth="yes"/>
      <point x="115" y="704"/>
      <point x="85" y="657"/>
      <point x="85" y="548" type="curve" smooth="yes"/>
      <point x="85" y="460" type="line"/>
      <point x="36" y="460" type="line" smooth="yes"/>
      <point x="27" y="460"/>
      <point x="20" y="453"/>
      <point x="20" y="444" type="curve" smooth="yes"/>
      <point x="20" y="436"/>
      <point x="27" y="429"/>
      <point x="36" y="429" type="curve" smooth="yes"/>
      <point x="85" y="429" type="line"/>
      <point x="85" y="13" type="line" smooth="yes"/>
      <point x="85" y="5"/>
      <point x="93" y="-2"/>
      <point x="100" y="-2" type="curve"/>
      <point x="101" y="-2" type="line"/>
      <point x="109" y="-2"/>
      <point x="115" y="5"/>
      <point x="115" y="13" type="curve" smooth="yes"/>
      <point x="115" y="429" type="line"/>
      <point x="166" y="429" type="line" smooth="yes"/>
      <point x="175" y="429"/>
      <point x="181" y="436"/>
      <point x="181" y="444" type="curve" smooth="yes"/>
      <point x="181" y="453"/>
      <point x="175" y="460"/>
      <point x="166" y="460" type="curve" smooth="yes"/>
      <point x="115" y="460" type="line"/>
      <point x="115" y="548" type="line"/>
      <point x="117" y="548" type="line"/>
      <point x="117" y="672"/>
      <point x="159" y="672"/>
      <point x="187" y="672" type="curve" smooth="yes"/>
      <point x="196" y="672"/>
      <point x="216" y="666"/>
      <point x="225" y="652" type="curve"/>
      <point x="225" y="652"/>
      <point x="231" y="643"/>
      <point x="239" y="643" type="curve" smooth="yes"/>
      <point x="251" y="643"/>
      <point x="255" y="657"/>
      <point x="255" y="660" type="curve" smooth="yes"/>
      <point x="255" y="692"/>
      <point x="197" y="704"/>
    </contour>
  </outline>
</glyph>
<glyph name="g" format="1">
  <advance width="288"/>
  <unicode hex="0067"/>
  <outline>
    <contour>
      <point x="237" y="-27" type="curve"/>
      <point x="236" y="436" type="line"/>
      <point x="236" y="445"/>
      <point x="230" y="452"/>
      <point x="222" y="452" type="curve" smooth="yes"/>
      <point x="213" y="452"/>
      <point x="206" y="445"/>
      <point x="206" y="436" type="curve" smooth="yes"/>
      <point x="206" y="402" type="line"/>
      <point x="189" y="442"/>
      <point x="165" y="469"/>
      <point x="133" y="469" type="curve" smooth="yes"/>
      <point x="66" y="469"/>
      <point x="30" y="348"/>
      <point x="30" y="234" type="curve" smooth="yes"/>
      <point x="30" y="119"/>
      <point x="66" y="-3"/>
      <point x="133" y="-3" type="curve" smooth="yes"/>
      <point x="164" y="-3"/>
      <point x="189" y="24"/>
      <point x="206" y="64" type="curve"/>
      <point x="206" y="-27" type="line" smooth="yes"/>
      <point x="206" y="-152"/>
      <point x="197" y="-217"/>
      <point x="148" y="-217" type="curve" smooth="yes"/>
      <point x="125" y="-217"/>
      <point x="123" y="-217"/>
      <point x="92" y="-205" type="curve"/>
      <point x="92" y="-205"/>
      <point x="91" y="-205"/>
      <point x="89" y="-205" type="curve"/>
      <point x="85" y="-205"/>
      <point x="71" y="-208"/>
      <point x="71" y="-222" type="curve" smooth="yes"/>
      <point x="71" y="-244"/>
      <point x="132" y="-249"/>
      <point x="139" y="-249" type="curve" smooth="yes"/>
      <point x="229" y="-249"/>
      <point x="237" y="-160"/>
      <point x="237" y="-57" type="curve" smooth="yes"/>
      <point x="237" y="-47"/>
      <point x="237" y="-37"/>
    </contour>
    <contour>
      <point x="133" y="30" type="curve" smooth="yes"/>
      <point x="100" y="30"/>
      <point x="61" y="117"/>
      <point x="61" y="234" type="curve" smooth="yes"/>
      <point x="61" y="351"/>
      <point x="100" y="437"/>
      <point x="133" y="437" type="curve" smooth="yes"/>
      <point x="166" y="437"/>
      <point x="203" y="351"/>
      <point x="203" y="234" type="curve" smooth="yes"/>
      <point x="203" y="117"/>
      <point x="166" y="30"/>
    </contour>
  </outline>
</glyph>
<glyph name="h" format="1">
  <advance width="320"/>
  <unicode hex="0068"/>
  <outline>
    <contour>
      <point x="270" y="354" type="line"/>
      <point x="270" y="410"/>
      <point x="223" y="456"/>
      <point x="164" y="456" type="curve" smooth="yes"/>
      <point x="136" y="456"/>
      <point x="110" y="444"/>
      <point x="92" y="425" type="curve"/>
      <point x="92" y="686" type="line" smooth="yes"/>
      <point x="92" y="695"/>
      <point x="85" y="701"/>
      <point x="76" y="701" type="curve" smooth="yes"/>
      <point x="68" y="701"/>
      <point x="60" y="695"/>
      <point x="60" y="686" type="curve" smooth="yes"/>
      <point x="60" y="364" type="line" smooth="yes"/>
      <point x="60" y="360"/>
      <point x="60" y="14"/>
      <point x="60" y="14" type="curve"/>
      <point x="60" y="6"/>
      <point x="68" y="-1"/>
      <point x="76" y="-1" type="curve" smooth="yes"/>
      <point x="85" y="-1"/>
      <point x="92" y="6"/>
      <point x="92" y="14" type="curve" smooth="yes"/>
      <point x="92" y="354" type="line" smooth="yes"/>
      <point x="92" y="393"/>
      <point x="124" y="424"/>
      <point x="164" y="424" type="curve" smooth="yes"/>
      <point x="202" y="424"/>
      <point x="234" y="396"/>
      <point x="238" y="364" type="curve" smooth="yes"/>
      <point x="239" y="360"/>
      <point x="239" y="320"/>
      <point x="239" y="268" type="curve" smooth="yes"/>
      <point x="239" y="164"/>
      <point x="238" y="14"/>
      <point x="238" y="14" type="curve"/>
      <point x="238" y="6"/>
      <point x="245" y="0"/>
      <point x="253" y="0" type="curve" smooth="yes"/>
      <point x="262" y="0"/>
      <point x="269" y="6"/>
      <point x="269" y="14" type="curve"/>
    </contour>
  </outline>
</glyph>
<glyph name="k" format="1">
  <advance width="281"/>
  <unicode hex="006B"/>
  <outline>
    <contour>
      <point x="275" y="28" type="curve"/>
      <point x="152" y="251" type="line"/>
      <point x="250" y="431" type="line"/>
      <point x="250" y="431"/>
      <point x="252" y="435"/>
      <point x="252" y="440" type="curve" smooth="yes"/>
      <point x="252" y="446"/>
      <point x="246" y="456"/>
      <point x="236" y="456" type="curve" smooth="yes"/>
      <point x="227" y="456"/>
      <point x="222" y="445"/>
      <point x="222" y="445" type="curve"/>
      <point x="124" y="264" type="line"/>
      <point x="90" y="264" type="line"/>
      <point x="90" y="685" type="line" smooth="yes"/>
      <point x="90" y="694"/>
      <point x="84" y="700"/>
      <point x="76" y="700" type="curve"/>
      <point x="75" y="700" type="line"/>
      <point x="66" y="700"/>
      <point x="60" y="694"/>
      <point x="60" y="685" type="curve" smooth="yes"/>
      <point x="60" y="246" type="line"/>
      <point x="60" y="14" type="line" smooth="yes"/>
      <point x="60" y="7"/>
      <point x="66" y="0"/>
      <point x="75" y="0" type="curve"/>
      <point x="76" y="0" type="line"/>
      <point x="84" y="0"/>
      <point x="90" y="7"/>
      <point x="90" y="14" type="curve" smooth="yes"/>
      <point x="90" y="231" type="line"/>
      <point x="128" y="231" type="line"/>
      <point x="250" y="11" type="line"/>
      <point x="250" y="11"/>
      <point x="256" y="0"/>
      <point x="266" y="0" type="curve" smooth="yes"/>
      <point x="276" y="0"/>
      <point x="280" y="8"/>
      <point x="280" y="13" type="curve" smooth="yes"/>
      <point x="280" y="21"/>
    </contour>
  </outline>
</glyph>
<glyph name="l" format="1">
  <advance width="150"/>
  <unicode hex="006C"/>
  <outline>
    <contour>
      <point x="90" y="15" type="line" smooth="yes"/>
      <point x="90" y="6"/>
      <point x="84" y="-1"/>
      <point x="75" y="-1" type="curve" smooth="yes"/>
      <point x="67" y="-1"/>
      <point x="60" y="6"/>
      <point x="60" y="15" type="curve" smooth="yes"/>
      <point x="60" y="685" type="line" smooth="yes"/>
      <point x="60" y="693"/>
      <point x="67" y="700"/>
      <point x="75" y="700" type="curve" smooth="yes"/>
      <point x="84" y="700"/>
      <point x="90" y="693"/>
      <point x="90" y="685" type="curve" smooth="yes"/>
    </contour>
  </outline>
</glyph>
<glyph name="m" format="1">
  <advance width="488"/>
  <unicode hex="006D"/>
  <outline>
    <contour>
      <point x="436" y="372" type="curve"/>
      <point x="429" y="422"/>
      <point x="386" y="461"/>
      <point x="332" y="461" type="curve" smooth="yes"/>
      <point x="294" y="461"/>
      <point x="261" y="440"/>
      <point x="243" y="411" type="curve"/>
      <point x="225" y="440"/>
      <point x="192" y="461"/>
      <point x="154" y="461" type="curve" smooth="yes"/>
      <point x="124" y="461"/>
      <point x="99" y="450"/>
      <point x="80" y="432" type="curve"/>
      <point x="80" y="446" type="line" smooth="yes"/>
      <point x="80" y="455"/>
      <point x="73" y="461"/>
      <point x="66" y="461" type="curve"/>
      <point x="65" y="461" type="line"/>
      <point x="56" y="461"/>
      <point x="50" y="455"/>
      <point x="50" y="446" type="curve" smooth="yes"/>
      <point x="50" y="15" type="line" smooth="yes"/>
      <point x="50" y="7"/>
      <point x="56" y="0"/>
      <point x="65" y="0" type="curve"/>
      <point x="66" y="0" type="line"/>
      <point x="73" y="0"/>
      <point x="80" y="7"/>
      <point x="80" y="15" type="curve" smooth="yes"/>
      <point x="80" y="365" type="line"/>
      <point x="84" y="401"/>
      <point x="115" y="429"/>
      <point x="154" y="429" type="curve" smooth="yes"/>
      <point x="194" y="429"/>
      <point x="229" y="398"/>
      <point x="229" y="359" type="curve" smooth="yes"/>
      <point x="229" y="15" type="line" smooth="yes"/>
      <point x="229" y="7"/>
      <point x="236" y="1"/>
      <point x="244" y="1" type="curve" smooth="yes"/>
      <point x="253" y="1"/>
      <point x="260" y="7"/>
      <point x="260" y="15" type="curve" smooth="yes"/>
      <point x="260" y="359" type="line" smooth="yes"/>
      <point x="260" y="398"/>
      <point x="293" y="429"/>
      <point x="332" y="429" type="curve" smooth="yes"/>
      <point x="372" y="429"/>
      <point x="407" y="394"/>
      <point x="407" y="356" type="curve" smooth="yes"/>
      <point x="407" y="15" type="line" smooth="yes"/>
      <point x="407" y="7"/>
      <point x="413" y="1"/>
      <point x="422" y="1" type="curve"/>
      <point x="423" y="1" type="line"/>
      <point x="444" y="1"/>
      <point x="438" y="46"/>
      <point x="438" y="230" type="curve" smooth="yes"/>
      <point x="438" y="304"/>
      <point x="437" y="370"/>
    </contour>
  </outline>
</glyph>
<glyph name="n" format="1">
  <advance width="307"/>
  <unicode hex="006E"/>
  <outline>
    <contour>
      <point x="257" y="363" type="curve"/>
      <point x="255" y="416"/>
      <point x="211" y="460"/>
      <point x="154" y="460" type="curve" smooth="yes"/>
      <point x="125" y="460"/>
      <point x="100" y="448"/>
      <point x="80" y="429" type="curve"/>
      <point x="80" y="445" type="line" smooth="yes"/>
      <point x="80" y="454"/>
      <point x="73" y="460"/>
      <point x="66" y="460" type="curve"/>
      <point x="65" y="460" type="line"/>
      <point x="56" y="460"/>
      <point x="50" y="454"/>
      <point x="50" y="445" type="curve" smooth="yes"/>
      <point x="50" y="14" type="line" smooth="yes"/>
      <point x="50" y="6"/>
      <point x="56" y="-1"/>
      <point x="65" y="-1" type="curve"/>
      <point x="66" y="-1" type="line"/>
      <point x="73" y="-1"/>
      <point x="80" y="6"/>
      <point x="80" y="14" type="curve" smooth="yes"/>
      <point x="80" y="358" type="line" smooth="yes"/>
      <point x="80" y="397"/>
      <point x="114" y="428"/>
      <point x="154" y="428" type="curve" smooth="yes"/>
      <point x="195" y="428"/>
      <point x="226" y="397"/>
      <point x="226" y="358" type="curve" smooth="yes"/>
      <point x="226" y="8" type="line" smooth="yes"/>
      <point x="226" y="0"/>
      <point x="232" y="-6"/>
      <point x="241" y="-6" type="curve"/>
      <point x="242" y="-6" type="line"/>
      <point x="250" y="-6"/>
      <point x="257" y="0"/>
      <point x="257" y="8" type="curve" smooth="yes"/>
      <point x="257" y="361" type="line"/>
      <point x="257" y="361"/>
      <point x="257" y="362"/>
    </contour>
  </outline>
</glyph>
<glyph name="o" format="1">
  <advance width="285"/>
  <unicode hex="006F"/>
  <outline>
    <contour>
      <point x="143" y="-6" type="curve" smooth="yes"/>
      <point x="76" y="-6"/>
      <point x="40" y="116"/>
      <point x="40" y="230" type="curve" smooth="yes"/>
      <point x="40" y="345"/>
      <point x="76" y="466"/>
      <point x="143" y="466" type="curve" smooth="yes"/>
      <point x="209" y="466"/>
      <point x="245" y="345"/>
      <point x="245" y="230" type="curve" smooth="yes"/>
      <point x="245" y="116"/>
      <point x="209" y="-6"/>
    </contour>
    <contour>
      <point x="143" y="434" type="curve" smooth="yes"/>
      <point x="109" y="434"/>
      <point x="71" y="347"/>
      <point x="71" y="230" type="curve" smooth="yes"/>
      <point x="71" y="112"/>
      <point x="109" y="27"/>
      <point x="143" y="27" type="curve" smooth="yes"/>
      <point x="176" y="27"/>
      <point x="214" y="112"/>
      <point x="214" y="230" type="curve" smooth="yes"/>
      <point x="214" y="347"/>
      <point x="176" y="434"/>
    </contour>
  </outline>
</glyph>
<glyph name="p" format="1">
  <advance width="281"/>
  <unicode hex="0070"/>
  <outline>
    <contour>
      <point x="95" y="466" type="curve" smooth="yes"/>
      <point x="66" y="466"/>
      <point x="60" y="462"/>
      <point x="60" y="450" type="curve" smooth="yes"/>
      <point x="60" y="-226" type="line" smooth="yes"/>
      <point x="60" y="-234"/>
      <point x="67" y="-240"/>
      <point x="77" y="-240" type="curve" smooth="yes"/>
      <point x="85" y="-240"/>
      <point x="93" y="-234"/>
      <point x="93" y="-226" type="curve" smooth="yes"/>
      <point x="93" y="-6" type="line"/>
      <point x="180" y="-8"/>
      <point x="251" y="98"/>
      <point x="251" y="230" type="curve" smooth="yes"/>
      <point x="251" y="360"/>
      <point x="181" y="466"/>
    </contour>
    <contour>
      <point x="95" y="25" type="curve"/>
      <point x="94" y="25"/>
      <point x="93" y="25"/>
      <point x="93" y="26" type="curve"/>
      <point x="93" y="435" type="line"/>
      <point x="162" y="437"/>
      <point x="219" y="342"/>
      <point x="219" y="230" type="curve" smooth="yes"/>
      <point x="219" y="117"/>
      <point x="164" y="25"/>
    </contour>
  </outline>
</glyph>
<glyph name="q" format="1">
  <advance width="287"/>
  <unicode hex="0071"/>
  <outline>
    <contour>
      <point x="237" y="232" type="curve" smooth="yes"/>
      <point x="237" y="240"/>
      <point x="237" y="248"/>
      <point x="236" y="256" type="curve"/>
      <point x="236" y="445" type="line" smooth="yes"/>
      <point x="236" y="454"/>
      <point x="230" y="461"/>
      <point x="221" y="461" type="curve"/>
      <point x="220" y="461" type="line"/>
      <point x="213" y="461"/>
      <point x="205" y="454"/>
      <point x="205" y="445" type="curve" smooth="yes"/>
      <point x="205" y="398" type="line"/>
      <point x="188" y="436"/>
      <point x="164" y="468"/>
      <point x="133" y="468" type="curve" smooth="yes"/>
      <point x="66" y="468"/>
      <point x="30" y="346"/>
      <point x="30" y="232" type="curve" smooth="yes"/>
      <point x="30" y="118"/>
      <point x="66" y="-3"/>
      <point x="133" y="-3" type="curve" smooth="yes"/>
      <point x="164" y="-3"/>
      <point x="188" y="30"/>
      <point x="205" y="68" type="curve"/>
      <point x="205" y="-227" type="line" smooth="yes"/>
      <point x="205" y="-236"/>
      <point x="213" y="-242"/>
      <point x="220" y="-242" type="curve"/>
      <point x="221" y="-242" type="line"/>
      <point x="230" y="-242"/>
      <point x="236" y="-236"/>
      <point x="236" y="-227" type="curve" smooth="yes"/>
      <point x="236" y="208" type="line"/>
      <point x="237" y="216"/>
      <point x="237" y="225"/>
    </contour>
    <contour>
      <point x="133" y="28" type="curve" smooth="yes"/>
      <point x="99" y="28"/>
      <point x="61" y="115"/>
      <point x="61" y="232" type="curve" smooth="yes"/>
      <point x="61" y="349"/>
      <point x="99" y="436"/>
      <point x="133" y="436" type="curve" smooth="yes"/>
      <point x="168" y="436"/>
      <point x="205" y="349"/>
      <point x="205" y="232" type="curve" smooth="yes"/>
      <point x="205" y="115"/>
      <point x="168" y="28"/>
    </contour>
  </outline>
</glyph>
<glyph name="r" format="1">
  <advance width="224"/>
  <unicode hex="0072"/>
  <outline>
    <contour>
      <point x="112" y="427" type="curve" smooth="yes"/>
      <point x="100" y="416"/>
      <point x="89" y="401"/>
      <point x="80" y="387" type="curve"/>
      <point x="80" y="447" type="line" smooth="yes"/>
      <point x="80" y="456"/>
      <point x="74" y="462"/>
      <point x="66" y="462" type="curve"/>
      <point x="65" y="462" type="line"/>
      <point x="57" y="462"/>
      <point x="50" y="456"/>
      <point x="50" y="447" type="curve" smooth="yes"/>
      <point x="50" y="290" type="line" smooth="yes"/>
      <point x="50" y="287"/>
      <point x="50" y="20"/>
      <point x="50" y="20" type="curve"/>
      <point x="50" y="12"/>
      <point x="57" y="5"/>
      <point x="65" y="5" type="curve"/>
      <point x="66" y="5" type="line"/>
      <point x="74" y="5"/>
      <point x="80" y="12"/>
      <point x="80" y="20" type="curve" smooth="yes"/>
      <point x="80" y="280" type="line" smooth="yes"/>
      <point x="80" y="327"/>
      <point x="118" y="429"/>
      <point x="196" y="429" type="curve" smooth="yes"/>
      <point x="199" y="429"/>
      <point x="202" y="429"/>
      <point x="205" y="429" type="curve" smooth="yes"/>
      <point x="210" y="429"/>
      <point x="224" y="430"/>
      <point x="224" y="446" type="curve" smooth="yes"/>
      <point x="224" y="465"/>
      <point x="193" y="460"/>
      <point x="195" y="460" type="curve"/>
      <point x="163" y="460"/>
      <point x="135" y="449"/>
    </contour>
  </outline>
</glyph>
<glyph name="t" format="1">
  <advance width="221"/>
  <unicode hex="0074"/>
  <outline>
    <contour>
      <point x="196" y="428" type="line" smooth="yes"/>
      <point x="205" y="428"/>
      <point x="211" y="434"/>
      <point x="211" y="443" type="curve"/>
      <point x="211" y="445" type="line"/>
      <point x="211" y="454"/>
      <point x="205" y="460"/>
      <point x="196" y="460" type="curve" smooth="yes"/>
      <point x="115" y="460" type="line"/>
      <point x="115" y="557" type="line" smooth="yes"/>
      <point x="115" y="565"/>
      <point x="109" y="572"/>
      <point x="100" y="572" type="curve"/>
      <point x="99" y="572" type="line"/>
      <point x="90" y="572"/>
      <point x="84" y="565"/>
      <point x="84" y="557" type="curve" smooth="yes"/>
      <point x="84" y="460" type="line"/>
      <point x="24" y="460" type="line" smooth="yes"/>
      <point x="17" y="460"/>
      <point x="10" y="454"/>
      <point x="10" y="445" type="curve"/>
      <point x="10" y="443" type="line"/>
      <point x="10" y="434"/>
      <point x="17" y="428"/>
      <point x="24" y="428" type="curve" smooth="yes"/>
      <point x="84" y="428" type="line"/>
      <point x="83" y="225" type="line"/>
      <point x="83" y="189"/>
      <point x="81" y="153"/>
      <point x="81" y="121" type="curve" smooth="yes"/>
      <point x="81" y="43"/>
      <point x="92" y="-1"/>
      <point x="165" y="-1" type="curve" smooth="yes"/>
      <point x="174" y="-1"/>
      <point x="206" y="-6"/>
      <point x="206" y="18" type="curve" smooth="yes"/>
      <point x="206" y="30"/>
      <point x="198" y="32"/>
      <point x="191" y="32" type="curve" smooth="yes"/>
      <point x="175" y="32"/>
      <point x="173" y="31"/>
      <point x="151" y="31" type="curve" smooth="yes"/>
      <point x="120" y="31"/>
      <point x="113" y="55"/>
      <point x="113" y="105" type="curve" smooth="yes"/>
      <point x="113" y="135"/>
      <point x="116" y="175"/>
      <point x="116" y="225" type="curve"/>
      <point x="115" y="428" type="line"/>
    </contour>
  </outline>
</glyph>
<glyph name="u" format="1">
  <advance width="298"/>
  <unicode hex="0075"/>
  <outline>
    <contour>
      <point x="248" y="101" type="curve"/>
      <point x="248" y="446" type="line" smooth="yes"/>
      <point x="248" y="454"/>
      <point x="241" y="460"/>
      <point x="233" y="460" type="curve"/>
      <point x="232" y="460" type="line"/>
      <point x="224" y="460"/>
      <point x="218" y="454"/>
      <point x="218" y="446" type="curve"/>
      <point x="217" y="101" type="line"/>
      <point x="217" y="62"/>
      <point x="186" y="31"/>
      <point x="149" y="31" type="curve" smooth="yes"/>
      <point x="113" y="31"/>
      <point x="83" y="62"/>
      <point x="83" y="101" type="curve"/>
      <point x="81" y="101" type="line"/>
      <point x="81" y="446" type="line" smooth="yes"/>
      <point x="81" y="454"/>
      <point x="74" y="460"/>
      <point x="66" y="460" type="curve"/>
      <point x="65" y="460" type="line"/>
      <point x="57" y="460"/>
      <point x="50" y="454"/>
      <point x="50" y="446" type="curve" smooth="yes"/>
      <point x="50" y="101" type="line" smooth="yes"/>
      <point x="50" y="45"/>
      <point x="95" y="0"/>
      <point x="149" y="0" type="curve" smooth="yes"/>
      <point x="203" y="0"/>
      <point x="248" y="45"/>
    </contour>
  </outline>
</glyph>
<glyph name="v" format="1">
  <advance width="242"/>
  <unicode hex="0076"/>
  <outline>
    <contour>
      <point x="209" y="460" type="curve"/>
      <point x="208" y="460" type="line"/>
      <point x="206" y="460"/>
      <point x="205" y="461"/>
      <point x="204" y="461" type="curve"/>
      <point x="197" y="461"/>
      <point x="192" y="455"/>
      <point x="191" y="449" type="curve" smooth="yes"/>
      <point x="121" y="87" type="line"/>
      <point x="51" y="449" type="line"/>
      <point x="49" y="455"/>
      <point x="44" y="461"/>
      <point x="37" y="461" type="curve"/>
      <point x="36" y="461"/>
      <point x="34" y="460"/>
      <point x="33" y="460" type="curve"/>
      <point x="32" y="460" type="line"/>
      <point x="25" y="459"/>
      <point x="20" y="454"/>
      <point x="20" y="447" type="curve"/>
      <point x="20" y="446"/>
      <point x="20" y="444"/>
      <point x="21" y="443" type="curve"/>
      <point x="105" y="12" type="line"/>
      <point x="106" y="3"/>
      <point x="114" y="0"/>
      <point x="123" y="0" type="curve" smooth="yes"/>
      <point x="130" y="0"/>
      <point x="136" y="5"/>
      <point x="138" y="12" type="curve"/>
      <point x="221" y="443" type="line"/>
      <point x="221" y="444"/>
      <point x="221" y="444"/>
      <point x="221" y="445" type="curve"/>
      <point x="221" y="452"/>
      <point x="216" y="459"/>
    </contour>
  </outline>
</glyph>
<glyph name="w" format="1">
  <advance width="391"/>
  <unicode hex="0077"/>
  <outline>
    <contour>
      <point x="358" y="460" type="curve"/>
      <point x="356" y="460"/>
      <point x="355" y="461"/>
      <point x="353" y="461" type="curve"/>
      <point x="346" y="461"/>
      <point x="341" y="455"/>
      <point x="340" y="449" type="curve" smooth="yes"/>
      <point x="271" y="88" type="line"/>
      <point x="213" y="391" type="line" smooth="yes"/>
      <point x="212" y="398"/>
      <point x="205" y="404"/>
      <point x="196" y="404" type="curve"/>
      <point x="195" y="404" type="line"/>
      <point x="194" y="404"/>
      <point x="191" y="405"/>
      <point x="190" y="405" type="curve"/>
      <point x="184" y="405"/>
      <point x="179" y="399"/>
      <point x="178" y="393" type="curve" smooth="yes"/>
      <point x="122" y="90" type="line"/>
      <point x="53" y="449" type="line"/>
      <point x="50" y="455"/>
      <point x="45" y="461"/>
      <point x="39" y="461" type="curve" smooth="yes"/>
      <point x="28" y="461"/>
      <point x="20" y="454"/>
      <point x="20" y="446" type="curve"/>
      <point x="20" y="445"/>
      <point x="21" y="444"/>
      <point x="21" y="443" type="curve"/>
      <point x="107" y="12" type="line" smooth="yes"/>
      <point x="108" y="5"/>
      <point x="114" y="0"/>
      <point x="120" y="0" type="curve" smooth="yes"/>
      <point x="130" y="0"/>
      <point x="138" y="4"/>
      <point x="139" y="12" type="curve" smooth="yes"/>
      <point x="196" y="320" type="line"/>
      <point x="254" y="12" type="line"/>
      <point x="255" y="3"/>
      <point x="263" y="0"/>
      <point x="272" y="0" type="curve" smooth="yes"/>
      <point x="279" y="0"/>
      <point x="285" y="5"/>
      <point x="287" y="12" type="curve"/>
      <point x="370" y="443" type="line"/>
      <point x="370" y="444"/>
      <point x="370" y="444"/>
      <point x="370" y="445" type="curve"/>
      <point x="370" y="452"/>
      <point x="365" y="459"/>
    </contour>
  </outline>
</glyph>
<glyph name="x" format="1">
  <advance width="216"/>
  <unicode hex="0078"/>
  <outline>
    <contour>
      <point x="205" y="20" type="curve"/>
      <point x="124" y="268" type="line"/>
      <point x="180" y="441" type="line"/>
      <point x="180" y="442"/>
      <point x="180" y="444"/>
      <point x="180" y="445" type="curve"/>
      <point x="180" y="452"/>
      <point x="175" y="460"/>
      <point x="164" y="460" type="curve" smooth="yes"/>
      <point x="158" y="460"/>
      <point x="152" y="456"/>
      <point x="151" y="451" type="curve" smooth="yes"/>
      <point x="109" y="317" type="line"/>
      <point x="65" y="451" type="line" smooth="yes"/>
      <point x="63" y="456"/>
      <point x="58" y="460"/>
      <point x="52" y="460" type="curve" smooth="yes"/>
      <point x="41" y="460"/>
      <point x="35" y="453"/>
      <point x="35" y="445" type="curve"/>
      <point x="35" y="444"/>
      <point x="35" y="442"/>
      <point x="36" y="441" type="curve"/>
      <point x="92" y="268" type="line"/>
      <point x="11" y="20" type="line"/>
      <point x="10" y="19"/>
      <point x="10" y="17"/>
      <point x="10" y="16" type="curve"/>
      <point x="10" y="9"/>
      <point x="15" y="0"/>
      <point x="26" y="0" type="curve" smooth="yes"/>
      <point x="32" y="0"/>
      <point x="37" y="4"/>
      <point x="40" y="10" type="curve"/>
      <point x="109" y="219" type="line"/>
      <point x="176" y="10" type="line" smooth="yes"/>
      <point x="178" y="4"/>
      <point x="184" y="0"/>
      <point x="191" y="0" type="curve" smooth="yes"/>
      <point x="200" y="0"/>
      <point x="206" y="8"/>
      <point x="206" y="15" type="curve"/>
      <point x="206" y="17"/>
      <point x="206" y="18"/>
    </contour>
  </outline>
</glyph>
<glyph name="y" format="1">
  <advance width="260"/>
  <unicode hex="0079"/>
  <outline>
    <contour>
      <point x="227" y="467" type="curve"/>
      <point x="226" y="467" type="line"/>
      <point x="225" y="467"/>
      <point x="224" y="467"/>
      <point x="224" y="467" type="curve"/>
      <point x="217" y="467"/>
      <point x="210" y="463"/>
      <point x="209" y="455" type="curve"/>
      <point x="131" y="69" type="line"/>
      <point x="69" y="451" type="line" smooth="yes"/>
      <point x="68" y="460"/>
      <point x="60" y="464"/>
      <point x="52" y="464" type="curve"/>
      <point x="50" y="464" type="line"/>
      <point x="42" y="462"/>
      <point x="38" y="454"/>
      <point x="38" y="447" type="curve"/>
      <point x="38" y="447"/>
      <point x="113" y="-1"/>
      <point x="114" y="-2" type="curve"/>
      <point x="92" y="-108" type="line"/>
      <point x="92" y="-132"/>
      <point x="70" y="-207"/>
      <point x="32" y="-207" type="curve" smooth="yes"/>
      <point x="14" y="-207"/>
      <point x="-1" y="-170"/>
      <point x="-14" y="-170" type="curve" smooth="yes"/>
      <point x="-22" y="-170"/>
      <point x="-30" y="-177"/>
      <point x="-30" y="-185" type="curve" smooth="yes"/>
      <point x="-30" y="-218"/>
      <point x="16" y="-237"/>
      <point x="36" y="-237" type="curve" smooth="yes"/>
      <point x="81" y="-237"/>
      <point x="104" y="-190"/>
      <point x="119" y="-131" type="curve"/>
      <point x="119" y="-130"/>
      <point x="239" y="449"/>
      <point x="239" y="449" type="curve"/>
      <point x="239" y="450"/>
      <point x="239" y="451"/>
      <point x="239" y="452" type="curve"/>
      <point x="239" y="459"/>
      <point x="235" y="466"/>
    </contour>
  </outline>
</glyph>
<glyph name="z" format="1">
  <advance width="215"/>
  <unicode hex="007A"/>
  <outline>
    <contour>
      <point x="195" y="445" type="line" smooth="yes"/>
      <point x="195" y="453"/>
      <point x="188" y="460"/>
      <point x="180" y="460" type="curve" smooth="yes"/>
      <point x="35" y="460" type="line" smooth="yes"/>
      <point x="26" y="460"/>
      <point x="20" y="453"/>
      <point x="20" y="445" type="curve" smooth="yes"/>
      <point x="20" y="437" type="line" smooth="yes"/>
      <point x="20" y="429"/>
      <point x="26" y="423"/>
      <point x="35" y="423" type="curve" smooth="yes"/>
      <point x="159" y="423" type="line"/>
      <point x="20" y="28" type="line"/>
      <point x="20" y="25"/>
      <point x="20" y="24"/>
      <point x="20" y="22" type="curve"/>
      <point x="20" y="14" type="line" smooth="yes"/>
      <point x="20" y="7"/>
      <point x="26" y="0"/>
      <point x="35" y="0" type="curve" smooth="yes"/>
      <point x="180" y="0" type="line" smooth="yes"/>
      <point x="188" y="0"/>
      <point x="195" y="7"/>
      <point x="195" y="14" type="curve" smooth="yes"/>
      <point x="195" y="22" type="line" smooth="yes"/>
      <point x="195" y="30"/>
      <point x="188" y="37"/>
      <point x="180" y="37" type="curve" smooth="yes"/>
      <point x="57" y="37" type="line"/>
      <point x="194" y="433" type="line"/>
      <point x="194" y="434"/>
      <point x="195" y="436"/>
      <point x="195" y="437" type="curve"/>
    </contour>
  </outline>
</glyph>
<glyph name="braceleft" format="1">
  <advance width="233"/>
  <unicode hex="007B"/>
  <outline>
    <contour>
      <point x="197" y="-53" type="curve" smooth="yes"/>
      <point x="184" y="-59"/>
      <point x="170" y="-63"/>
      <point x="156" y="-63" type="curve" smooth="yes"/>
      <point x="113" y="-63"/>
      <point x="100" y="-22"/>
      <point x="100" y="10" type="curve" smooth="yes"/>
      <point x="100" y="61"/>
      <point x="125" y="107"/>
      <point x="125" y="163" type="curve" smooth="yes"/>
      <point x="125" y="202"/>
      <point x="115" y="242"/>
      <point x="85" y="265" type="curve"/>
      <point x="115" y="287"/>
      <point x="125" y="326"/>
      <point x="125" y="365" type="curve" smooth="yes"/>
      <point x="125" y="422"/>
      <point x="104" y="465"/>
      <point x="100" y="516" type="curve"/>
      <point x="100" y="551"/>
      <point x="115" y="592"/>
      <point x="156" y="592" type="curve" smooth="yes"/>
      <point x="173" y="592"/>
      <point x="192" y="580"/>
      <point x="204" y="580" type="curve" smooth="yes"/>
      <point x="214" y="580"/>
      <point x="222" y="589"/>
      <point x="222" y="598" type="curve" smooth="yes"/>
      <point x="222" y="615"/>
      <point x="175" y="624"/>
      <point x="155" y="624" type="curve" smooth="yes"/>
      <point x="105" y="624"/>
      <point x="68" y="578"/>
      <point x="68" y="524" type="curve" smooth="yes"/>
      <point x="68" y="478"/>
      <point x="94" y="429"/>
      <point x="94" y="362" type="curve" smooth="yes"/>
      <point x="94" y="323"/>
      <point x="82" y="289"/>
      <point x="42" y="280" type="curve" smooth="yes"/>
      <point x="34" y="278"/>
      <point x="30" y="273"/>
      <point x="30" y="268" type="curve"/>
      <point x="30" y="267"/>
      <point x="31" y="266"/>
      <point x="31" y="265" type="curve"/>
      <point x="31" y="264"/>
      <point x="30" y="263"/>
      <point x="30" y="261" type="curve"/>
      <point x="30" y="256"/>
      <point x="34" y="251"/>
      <point x="42" y="249" type="curve" smooth="yes"/>
      <point x="82" y="240"/>
      <point x="94" y="206"/>
      <point x="94" y="167" type="curve" smooth="yes"/>
      <point x="94" y="100"/>
      <point x="68" y="52"/>
      <point x="68" y="10" type="curve" smooth="yes"/>
      <point x="68" y="-41"/>
      <point x="97" y="-95"/>
      <point x="154" y="-95" type="curve" smooth="yes"/>
      <point x="177" y="-95"/>
      <point x="222" y="-85"/>
      <point x="222" y="-69" type="curve" smooth="yes"/>
      <point x="222" y="-60"/>
      <point x="214" y="-51"/>
      <point x="204" y="-51" type="curve"/>
      <point x="202" y="-51"/>
      <point x="199" y="-52"/>
    </contour>
  </outline>
</glyph>
<glyph name="bar" format="1">
  <advance width="150"/>
  <unicode hex="007C"/>
  <outline>
    <contour>
      <point x="90" y="-148" type="line" smooth="yes"/>
      <point x="90" y="-159"/>
      <point x="83" y="-168"/>
      <point x="75" y="-168" type="curve" smooth="yes"/>
      <point x="67" y="-168"/>
      <point x="60" y="-159"/>
      <point x="60" y="-148" type="curve" smooth="yes"/>
      <point x="60" y="691" type="line" smooth="yes"/>
      <point x="60" y="702"/>
      <point x="67" y="712"/>
      <point x="75" y="712" type="curve" smooth="yes"/>
      <point x="83" y="712"/>
      <point x="90" y="702"/>
      <point x="90" y="691" type="curve" smooth="yes"/>
    </contour>
  </outline>
</glyph>
<glyph name="braceright" format="1">
  <advance width="233"/>
  <unicode hex="007D"/>
  <outline>
    <contour>
      <point x="36" y="-53" type="curve" smooth="yes"/>
      <point x="33" y="-52"/>
      <point x="31" y="-51"/>
      <point x="28" y="-51" type="curve" smooth="yes"/>
      <point x="18" y="-51"/>
      <point x="11" y="-60"/>
      <point x="11" y="-69" type="curve" smooth="yes"/>
      <point x="11" y="-85"/>
      <point x="56" y="-95"/>
      <point x="79" y="-95" type="curve" smooth="yes"/>
      <point x="135" y="-95"/>
      <point x="165" y="-41"/>
      <point x="165" y="10" type="curve" smooth="yes"/>
      <point x="165" y="52"/>
      <point x="139" y="100"/>
      <point x="139" y="167" type="curve" smooth="yes"/>
      <point x="139" y="206"/>
      <point x="151" y="240"/>
      <point x="191" y="249" type="curve" smooth="yes"/>
      <point x="198" y="251"/>
      <point x="202" y="256"/>
      <point x="202" y="261" type="curve"/>
      <point x="202" y="263"/>
      <point x="202" y="264"/>
      <point x="202" y="265" type="curve"/>
      <point x="202" y="266"/>
      <point x="202" y="267"/>
      <point x="202" y="268" type="curve"/>
      <point x="202" y="273"/>
      <point x="198" y="278"/>
      <point x="191" y="280" type="curve" smooth="yes"/>
      <point x="151" y="289"/>
      <point x="139" y="323"/>
      <point x="139" y="362" type="curve" smooth="yes"/>
      <point x="139" y="429"/>
      <point x="164" y="478"/>
      <point x="164" y="524" type="curve" smooth="yes"/>
      <point x="164" y="578"/>
      <point x="128" y="624"/>
      <point x="77" y="624" type="curve" smooth="yes"/>
      <point x="58" y="624"/>
      <point x="11" y="615"/>
      <point x="11" y="598" type="curve" smooth="yes"/>
      <point x="11" y="589"/>
      <point x="18" y="580"/>
      <point x="28" y="580" type="curve" smooth="yes"/>
      <point x="41" y="580"/>
      <point x="60" y="592"/>
      <point x="77" y="592" type="curve" smooth="yes"/>
      <point x="117" y="592"/>
      <point x="133" y="551"/>
      <point x="133" y="516" type="curve"/>
      <point x="128" y="465"/>
      <point x="108" y="422"/>
      <point x="108" y="365" type="curve" smooth="yes"/>
      <point x="108" y="326"/>
      <point x="117" y="287"/>
      <point x="148" y="265" type="curve"/>
      <point x="118" y="242"/>
      <point x="108" y="202"/>
      <point x="108" y="163" type="curve" smooth="yes"/>
      <point x="108" y="106"/>
      <point x="133" y="59"/>
      <point x="133" y="7" type="curve" smooth="yes"/>
      <point x="133" y="-24"/>
      <point x="117" y="-63"/>
      <point x="76" y="-63" type="curve" smooth="yes"/>
      <point x="63" y="-63"/>
      <point x="49" y="-59"/>
    </contour>
  </outline>
</glyph>
<glyph name="asciitilde" format="1">
  <advance width="319"/>
  <unicode hex="007E"/>
  <outline>
    <contour>
      <point x="63" y="260" type="curve" smooth="yes"/>
      <point x="72" y="281"/>
      <point x="85" y="289"/>
      <point x="99" y="289" type="curve" smooth="yes"/>
      <point x="138" y="289"/>
      <point x="180" y="246"/>
      <point x="221" y="246" type="curve" smooth="yes"/>
      <point x="250" y="246"/>
      <point x="273" y="262"/>
      <point x="287" y="296" type="curve" smooth="yes"/>
      <point x="288" y="298"/>
      <point x="288" y="301"/>
      <point x="288" y="303" type="curve"/>
      <point x="288" y="313"/>
      <point x="279" y="322"/>
      <point x="271" y="322" type="curve" smooth="yes"/>
      <point x="256" y="322"/>
      <point x="251" y="277"/>
      <point x="223" y="277" type="curve" smooth="yes"/>
      <point x="182" y="277"/>
      <point x="140" y="321"/>
      <point x="99" y="321" type="curve" smooth="yes"/>
      <point x="70" y="321"/>
      <point x="47" y="303"/>
      <point x="32" y="267" type="curve" smooth="yes"/>
      <point x="31" y="265"/>
      <point x="30" y="263"/>
      <point x="30" y="261" type="curve"/>
      <point x="30" y="253"/>
      <point x="38" y="249"/>
      <point x="45" y="249" type="curve" smooth="yes"/>
      <point x="52" y="249"/>
      <point x="60" y="252"/>
    </contour>
  </outline>
</glyph>
<glyph name="exclamdown" format="1">
  <advance width="185"/>
  <unicode hex="00A1"/>
  <outline>
    <contour>
      <point x="93" y="404" type="curve" smooth="yes"/>
      <point x="110" y="404"/>
      <point x="125" y="419"/>
      <point x="125" y="436" type="curve" smooth="yes"/>
      <point x="125" y="455"/>
      <point x="110" y="468"/>
      <point x="93" y="468" type="curve" smooth="yes"/>
      <point x="75" y="468"/>
      <point x="60" y="455"/>
      <point x="60" y="436" type="curve" smooth="yes"/>
      <point x="60" y="419"/>
      <point x="75" y="404"/>
    </contour>
    <contour>
      <point x="93" y="343" type="curve" smooth="yes"/>
      <point x="83" y="343"/>
      <point x="75" y="337"/>
      <point x="75" y="328" type="curve" smooth="yes"/>
      <point x="75" y="-228" type="line" smooth="yes"/>
      <point x="75" y="-237"/>
      <point x="83" y="-244"/>
      <point x="93" y="-244" type="curve" smooth="yes"/>
      <point x="103" y="-244"/>
      <point x="110" y="-237"/>
      <point x="110" y="-228" type="curve" smooth="yes"/>
      <point x="110" y="328" type="line" smooth="yes"/>
      <point x="110" y="337"/>
      <point x="103" y="343"/>
    </contour>
  </outline>
</glyph>
<glyph name="cent" format="1">
  <advance width="251"/>
  <unicode hex="00A2"/>
  <outline>
    <contour>
      <point x="230" y="126" type="curve"/>
      <point x="230" y="126"/>
      <point x="230" y="142"/>
      <point x="212" y="142" type="curve" smooth="yes"/>
      <point x="202" y="142"/>
      <point x="197" y="132"/>
      <point x="197" y="132" type="curve"/>
      <point x="182" y="59"/>
      <point x="155" y="25"/>
      <point x="136" y="25" type="curve" smooth="yes"/>
      <point x="102" y="25"/>
      <point x="64" y="114"/>
      <point x="64" y="233" type="curve" smooth="yes"/>
      <point x="64" y="353"/>
      <point x="102" y="442"/>
      <point x="136" y="442" type="curve" smooth="yes"/>
      <point x="156" y="442"/>
      <point x="179" y="409"/>
      <point x="192" y="356" type="curve"/>
      <point x="192" y="356"/>
      <point x="196" y="347"/>
      <point x="208" y="347" type="curve" smooth="yes"/>
      <point x="223" y="347"/>
      <point x="225" y="357"/>
      <point x="225" y="362" type="curve"/>
      <point x="225" y="364"/>
      <point x="225" y="366"/>
      <point x="225" y="366" type="curve"/>
      <point x="208" y="429"/>
      <point x="179" y="466"/>
      <point x="146" y="473" type="curve"/>
      <point x="146" y="493" type="line" smooth="yes"/>
      <point x="146" y="500"/>
      <point x="140" y="505"/>
      <point x="131" y="505" type="curve"/>
      <point x="130" y="505" type="line"/>
      <point x="122" y="505"/>
      <point x="115" y="500"/>
      <point x="115" y="493" type="curve" smooth="yes"/>
      <point x="115" y="469" type="line"/>
      <point x="60" y="447"/>
      <point x="30" y="338"/>
      <point x="30" y="233" type="curve" smooth="yes"/>
      <point x="30" y="130"/>
      <point x="60" y="20"/>
      <point x="115" y="-3" type="curve"/>
      <point x="115" y="-27" type="line" smooth="yes"/>
      <point x="115" y="-33"/>
      <point x="122" y="-38"/>
      <point x="130" y="-38" type="curve"/>
      <point x="131" y="-38" type="line"/>
      <point x="140" y="-38"/>
      <point x="146" y="-33"/>
      <point x="146" y="-27" type="curve" smooth="yes"/>
      <point x="146" y="-7" type="line"/>
      <point x="182" y="1"/>
      <point x="215" y="49"/>
    </contour>
  </outline>
</glyph>
<glyph name="sterling" format="1">
  <advance width="297"/>
  <unicode hex="00A3"/>
  <outline>
    <contour>
      <point x="282" y="37" type="curve"/>
      <point x="88" y="37" type="line"/>
      <point x="120" y="82"/>
      <point x="125" y="122"/>
      <point x="125" y="220" type="curve" smooth="yes"/>
      <point x="125" y="266"/>
      <point x="124" y="325"/>
      <point x="124" y="404" type="curve"/>
      <point x="199" y="404" type="line" smooth="yes"/>
      <point x="208" y="404"/>
      <point x="215" y="412"/>
      <point x="215" y="420" type="curve" smooth="yes"/>
      <point x="215" y="427" type="line" smooth="yes"/>
      <point x="215" y="435"/>
      <point x="208" y="442"/>
      <point x="199" y="442" type="curve" smooth="yes"/>
      <point x="123" y="442" type="line"/>
      <point x="123" y="550"/>
      <point x="124" y="655"/>
      <point x="183" y="655" type="curve" smooth="yes"/>
      <point x="221" y="655"/>
      <point x="237" y="643"/>
      <point x="245" y="615" type="curve"/>
      <point x="245" y="615"/>
      <point x="248" y="604"/>
      <point x="259" y="604" type="curve" smooth="yes"/>
      <point x="272" y="604"/>
      <point x="274" y="616"/>
      <point x="274" y="620" type="curve" smooth="yes"/>
      <point x="274" y="668"/>
      <point x="228" y="688"/>
      <point x="182" y="688" type="curve"/>
      <point x="100" y="685"/>
      <point x="91" y="602"/>
      <point x="91" y="442" type="curve"/>
      <point x="48" y="442" type="line" smooth="yes"/>
      <point x="38" y="442"/>
      <point x="32" y="435"/>
      <point x="32" y="427" type="curve" smooth="yes"/>
      <point x="32" y="420" type="line" smooth="yes"/>
      <point x="32" y="412"/>
      <point x="38" y="404"/>
      <point x="48" y="404" type="curve" smooth="yes"/>
      <point x="91" y="404" type="line"/>
      <point x="91" y="382"/>
      <point x="92" y="324"/>
      <point x="92" y="269" type="curve" smooth="yes"/>
      <point x="92" y="223"/>
      <point x="91" y="179"/>
      <point x="90" y="161" type="curve" smooth="yes"/>
      <point x="87" y="119"/>
      <point x="80" y="72"/>
      <point x="43" y="40" type="curve"/>
      <point x="34" y="31"/>
      <point x="31" y="24"/>
      <point x="31" y="18" type="curve" smooth="yes"/>
      <point x="31" y="9"/>
      <point x="36" y="0"/>
      <point x="48" y="0" type="curve" smooth="yes"/>
      <point x="282" y="0" type="line" smooth="yes"/>
      <point x="289" y="0"/>
      <point x="297" y="7"/>
      <point x="297" y="16" type="curve" smooth="yes"/>
      <point x="297" y="22" type="line" smooth="yes"/>
      <point x="297" y="31"/>
      <point x="289" y="37"/>
    </contour>
  </outline>
</glyph>
<glyph name="currency" format="1">
  <advance width="285"/>
  <unicode hex="00A4"/>
  <outline>
    <contour>
      <point x="200" y="340" type="curve"/>
      <point x="112" y="340" type="line"/>
      <point x="112" y="405" type="line"/>
      <point x="113" y="405"/>
      <point x="114" y="404"/>
      <point x="115" y="404" type="curve"/>
      <point x="198" y="404"/>
      <point x="265" y="471"/>
      <point x="265" y="554" type="curve" smooth="yes"/>
      <point x="265" y="635"/>
      <point x="198" y="702"/>
      <point x="115" y="702" type="curve" smooth="yes"/>
      <point x="109" y="702"/>
      <point x="103" y="701"/>
      <point x="97" y="701" type="curve"/>
      <point x="95" y="701" type="line"/>
      <point x="91" y="701"/>
      <point x="83" y="699"/>
      <point x="80" y="697" type="curve"/>
      <point x="80" y="437" type="line"/>
      <point x="37" y="438" type="line"/>
      <point x="28" y="438"/>
      <point x="20" y="430"/>
      <point x="20" y="420" type="curve" smooth="yes"/>
      <point x="20" y="410"/>
      <point x="28" y="402"/>
      <point x="37" y="402" type="curve" smooth="yes"/>
      <point x="80" y="402" type="line"/>
      <point x="80" y="340" type="line"/>
      <point x="37" y="340" type="line" smooth="yes"/>
      <point x="28" y="340"/>
      <point x="20" y="333"/>
      <point x="20" y="323" type="curve"/>
      <point x="20" y="322" type="line"/>
      <point x="20" y="312"/>
      <point x="28" y="304"/>
      <point x="37" y="304" type="curve" smooth="yes"/>
      <point x="80" y="304" type="line"/>
      <point x="80" y="14" type="line" smooth="yes"/>
      <point x="80" y="6"/>
      <point x="88" y="-2"/>
      <point x="96" y="-2" type="curve" smooth="yes"/>
      <point x="104" y="-2"/>
      <point x="112" y="6"/>
      <point x="112" y="14" type="curve" smooth="yes"/>
      <point x="112" y="304" type="line"/>
      <point x="200" y="304" type="line" smooth="yes"/>
      <point x="210" y="304"/>
      <point x="218" y="312"/>
      <point x="218" y="322" type="curve"/>
      <point x="218" y="323" type="line"/>
      <point x="218" y="333"/>
      <point x="210" y="340"/>
    </contour>
    <contour>
      <point x="115" y="436" type="curve"/>
      <point x="110" y="436" type="line"/>
      <point x="110" y="670" type="line"/>
      <point x="115" y="670" type="line" smooth="yes"/>
      <point x="181" y="670"/>
      <point x="233" y="618"/>
      <point x="233" y="554" type="curve" smooth="yes"/>
      <point x="233" y="488"/>
      <point x="181" y="436"/>
    </contour>
  </outline>
</glyph>
<glyph name="yen" format="1">
  <advance width="297"/>
  <unicode hex="00A5"/>
  <outline>
    <contour>
      <point x="276" y="703" type="curve" smooth="yes"/>
      <point x="274" y="704"/>
      <point x="272" y="704"/>
      <point x="270" y="704" type="curve"/>
      <point x="264" y="704"/>
      <point x="259" y="700"/>
      <point x="257" y="693" type="curve" smooth="yes"/>
      <point x="149" y="397" type="line"/>
      <point x="41" y="693" type="line" smooth="yes"/>
      <point x="39" y="700"/>
      <point x="32" y="704"/>
      <point x="27" y="704" type="curve"/>
      <point x="25" y="704"/>
      <point x="23" y="704"/>
      <point x="22" y="703" type="curve"/>
      <point x="21" y="703" type="line"/>
      <point x="14" y="701"/>
      <point x="10" y="695"/>
      <point x="10" y="688" type="curve" smooth="yes"/>
      <point x="10" y="678"/>
      <point x="103" y="430"/>
      <point x="128" y="368" type="curve"/>
      <point x="44" y="368" type="line" smooth="yes"/>
      <point x="30" y="368"/>
      <point x="21" y="361"/>
      <point x="21" y="353" type="curve"/>
      <point x="21" y="352" type="line"/>
      <point x="21" y="345"/>
      <point x="30" y="338"/>
      <point x="44" y="338" type="curve" smooth="yes"/>
      <point x="133" y="338" type="line"/>
      <point x="133" y="329"/>
      <point x="133" y="318"/>
      <point x="133" y="306" type="curve"/>
      <point x="44" y="306" type="line" smooth="yes"/>
      <point x="30" y="306"/>
      <point x="21" y="300"/>
      <point x="21" y="291" type="curve"/>
      <point x="21" y="290" type="line"/>
      <point x="21" y="282"/>
      <point x="30" y="276"/>
      <point x="44" y="276" type="curve" smooth="yes"/>
      <point x="133" y="276" type="line"/>
      <point x="133" y="175"/>
      <point x="133" y="14"/>
      <point x="133" y="14" type="curve"/>
      <point x="133" y="6"/>
      <point x="139" y="-2"/>
      <point x="148" y="-2" type="curve"/>
      <point x="149" y="-2" type="line"/>
      <point x="158" y="-2"/>
      <point x="164" y="6"/>
      <point x="164" y="14" type="curve"/>
      <point x="164" y="14"/>
      <point x="164" y="175"/>
      <point x="164" y="276" type="curve"/>
      <point x="255" y="276" type="line" smooth="yes"/>
      <point x="267" y="276"/>
      <point x="276" y="282"/>
      <point x="276" y="290" type="curve"/>
      <point x="276" y="291" type="line"/>
      <point x="276" y="300"/>
      <point x="267" y="306"/>
      <point x="255" y="306" type="curve" smooth="yes"/>
      <point x="164" y="306" type="line"/>
      <point x="164" y="318"/>
      <point x="164" y="329"/>
      <point x="164" y="338" type="curve"/>
      <point x="255" y="338" type="line" smooth="yes"/>
      <point x="267" y="338"/>
      <point x="276" y="344"/>
      <point x="276" y="352" type="curve"/>
      <point x="276" y="353" type="line"/>
      <point x="276" y="361"/>
      <point x="267" y="368"/>
      <point x="255" y="368" type="curve" smooth="yes"/>
      <point x="169" y="368" type="line"/>
      <point x="193" y="431"/>
      <point x="286" y="678"/>
      <point x="286" y="689" type="curve" smooth="yes"/>
      <point x="286" y="695"/>
      <point x="282" y="701"/>
    </contour>
  </outline>
</glyph>
<glyph name="brokenbar" format="1">
  <advance width="151"/>
  <unicode hex="00A6"/>
  <outline>
    <contour>
      <point x="76" y="377" type="curve" smooth="yes"/>
      <point x="85" y="377"/>
      <point x="91" y="385"/>
      <point x="91" y="392" type="curve" smooth="yes"/>
      <point x="91" y="738" type="line" smooth="yes"/>
      <point x="91" y="747"/>
      <point x="85" y="754"/>
      <point x="76" y="754" type="curve" smooth="yes"/>
      <point x="66" y="754"/>
      <point x="60" y="747"/>
      <point x="60" y="738" type="curve" smooth="yes"/>
      <point x="60" y="392" type="line" smooth="yes"/>
      <point x="60" y="385"/>
      <point x="66" y="377"/>
    </contour>
    <contour>
      <point x="76" y="303" type="curve" smooth="yes"/>
      <point x="66" y="303"/>
      <point x="60" y="295"/>
      <point x="60" y="287" type="curve" smooth="yes"/>
      <point x="60" y="-58" type="line" smooth="yes"/>
      <point x="60" y="-67"/>
      <point x="66" y="-74"/>
      <point x="76" y="-74" type="curve" smooth="yes"/>
      <point x="85" y="-74"/>
      <point x="91" y="-67"/>
      <point x="91" y="-58" type="curve" smooth="yes"/>
      <point x="91" y="285" type="line" smooth="yes"/>
      <point x="91" y="295"/>
      <point x="85" y="303"/>
    </contour>
  </outline>
</glyph>
<glyph name="section" format="1">
  <advance width="302"/>
  <unicode hex="00A7"/>
  <outline>
    <contour>
      <point x="250" y="138" type="curve"/>
      <point x="248" y="146"/>
      <point x="246" y="152"/>
      <point x="242" y="159" type="curve"/>
      <point x="255" y="180"/>
      <point x="262" y="208"/>
      <point x="262" y="240" type="curve" smooth="yes"/>
      <point x="262" y="345"/>
      <point x="147" y="378"/>
      <point x="101" y="402" type="curve"/>
      <point x="85" y="414"/>
      <point x="77" y="427"/>
      <point x="77" y="449" type="curve" smooth="yes"/>
      <point x="77" y="502"/>
      <point x="105" y="530"/>
      <point x="153" y="530" type="curve" smooth="yes"/>
      <point x="171" y="530"/>
      <point x="191" y="526"/>
      <point x="213" y="506" type="curve"/>
      <point x="215" y="503"/>
      <point x="221" y="499"/>
      <point x="227" y="499" type="curve" smooth="yes"/>
      <point x="234" y="499"/>
      <point x="245" y="505"/>
      <point x="245" y="513" type="curve" smooth="yes"/>
      <point x="245" y="519"/>
      <point x="241" y="525"/>
      <point x="241" y="525" type="curve"/>
      <point x="215" y="557"/>
      <point x="180" y="563"/>
      <point x="155" y="563" type="curve" smooth="yes"/>
      <point x="86" y="563"/>
      <point x="40" y="523"/>
      <point x="40" y="457" type="curve" smooth="yes"/>
      <point x="40" y="422"/>
      <point x="50" y="400"/>
      <point x="72" y="381" type="curve"/>
      <point x="51" y="362"/>
      <point x="40" y="335"/>
      <point x="40" y="304" type="curve" smooth="yes"/>
      <point x="40" y="244"/>
      <point x="70" y="221"/>
      <point x="128" y="198" type="curve" smooth="yes"/>
      <point x="182" y="177"/>
      <point x="218" y="153"/>
      <point x="218" y="107" type="curve"/>
      <point x="217" y="52"/>
      <point x="180" y="31"/>
      <point x="138" y="31" type="curve" smooth="yes"/>
      <point x="121" y="31"/>
      <point x="102" y="35"/>
      <point x="82" y="55" type="curve" smooth="yes"/>
      <point x="79" y="58"/>
      <point x="72" y="62"/>
      <point x="66" y="62" type="curve" smooth="yes"/>
      <point x="57" y="62"/>
      <point x="49" y="54"/>
      <point x="49" y="47" type="curve" smooth="yes"/>
      <point x="49" y="41"/>
      <point x="53" y="36"/>
      <point x="53" y="36" type="curve"/>
      <point x="78" y="5"/>
      <point x="114" y="-1"/>
      <point x="139" y="-1" type="curve" smooth="yes"/>
      <point x="211" y="-1"/>
      <point x="254" y="43"/>
      <point x="254" y="113" type="curve" smooth="yes"/>
      <point x="254" y="122"/>
      <point x="253" y="131"/>
    </contour>
    <contour>
      <point x="77" y="303" type="curve"/>
      <point x="77" y="327"/>
      <point x="87" y="348"/>
      <point x="101" y="362" type="curve"/>
      <point x="109" y="358"/>
      <point x="118" y="355"/>
      <point x="128" y="351" type="curve" smooth="yes"/>
      <point x="197" y="323"/>
      <point x="226" y="290"/>
      <point x="226" y="240" type="curve" smooth="yes"/>
      <point x="226" y="236"/>
      <point x="227" y="196"/>
      <point x="216" y="185" type="curve"/>
      <point x="156" y="242"/>
      <point x="77" y="230"/>
      <point x="77" y="297" type="curve"/>
      <point x="77" y="299"/>
      <point x="77" y="301"/>
    </contour>
  </outline>
</glyph>
<glyph name="dieresis" format="1">
  <advance width="237"/>
  <unicode hex="00A8"/>
  <outline>
    <contour>
      <point x="86" y="674" type="curve" smooth="yes"/>
      <point x="86" y="659"/>
      <point x="74" y="647"/>
      <point x="58" y="647" type="curve" smooth="yes"/>
      <point x="42" y="647"/>
      <point x="30" y="659"/>
      <point x="30" y="674" type="curve" smooth="yes"/>
      <point x="30" y="689"/>
      <point x="42" y="701"/>
      <point x="58" y="701" type="curve" smooth="yes"/>
      <point x="74" y="701"/>
      <point x="86" y="689"/>
    </contour>
    <contour>
      <point x="207" y="674" type="curve" smooth="yes"/>
      <point x="207" y="659"/>
      <point x="194" y="647"/>
      <point x="178" y="647" type="curve" smooth="yes"/>
      <point x="162" y="647"/>
      <point x="150" y="659"/>
      <point x="150" y="674" type="curve" smooth="yes"/>
      <point x="150" y="689"/>
      <point x="162" y="701"/>
      <point x="178" y="701" type="curve" smooth="yes"/>
      <point x="194" y="701"/>
      <point x="207" y="689"/>
    </contour>
  </outline>
</glyph>
<glyph name="copyright" format="1">
  <advance width="571"/>
  <unicode hex="00A9"/>
  <outline>
    <contour>
      <point x="286" y="207" type="curve" smooth="yes"/>
      <point x="150" y="207"/>
      <point x="40" y="318"/>
      <point x="40" y="454" type="curve" smooth="yes"/>
      <point x="40" y="589"/>
      <point x="150" y="699"/>
      <point x="286" y="699" type="curve" smooth="yes"/>
      <point x="421" y="699"/>
      <point x="531" y="589"/>
      <point x="531" y="454" type="curve" smooth="yes"/>
      <point x="531" y="318"/>
      <point x="421" y="207"/>
    </contour>
    <contour>
      <point x="286" y="667" type="curve" smooth="yes"/>
      <point x="168" y="667"/>
      <point x="73" y="571"/>
      <point x="73" y="454" type="curve" smooth="yes"/>
      <point x="73" y="336"/>
      <point x="168" y="240"/>
      <point x="286" y="240" type="curve" smooth="yes"/>
      <point x="403" y="240"/>
      <point x="499" y="336"/>
      <point x="499" y="454" type="curve" smooth="yes"/>
      <point x="499" y="571"/>
      <point x="403" y="667"/>
    </contour>
    <contour>
      <point x="290" y="284" type="curve" smooth="yes"/>
      <point x="241" y="284"/>
      <point x="215" y="371"/>
      <point x="215" y="454" type="curve" smooth="yes"/>
      <point x="215" y="535"/>
      <point x="241" y="623"/>
      <point x="290" y="623" type="curve" smooth="yes"/>
      <point x="316" y="623"/>
      <point x="340" y="594"/>
      <point x="352" y="546" type="curve"/>
      <point x="352" y="546"/>
      <point x="352" y="545"/>
      <point x="352" y="543" type="curve"/>
      <point x="352" y="540"/>
      <point x="350" y="533"/>
      <point x="340" y="533" type="curve" smooth="yes"/>
      <point x="333" y="533"/>
      <point x="330" y="540"/>
      <point x="330" y="540" type="curve"/>
      <point x="320" y="576"/>
      <point x="305" y="600"/>
      <point x="290" y="600" type="curve" smooth="yes"/>
      <point x="266" y="600"/>
      <point x="238" y="537"/>
      <point x="238" y="454" type="curve" smooth="yes"/>
      <point x="238" y="370"/>
      <point x="266" y="308"/>
      <point x="290" y="308" type="curve" smooth="yes"/>
      <point x="303" y="308"/>
      <point x="323" y="331"/>
      <point x="334" y="383" type="curve"/>
      <point x="334" y="383"/>
      <point x="337" y="388"/>
      <point x="344" y="388" type="curve" smooth="yes"/>
      <point x="357" y="388"/>
      <point x="357" y="377"/>
      <point x="357" y="377" type="curve"/>
      <point x="343" y="319"/>
      <point x="319" y="284"/>
    </contour>
  </outline>
</glyph>
<glyph name="ordfeminine" format="1">
  <advance width="218"/>
  <unicode hex="00AA"/>
  <outline>
    <contour>
      <point x="171" y="492" type="curve"/>
      <point x="168" y="501"/>
      <point x="167" y="513"/>
      <point x="167" y="526" type="curve" smooth="yes"/>
      <point x="167" y="556"/>
      <point x="172" y="588"/>
      <point x="172" y="617" type="curve" smooth="yes"/>
      <point x="172" y="666"/>
      <point x="161" y="703"/>
      <point x="109" y="703" type="curve" smooth="yes"/>
      <point x="87" y="703"/>
      <point x="57" y="686"/>
      <point x="57" y="671" type="curve" smooth="yes"/>
      <point x="57" y="665"/>
      <point x="63" y="659"/>
      <point x="69" y="659" type="curve" smooth="yes"/>
      <point x="83" y="659"/>
      <point x="88" y="678"/>
      <point x="114" y="678" type="curve" smooth="yes"/>
      <point x="144" y="678"/>
      <point x="147" y="653"/>
      <point x="147" y="616" type="curve"/>
      <point x="137" y="622"/>
      <point x="126" y="625"/>
      <point x="115" y="625" type="curve" smooth="yes"/>
      <point x="72" y="625"/>
      <point x="45" y="589"/>
      <point x="45" y="544" type="curve" smooth="yes"/>
      <point x="45" y="504"/>
      <point x="75" y="471"/>
      <point x="114" y="471" type="curve"/>
      <point x="115" y="471" type="line"/>
      <point x="127" y="471"/>
      <point x="138" y="473"/>
      <point x="149" y="479" type="curve"/>
      <point x="150" y="474"/>
      <point x="153" y="470"/>
      <point x="159" y="470" type="curve" smooth="yes"/>
      <point x="168" y="470"/>
      <point x="173" y="475"/>
      <point x="173" y="481" type="curve" smooth="yes"/>
      <point x="173" y="485"/>
      <point x="171" y="490"/>
    </contour>
    <contour>
      <point x="115" y="495" type="curve"/>
      <point x="89" y="496"/>
      <point x="68" y="519"/>
      <point x="68" y="548" type="curve" smooth="yes"/>
      <point x="68" y="576"/>
      <point x="89" y="600"/>
      <point x="115" y="600" type="curve" smooth="yes"/>
      <point x="126" y="600"/>
      <point x="138" y="593"/>
      <point x="147" y="590" type="curve"/>
      <point x="142" y="577"/>
      <point x="143" y="542"/>
      <point x="143" y="525" type="curve" smooth="yes"/>
      <point x="143" y="518"/>
      <point x="143" y="511"/>
      <point x="144" y="505" type="curve"/>
      <point x="136" y="500"/>
      <point x="124" y="495"/>
    </contour>
    <contour>
      <point x="188" y="419" type="line"/>
      <point x="188" y="412"/>
      <point x="182" y="406"/>
      <point x="173" y="406" type="curve" smooth="yes"/>
      <point x="45" y="406" type="line" smooth="yes"/>
      <point x="36" y="406"/>
      <point x="30" y="412"/>
      <point x="30" y="419" type="curve"/>
      <point x="30" y="420" type="line"/>
      <point x="30" y="429"/>
      <point x="36" y="435"/>
      <point x="45" y="435" type="curve"/>
      <point x="173" y="434" type="line"/>
      <point x="182" y="434"/>
      <point x="188" y="429"/>
      <point x="188" y="420" type="curve"/>
    </contour>
  </outline>
</glyph>
<glyph name="guillemotleft" format="1">
  <advance width="288"/>
  <unicode hex="00AB"/>
  <outline>
    <contour>
      <point x="68" y="229" type="line"/>
      <point x="160" y="312" type="line" smooth="yes"/>
      <point x="163" y="315"/>
      <point x="165" y="319"/>
      <point x="165" y="323" type="curve" smooth="yes"/>
      <point x="165" y="326"/>
      <point x="164" y="330"/>
      <point x="161" y="333" type="curve"/>
      <point x="161" y="334" type="line"/>
      <point x="158" y="338"/>
      <point x="154" y="339"/>
      <point x="150" y="339" type="curve" smooth="yes"/>
      <point x="146" y="339"/>
      <point x="143" y="338"/>
      <point x="140" y="336" type="curve" smooth="yes"/>
      <point x="34" y="241" type="line"/>
      <point x="34" y="241"/>
      <point x="33" y="241"/>
      <point x="33" y="241" type="curve"/>
      <point x="33" y="239" type="line"/>
      <point x="29" y="239"/>
      <point x="30" y="228"/>
      <point x="30" y="229" type="curve"/>
      <point x="30" y="222"/>
      <point x="32" y="221"/>
      <point x="34" y="218" type="curve"/>
      <point x="140" y="124" type="line" smooth="yes"/>
      <point x="143" y="121"/>
      <point x="147" y="119"/>
      <point x="150" y="119" type="curve" smooth="yes"/>
      <point x="158" y="119"/>
      <point x="165" y="127"/>
      <point x="165" y="135" type="curve" smooth="yes"/>
      <point x="165" y="139"/>
      <point x="163" y="143"/>
      <point x="160" y="146" type="curve" smooth="yes"/>
    </contour>
    <contour>
      <point x="161" y="231" type="line"/>
      <point x="253" y="312" type="line" smooth="yes"/>
      <point x="256" y="315"/>
      <point x="258" y="319"/>
      <point x="258" y="323" type="curve" smooth="yes"/>
      <point x="258" y="327"/>
      <point x="256" y="331"/>
      <point x="254" y="334" type="curve"/>
      <point x="253" y="334" type="line"/>
      <point x="250" y="338"/>
      <point x="246" y="339"/>
      <point x="242" y="339" type="curve" smooth="yes"/>
      <point x="238" y="339"/>
      <point x="235" y="338"/>
      <point x="232" y="336" type="curve" smooth="yes"/>
      <point x="127" y="242" type="line"/>
      <point x="128" y="234"/>
      <point x="121" y="228"/>
      <point x="121" y="227" type="curve"/>
      <point x="123" y="227"/>
      <point x="125" y="218"/>
      <point x="126" y="221" type="curve"/>
      <point x="126" y="219" type="line"/>
      <point x="126" y="219"/>
      <point x="127" y="219"/>
      <point x="127" y="219" type="curve"/>
      <point x="232" y="124" type="line" smooth="yes"/>
      <point x="235" y="121"/>
      <point x="239" y="119"/>
      <point x="242" y="119" type="curve" smooth="yes"/>
      <point x="246" y="119"/>
      <point x="250" y="121"/>
      <point x="253" y="125" type="curve"/>
      <point x="254" y="126" type="line"/>
      <point x="256" y="129"/>
      <point x="258" y="132"/>
      <point x="258" y="136" type="curve" smooth="yes"/>
      <point x="258" y="140"/>
      <point x="256" y="144"/>
      <point x="253" y="148" type="curve"/>
    </contour>
  </outline>
</glyph>
<glyph name="logicalnot" format="1">
  <advance width="325"/>
  <unicode hex="00AC"/>
  <outline>
    <contour>
      <point x="295" y="356" type="line"/>
      <point x="295" y="364"/>
      <point x="287" y="370"/>
      <point x="279" y="370" type="curve"/>
      <point x="278" y="370" type="line"/>
      <point x="278" y="370"/>
      <point x="277" y="370"/>
      <point x="276" y="370" type="curve"/>
      <point x="51" y="370" type="line"/>
      <point x="50" y="370"/>
      <point x="48" y="370"/>
      <point x="47" y="370" type="curve"/>
      <point x="38" y="370"/>
      <point x="31" y="363"/>
      <point x="31" y="356" type="curve"/>
      <point x="31" y="355" type="line"/>
      <point x="31" y="347"/>
      <point x="39" y="340"/>
      <point x="51" y="340" type="curve" smooth="yes"/>
      <point x="264" y="340" type="line"/>
      <point x="262" y="265" type="line"/>
      <point x="262" y="256"/>
      <point x="270" y="250"/>
      <point x="278" y="250" type="curve"/>
      <point x="279" y="250" type="line"/>
      <point x="287" y="250"/>
      <point x="295" y="256"/>
      <point x="295" y="265" type="curve" smooth="yes"/>
      <point x="295" y="355" type="line"/>
    </contour>
  </outline>
</glyph>
<glyph name="registered" format="1">
  <advance width="551"/>
  <unicode hex="00AE"/>
  <outline>
    <contour>
      <point x="276" y="203" type="curve" smooth="yes"/>
      <point x="140" y="203"/>
      <point x="30" y="314"/>
      <point x="30" y="450" type="curve" smooth="yes"/>
      <point x="30" y="585"/>
      <point x="140" y="695"/>
      <point x="276" y="695" type="curve" smooth="yes"/>
      <point x="411" y="695"/>
      <point x="521" y="585"/>
      <point x="521" y="450" type="curve" smooth="yes"/>
      <point x="521" y="314"/>
      <point x="411" y="203"/>
    </contour>
    <contour>
      <point x="276" y="663" type="curve" smooth="yes"/>
      <point x="158" y="663"/>
      <point x="63" y="567"/>
      <point x="63" y="450" type="curve" smooth="yes"/>
      <point x="63" y="332"/>
      <point x="158" y="236"/>
      <point x="276" y="236" type="curve" smooth="yes"/>
      <point x="393" y="236"/>
      <point x="489" y="332"/>
      <point x="489" y="450" type="curve" smooth="yes"/>
      <point x="489" y="567"/>
      <point x="393" y="663"/>
    </contour>
    <contour>
      <point x="223" y="619" type="curve" smooth="yes"/>
      <point x="220" y="617"/>
      <point x="217" y="613"/>
      <point x="217" y="609" type="curve" smooth="yes"/>
      <point x="217" y="295" type="line" smooth="yes"/>
      <point x="217" y="288"/>
      <point x="222" y="284"/>
      <point x="228" y="284" type="curve"/>
      <point x="229" y="284" type="line"/>
      <point x="235" y="284"/>
      <point x="240" y="288"/>
      <point x="240" y="295" type="curve" smooth="yes"/>
      <point x="240" y="422" type="line"/>
      <point x="251" y="422"/>
      <point x="262" y="423"/>
      <point x="272" y="425" type="curve"/>
      <point x="333" y="289" type="line"/>
      <point x="333" y="289"/>
      <point x="336" y="283"/>
      <point x="343" y="283" type="curve" smooth="yes"/>
      <point x="354" y="283"/>
      <point x="356" y="290"/>
      <point x="356" y="294" type="curve"/>
      <point x="356" y="296"/>
      <point x="356" y="298"/>
      <point x="356" y="298" type="curve"/>
      <point x="294" y="433" type="line"/>
      <point x="332" y="450"/>
      <point x="359" y="485"/>
      <point x="359" y="524" type="curve" smooth="yes"/>
      <point x="359" y="585"/>
      <point x="298" y="625"/>
      <point x="228" y="620" type="curve"/>
      <point x="226" y="620"/>
      <point x="226" y="620"/>
    </contour>
    <contour>
      <point x="243" y="446" type="curve"/>
      <point x="241" y="446"/>
      <point x="240" y="446"/>
      <point x="240" y="446" type="curve"/>
      <point x="240" y="597" type="line"/>
      <point x="292" y="598"/>
      <point x="334" y="567"/>
      <point x="334" y="524" type="curve" smooth="yes"/>
      <point x="334" y="481"/>
      <point x="294" y="446"/>
    </contour>
  </outline>
</glyph>
<glyph name="macron" format="1">
  <advance width="233"/>
  <unicode hex="00AF"/>
  <outline>
    <contour>
      <point x="203" y="683" type="line"/>
      <point x="203" y="675"/>
      <point x="196" y="667"/>
      <point x="187" y="667" type="curve" smooth="yes"/>
      <point x="46" y="667" type="line" smooth="yes"/>
      <point x="39" y="667"/>
      <point x="30" y="675"/>
      <point x="30" y="683" type="curve"/>
      <point x="30" y="684" type="line"/>
      <point x="30" y="692"/>
      <point x="39" y="700"/>
      <point x="46" y="700" type="curve"/>
      <point x="187" y="698" type="line"/>
      <point x="196" y="698"/>
      <point x="203" y="692"/>
      <point x="203" y="684" type="curve"/>
    </contour>
  </outline>
</glyph>
<glyph name="degree" format="1">
  <advance width="228"/>
  <unicode hex="00B0"/>
  <outline>
    <contour>
      <point x="114" y="531" type="curve" smooth="yes"/>
      <point x="67" y="531"/>
      <point x="30" y="568"/>
      <point x="30" y="615" type="curve" smooth="yes"/>
      <point x="30" y="662"/>
      <point x="67" y="700"/>
      <point x="114" y="700" type="curve" smooth="yes"/>
      <point x="159" y="700"/>
      <point x="198" y="662"/>
      <point x="198" y="615" type="curve" smooth="yes"/>
      <point x="198" y="568"/>
      <point x="159" y="531"/>
    </contour>
    <contour>
      <point x="114" y="667" type="curve" smooth="yes"/>
      <point x="85" y="667"/>
      <point x="62" y="644"/>
      <point x="62" y="615" type="curve" smooth="yes"/>
      <point x="62" y="586"/>
      <point x="85" y="562"/>
      <point x="114" y="562" type="curve" smooth="yes"/>
      <point x="142" y="562"/>
      <point x="165" y="586"/>
      <point x="165" y="615" type="curve" smooth="yes"/>
      <point x="165" y="644"/>
      <point x="142" y="667"/>
    </contour>
  </outline>
</glyph>
<glyph name="plusminus" format="1">
  <advance width="234"/>
  <unicode hex="00B1"/>
  <outline>
    <contour>
      <point x="49" y="295" type="curve"/>
      <point x="98" y="295" type="line"/>
      <point x="98" y="244" type="line" smooth="yes"/>
      <point x="98" y="236"/>
      <point x="106" y="229"/>
      <point x="113" y="229" type="curve" smooth="yes"/>
      <point x="121" y="229" type="line" smooth="yes"/>
      <point x="130" y="229"/>
      <point x="136" y="236"/>
      <point x="136" y="244" type="curve" smooth="yes"/>
      <point x="136" y="295" type="line"/>
      <point x="187" y="295" type="line" smooth="yes"/>
      <point x="194" y="295"/>
      <point x="203" y="301"/>
      <point x="203" y="310" type="curve" smooth="yes"/>
      <point x="203" y="317" type="line" smooth="yes"/>
      <point x="203" y="326"/>
      <point x="194" y="333"/>
      <point x="187" y="333" type="curve" smooth="yes"/>
      <point x="136" y="333" type="line"/>
      <point x="136" y="384" type="line" smooth="yes"/>
      <point x="136" y="392"/>
      <point x="130" y="399"/>
      <point x="121" y="399" type="curve" smooth="yes"/>
      <point x="113" y="399" type="line" smooth="yes"/>
      <point x="106" y="399"/>
      <point x="98" y="392"/>
      <point x="98" y="384" type="curve" smooth="yes"/>
      <point x="98" y="333" type="line"/>
      <point x="49" y="333" type="line" smooth="yes"/>
      <point x="39" y="333"/>
      <point x="33" y="326"/>
      <point x="33" y="317" type="curve" smooth="yes"/>
      <point x="33" y="310" type="line" smooth="yes"/>
      <point x="33" y="301"/>
      <point x="39" y="295"/>
    </contour>
    <contour>
      <point x="188" y="207" type="curve"/>
      <point x="46" y="207" type="line" smooth="yes"/>
      <point x="38" y="207"/>
      <point x="30" y="201"/>
      <point x="30" y="192" type="curve" smooth="yes"/>
      <point x="30" y="183"/>
      <point x="38" y="175"/>
      <point x="46" y="175" type="curve" smooth="yes"/>
      <point x="188" y="175" type="line" smooth="yes"/>
      <point x="197" y="175"/>
      <point x="204" y="183"/>
      <point x="204" y="191" type="curve"/>
      <point x="204" y="192" type="line"/>
      <point x="204" y="201"/>
      <point x="197" y="207"/>
    </contour>
  </outline>
</glyph>
<glyph name="twosuperior" format="1">
  <advance width="239"/>
  <unicode hex="00B2"/>
  <outline>
    <contour>
      <point x="204" y="580" type="curve" smooth="yes"/>
      <point x="206" y="587"/>
      <point x="208" y="600"/>
      <point x="208" y="614" type="curve" smooth="yes"/>
      <point x="208" y="662"/>
      <point x="179" y="708"/>
      <point x="115" y="708" type="curve" smooth="yes"/>
      <point x="84" y="708"/>
      <point x="35" y="691"/>
      <point x="30" y="625" type="curve"/>
      <point x="30" y="625"/>
      <point x="30" y="613"/>
      <point x="42" y="613" type="curve" smooth="yes"/>
      <point x="59" y="613"/>
      <point x="57" y="656"/>
      <point x="73" y="670" type="curve" smooth="yes"/>
      <point x="88" y="683"/>
      <point x="110" y="684"/>
      <point x="120" y="684" type="curve" smooth="yes"/>
      <point x="162" y="684"/>
      <point x="183" y="657"/>
      <point x="183" y="615" type="curve" smooth="yes"/>
      <point x="183" y="550"/>
      <point x="143" y="484"/>
      <point x="110" y="419" type="curve" smooth="yes"/>
      <point x="84" y="369"/>
      <point x="32" y="268"/>
      <point x="32" y="257" type="curve" smooth="yes"/>
      <point x="32" y="248"/>
      <point x="34" y="240"/>
      <point x="45" y="240" type="curve" smooth="yes"/>
      <point x="191" y="240" type="line" smooth="yes"/>
      <point x="197" y="240"/>
      <point x="202" y="245"/>
      <point x="202" y="251" type="curve" smooth="yes"/>
      <point x="202" y="258" type="line" smooth="yes"/>
      <point x="202" y="264"/>
      <point x="197" y="269"/>
      <point x="191" y="269" type="curve" smooth="yes"/>
      <point x="65" y="269" type="line"/>
      <point x="128" y="408"/>
      <point x="181" y="481"/>
    </contour>
  </outline>
</glyph>
<glyph name="threesuperior" format="1">
  <advance width="247"/>
  <unicode hex="00B3"/>
  <outline>
    <contour>
      <point x="121" y="239" type="curve" smooth="yes"/>
      <point x="163" y="239"/>
      <point x="214" y="266"/>
      <point x="217" y="383" type="curve"/>
      <point x="203" y="383" type="line"/>
      <point x="217" y="383" type="line"/>
      <point x="217" y="448"/>
      <point x="199" y="498"/>
      <point x="165" y="513" type="curve"/>
      <point x="191" y="533"/>
      <point x="206" y="561"/>
      <point x="206" y="603" type="curve" smooth="yes"/>
      <point x="206" y="663"/>
      <point x="165" y="702"/>
      <point x="117" y="702" type="curve" smooth="yes"/>
      <point x="87" y="702"/>
      <point x="54" y="687"/>
      <point x="40" y="646" type="curve"/>
      <point x="40" y="644"/>
      <point x="40" y="632"/>
      <point x="53" y="632" type="curve" smooth="yes"/>
      <point x="62" y="632"/>
      <point x="64" y="638"/>
      <point x="64" y="638" type="curve"/>
      <point x="76" y="673"/>
      <point x="103" y="677"/>
      <point x="119" y="677" type="curve" smooth="yes"/>
      <point x="152" y="677"/>
      <point x="179" y="648"/>
      <point x="182" y="603" type="curve"/>
      <point x="182" y="542"/>
      <point x="149" y="525"/>
      <point x="108" y="525" type="curve"/>
      <point x="108" y="525"/>
      <point x="97" y="525"/>
      <point x="97" y="514" type="curve" smooth="yes"/>
      <point x="97" y="502"/>
      <point x="108" y="502"/>
      <point x="108" y="502" type="curve"/>
      <point x="166" y="502"/>
      <point x="192" y="468"/>
      <point x="192" y="383" type="curve" smooth="yes"/>
      <point x="192" y="301"/>
      <point x="164" y="263"/>
      <point x="117" y="263" type="curve" smooth="yes"/>
      <point x="101" y="263"/>
      <point x="62" y="271"/>
      <point x="55" y="324" type="curve"/>
      <point x="55" y="325"/>
      <point x="54" y="332"/>
      <point x="40" y="332" type="curve"/>
      <point x="32" y="331"/>
      <point x="31" y="325"/>
      <point x="31" y="322" type="curve" smooth="yes"/>
      <point x="31" y="256"/>
      <point x="94" y="239"/>
    </contour>
  </outline>
</glyph>
<glyph name="acute" format="1">
  <advance width="167"/>
  <unicode hex="00B4"/>
  <outline>
    <contour>
      <point x="37" y="555" type="curve" smooth="yes"/>
      <point x="40" y="554"/>
      <point x="43" y="553"/>
      <point x="46" y="553" type="curve" smooth="yes"/>
      <point x="51" y="553"/>
      <point x="55" y="555"/>
      <point x="58" y="560" type="curve" smooth="yes"/>
      <point x="134" y="680" type="line" smooth="yes"/>
      <point x="136" y="682"/>
      <point x="137" y="685"/>
      <point x="137" y="688" type="curve" smooth="yes"/>
      <point x="137" y="693"/>
      <point x="134" y="698"/>
      <point x="129" y="701" type="curve"/>
      <point x="129" y="702" type="line"/>
      <point x="127" y="703"/>
      <point x="124" y="704"/>
      <point x="122" y="704" type="curve"/>
      <point x="116" y="704"/>
      <point x="111" y="701"/>
      <point x="109" y="697" type="curve" smooth="yes"/>
      <point x="32" y="577" type="line"/>
      <point x="31" y="574"/>
      <point x="30" y="572"/>
      <point x="30" y="569" type="curve" smooth="yes"/>
      <point x="30" y="564"/>
      <point x="32" y="558"/>
    </contour>
  </outline>
</glyph>
<glyph name="mu" format="1">
  <advance width="330"/>
  <unicode hex="00B5"/>
  <outline>
    <contour>
      <point x="264" y="89" type="curve"/>
      <point x="264" y="98"/>
      <point x="263" y="450"/>
      <point x="263" y="450" type="curve"/>
      <point x="263" y="457"/>
      <point x="255" y="465"/>
      <point x="248" y="465" type="curve"/>
      <point x="247" y="465" type="line"/>
      <point x="238" y="465"/>
      <point x="231" y="457"/>
      <point x="231" y="450" type="curve"/>
      <point x="231" y="450"/>
      <point x="231" y="94"/>
      <point x="231" y="90" type="curve"/>
      <point x="224" y="56"/>
      <point x="194" y="31"/>
      <point x="156" y="31" type="curve" smooth="yes"/>
      <point x="115" y="31"/>
      <point x="82" y="62"/>
      <point x="82" y="101" type="curve" smooth="yes"/>
      <point x="82" y="450" type="line" smooth="yes"/>
      <point x="82" y="457"/>
      <point x="76" y="465"/>
      <point x="66" y="465" type="curve"/>
      <point x="65" y="465" type="line"/>
      <point x="57" y="465"/>
      <point x="50" y="457"/>
      <point x="50" y="450" type="curve" smooth="yes"/>
      <point x="50" y="-111" type="line" smooth="yes"/>
      <point x="50" y="-120"/>
      <point x="57" y="-126"/>
      <point x="65" y="-126" type="curve"/>
      <point x="66" y="-126" type="line"/>
      <point x="76" y="-126"/>
      <point x="82" y="-120"/>
      <point x="82" y="-111" type="curve" smooth="yes"/>
      <point x="82" y="28" type="line"/>
      <point x="100" y="9"/>
      <point x="127" y="-2"/>
      <point x="156" y="-2" type="curve" smooth="yes"/>
      <point x="193" y="-2"/>
      <point x="224" y="16"/>
      <point x="245" y="42" type="curve"/>
      <point x="254" y="22"/>
      <point x="275" y="0"/>
      <point x="295" y="0" type="curve" smooth="yes"/>
      <point x="300" y="0"/>
      <point x="309" y="5"/>
      <point x="309" y="17" type="curve" smooth="yes"/>
      <point x="309" y="34"/>
      <point x="269" y="41"/>
    </contour>
  </outline>
</glyph>
